<?xml version="1.0" encoding="UTF-8"?>
<!DOCTYPE svg PUBLIC "-//W3C//DTD SVG 1.1//EN" "http://www.w3.org/Graphics/SVG/1.1/DTD/svg11.dtd">
<!-- Creator: CorelDRAW 2018 (64 Bit Versão de avaliação) -->
<svg xmlns="http://www.w3.org/2000/svg" xml:space="preserve" width="91.44mm" height="91.44mm" version="1.1" style="shape-rendering:geometricPrecision; text-rendering:geometricPrecision; image-rendering:optimizeQuality; fill-rule:evenodd; clip-rule:evenodd"
viewBox="0 0 9144 9144"
 xmlns:xlink="http://www.w3.org/1999/xlink">
 <defs>
  <style type="text/css">
   <![CDATA[
    .fil0 {fill:none}
    .fil1 {fill:white}
   ]]>
  </style>
 </defs>
 <g id="Camada_x0020_1">
  <metadata id="CorelCorpID_0Corel-Layer"/>
  <rect class="fil0" width="9144" height="9144"/>
  <path class="fil1" d="M3707.16 5840.93c13.13,208.71 1.64,456.96 1.49,669.94 -0.07,109.12 7.67,201.92 70.17,268.14 138.48,146.73 339.78,145.12 464.13,3.74 66.24,-75.32 72.82,-147.87 72.92,-263.41 0.18,-214.09 -12.55,-469.1 1.47,-677.97l491.29 -1.46c2.74,223.51 0.54,447.73 0.74,670.96 0.12,123.71 5.02,189.98 69.06,269.29 105.05,130.07 320.04,156.48 464.33,1.83 64.3,-68.93 73.49,-147.8 73.97,-262.65 0.92,-223.62 -6.43,-456.08 1.34,-678.33 234.2,-12.06 628.42,86.5 665.92,-255.52 8.55,-77.93 4.35,-2670.18 1.16,-2772.49l-3028.68 -2.22c-6.92,300.74 2.14,614.28 2.14,914.55l-0.16 1380.07c-0.03,148.01 -8.19,320.7 0.24,465.56 7.19,123.43 95.42,229.3 198.25,256.86 99.75,26.73 326.49,8.32 450.22,13.11z"/>
  <path class="fil1" d="M5167.78 2074.33c-60.9,145 -278.3,66.49 -225.43,-86.28 53.58,-154.8 287.36,-61.18 225.43,86.28zm-1205.56 -16.93c-27.69,-171.08 212.02,-202.09 237.35,-49.83 27.61,165.96 -214.59,190.37 -237.35,49.83zm-243.39 -589.87c-363.14,208.98 -704.83,820.77 -655.93,1249.84l3018.37 0.08c38.15,-359.57 -177.37,-791.38 -405.22,-1036.09 -96.78,-103.96 -219.55,-186.31 -256.23,-225.09 10.46,-48.11 147.99,-291.76 183.56,-365.79 19.06,-39.66 57.96,-96.27 9.18,-124.55 -68.33,-39.62 -109.42,89.87 -158.73,186.95l-128.3 245.29c-82.78,-17.4 -519.37,-327.65 -1176.03,-136.05 -163.12,47.59 -300.21,130.7 -337.65,140.92 -42.78,-72.92 -84.63,-160.58 -124.45,-239.1 -53.02,-104.54 -89.41,-230.45 -158.6,-201.02 -69.19,29.43 25.02,168.49 66.88,250.15 24.73,48.24 117.26,209.29 123.15,254.46z"/>
  <path class="fil1" d="M6427.3 2800.67c-109.67,27.66 -172.77,85.51 -211.17,173.08 -40.91,93.29 -24.89,240.64 -24.89,353.65l0.01 1532.47c-0.01,133.08 6.46,222.54 81.76,297.14 63.17,62.57 160.58,117.32 292.43,87.41 99.18,-22.5 170.9,-90.81 206.93,-173.63 41.47,-95.31 26.33,-237.88 26.33,-354.86l0.01 -1532.46c0.11,-144.51 -4.7,-214.1 -83.67,-297.26 -61.06,-64.3 -162.9,-117.02 -287.74,-85.54z"/>
  <path class="fil1" d="M2594.56 2796.47c-289.93,53.05 -249.26,342.64 -249.26,514l0.01 1532.46c0.38,124.05 1.65,229.9 74.59,306.28 162.76,170.45 413.93,118.71 502.1,-68.05 46.2,-97.86 30.76,-231.89 30.76,-348.29l0.01 -1532.47c0.04,-136.73 1.13,-222.48 -73.97,-304.9 -60.25,-66.12 -156.86,-122.34 -284.24,-99.03z"/>
  <path class="fil1" d="M1757.04 8114.24c-139.63,-37.76 -539.47,109.92 -506.91,-367.5 22.79,-334.27 297.27,-276.98 597.68,-274.7l-0.13 833.57 199.2 -1.92 -0.06 -1028.61c-120.56,-12.42 -561.86,-10.06 -667.98,13.91 -192.09,43.4 -290.91,159.11 -322.05,363.94 -48.35,318.01 42.07,604.45 370.93,648.09 57.25,7.6 278.2,15.36 329.2,1.64l0.12 -188.42z"/>
  <path class="fil1" d="M6008.68 7479.92c88.28,-17.52 201.72,-9.18 270.81,32.78 186.19,113.05 182.59,529.76 -93.13,586.36 -402.96,82.72 -454.05,-308.54 -361.27,-495.86 32.84,-66.31 89.42,-104.59 183.59,-123.28zm591.02 377.15c31.41,-344.5 -101.63,-552.83 -430.24,-581.39 -348.65,-30.31 -555.87,111.89 -578.53,438.16 -22.01,316.97 82.1,559.43 429.54,589.54 344.62,29.87 547.25,-95.64 579.23,-446.31z"/>
  <path class="fil1" d="M2415.25 8305.97c-1.78,-188.86 -0.45,-378.82 -0.22,-567.78 0.24,-204.6 97.84,-266.91 302.77,-266.47 208.8,0.45 301.15,65.82 300.62,275.28 -0.46,184.88 0.39,369.79 -0.18,557.91l199.09 0.96c-0.07,-177.07 20.2,-609.14 -17.59,-753.18 -54.54,-207.88 -234.61,-279.71 -481.91,-280.01 -250.63,-0.32 -431.42,72.71 -485.38,285.53 -35.5,140.02 -16.71,573.29 -16.2,747.64l199 0.12z"/>
  <path class="fil1" d="M3365.36 7472c160.98,-0.46 412.45,-14.68 563.23,3.81 173.36,21.25 244.16,134.48 242.32,322 -1.84,186.49 -79.19,292.17 -259.15,307.76 -167.2,14.48 -376.43,1.97 -550.48,3.65l0.18 196.35c191.69,1.71 571.34,20.5 730.09,-31.48 197.96,-64.84 279.29,-231.6 279.51,-484.76 0.52,-610.36 -475.82,-521.01 -1010.16,-516.23l4.46 198.9z"/>
  <path class="fil1" d="M7116.16 7471.9c163.38,0.01 409.43,-14.48 563.08,3.78 171.91,20.43 244.25,134.3 242.39,322.13 -1.84,186.28 -79.05,292.15 -259.14,307.73 -164.18,14.2 -378.19,3.05 -550.5,3.54l0.04 196.69c190.26,0.15 574.17,21.23 730.29,-31.61 197.71,-66.92 279.44,-229.81 279.47,-484.83 0.08,-617.35 -484.15,-516.75 -1010.19,-516.43l4.56 199z"/>
  <path class="fil1" d="M4953 7471.9c137.28,-0.01 279.38,-15.65 277.73,147.86 -1.5,148.68 -147.03,142.11 -277.73,142.03l-431.83 0.16 0.06 196.68c167.88,0.09 369.77,-10.17 533.44,0.96 154.84,10.53 176.59,188.99 175.55,346.52l203.27 -2.42c0.64,-168.31 -15.83,-332.78 -104.92,-428.73 166.29,-137.54 129.19,-465.72 -41.02,-555.61 -140.64,-74.28 -573.36,-47.04 -766.78,-46.42l4.49 199.17c141.94,-2.26 285.6,-0.18 427.74,-0.2z"/>
  <polygon class="fil1" points="6754.38,8305.84 6781.8,8305.86 6953.27,8305.97 6953.14,7315.2 6953.38,7272.81 6754.32,7272.8 "/>
 </g>
</svg>
