<?xml version="1.0" encoding="UTF-8"?>
<!DOCTYPE svg PUBLIC "-//W3C//DTD SVG 1.1//EN" "http://www.w3.org/Graphics/SVG/1.1/DTD/svg11.dtd">
<!-- Creator: CorelDRAW 2018 (64 Bit Versão de avaliação) -->
<svg xmlns="http://www.w3.org/2000/svg" xml:space="preserve" width="91.44mm" height="91.44mm" version="1.1" style="shape-rendering:geometricPrecision; text-rendering:geometricPrecision; image-rendering:optimizeQuality; fill-rule:evenodd; clip-rule:evenodd"
viewBox="0 0 9144 9144"
 xmlns:xlink="http://www.w3.org/1999/xlink">
 <defs>
  <style type="text/css">
   <![CDATA[
    .fil0 {fill:none}
    .fil1 {fill:white}
   ]]>
  </style>
 </defs>
 <g id="Camada_x0020_1">
  <metadata id="CorelCorpID_0Corel-Layer"/>
  <rect class="fil0" width="9144" height="9144"/>
  <g id="_2515949541696">
   <path class="fil1" d="M2124.26 6555.77c30,-8 479.66,-295.93 689.51,-313.4 15.7,188.73 240.85,761.45 329.08,893.22 -234.37,-54.6 -924.18,-400.16 -1018.59,-579.82zm-924.56 -1770.77l1426.03 0c0,356.22 9.14,443.8 49.8,780.73 7.67,63.45 28.54,150.6 28.54,222.2 -73.01,6.07 -179.44,55.26 -248.38,80.69 -84.99,31.34 -158.23,67.76 -237.41,107.35 -250.07,125.06 -225.05,133.76 -423.1,266.4 -182.11,-271.97 -231.29,-300.32 -381.45,-637.14 -115.29,-258.6 -172.26,-494.55 -214.03,-820.23zm1426.03 -454.44l-1410.35 0c0,-381.53 184.27,-825.22 355.56,-1133.11l192.9 -308.57c134.61,71.22 214.74,151.53 433.34,256.16 180.53,86.4 412.74,153.12 506.89,198.28l-51.4 481.41c-19.43,149.14 -26.94,329 -26.94,505.83zm1253.63 -2444.6c32.93,0 112.98,47.29 136.93,66.8 223.01,181.77 474.23,859.96 474.23,1061.48 -59.82,0 -425.79,47.01 -611.16,47.01 -201.65,0 -564.47,-47.01 -642.48,-47.01l149.79 -508.36c25.32,-62.78 45.86,-98.87 67.39,-152.01 59.91,-147.99 239.9,-467.91 425.3,-467.91zm736.51 109.7c92.32,21.51 203.01,63.61 291.25,100.52 54.66,22.84 83.63,40.61 138.54,65.17 55.53,24.82 86.27,44.29 134.45,69.28 85.1,44.1 172.59,101.74 248.44,159 52.87,39.92 190.89,140.02 221.58,185.85 -190.47,127.54 -494.73,276.4 -720.85,329.08 -3.28,-147.31 -183.4,-636.42 -266.49,-799.13l-46.92 -109.77zm-1817.77 908.9c-237.91,-55.44 -652.69,-299.42 -705.18,-313.43 42.26,-158.23 802.98,-576.22 1034.26,-595.47 -94.27,178.14 -114.13,207.89 -186.07,425.08 -55.36,167.14 -100.67,302.05 -143.01,483.82zm1739.43 4716.8c0,-122.27 -15.68,-248.57 -15.68,-391.75 -181.03,-15.07 -275.92,-152.51 -313.4,-313.4 -11.17,12.8 -14.9,16.65 -28.08,34.61 -100.67,137.13 -144.66,263.11 -332.36,263.11 -168.5,0 -339.67,-322.14 -398.49,-463.38 -43.57,-104.66 -81.9,-195.78 -120.73,-302.37l-91.91 -346.85c446.63,-104.05 683.33,-47.01 1096.92,-47.01 -1.96,-87.75 -81.43,-317.5 -109.7,-438.78 -400.13,0 -532.5,-65.15 -1081.25,62.69 -3.9,-174.97 -78.36,-560.79 -78.36,-893.23l924.56 0c-2.1,-94.57 -47.26,-181.64 23.04,-321.71 28.13,-56.08 56.58,-63.06 70.98,-117.05l-1018.58 0c11.57,-139.02 27.48,-307.89 31.2,-454.59 3.52,-139.22 47.16,-302.89 47.16,-438.63 308.69,71.92 867.46,81.38 1195.77,36.15 311.9,-42.96 253.56,-58.27 272.89,109.23l51.73 606.86c19.62,94.9 54.63,10.09 317.97,43.31 76.83,9.68 73.91,-6.85 136.12,-12.03 0,-164.61 -59.05,-727.42 -94.03,-877.54 173.83,-14.48 550.02,-199.62 727.81,-306.47 79.29,-47.64 132.62,-90.08 212.42,-132.31 224.46,335.2 331.4,455.64 464.7,914.32 38.33,131.93 52.77,253.23 83.77,386.32l438.78 0c0,-314.45 -151.38,-717.89 -250.4,-940.54 -147.22,-331.05 -464.86,-808.49 -750.19,-1036.26 -321.29,-256.51 -522.74,-417.05 -915.54,-573.15 -1295.62,-514.83 -2803.56,-124.77 -3629.1,985.04 -170.78,229.58 -323.25,463.69 -434.3,756.67 -96.6,254.88 -213.27,638.89 -210.48,980.47 0.37,47.27 0.56,91.93 -2.2,138.98 -42.85,731.01 276.98,1526.82 758.2,2067.07l210.79 227.97c89.08,105.42 295.84,262.54 412.32,339.89 655.14,435 1491.73,628.67 2268.11,481.55 38.03,-7.22 81.69,-23.19 129.54,-27.19z"/>
   <path class="fil1" d="M4224.1 4596.96c0,119.16 190.57,793.18 226.01,917.95 42.94,151.12 74.28,298.96 120.57,443.57 213.16,665.7 33.79,487.57 1173.47,487.61 155.6,0 417.39,15.27 559.85,-4.3 115.95,-15.91 148.46,-6.53 257.82,2.52 58.43,4.83 72.78,-8.66 123.34,-13.03 42.52,-3.68 96.53,-0.87 140.26,-0.87 -43.79,187.92 -80.68,117.33 -31.35,329.08 -611.15,0 -1222.31,0 -1833.44,0 -214.36,0 -485.79,-58.74 -485.79,141.04 0,39.03 2.81,45.96 23.17,70.85 10.07,12.36 48.77,38.85 70.85,38.85l2507.28 0c87.15,0 94.02,-90.43 94.02,-156.71 0,-119.81 -125.36,-152.38 -125.36,-329.08 0,-81.63 32.32,-184.92 48.33,-265.1 17.53,-87.88 33.05,-165.08 49.99,-263.4 40.76,-236.54 141.83,-854.07 201.52,-1052.13 55.34,-183.68 121.92,-912.84 236.08,-1033.24 71.87,-75.81 95.46,-73.79 210.33,-104.06 162.37,-42.77 77.1,11.13 219.25,60.43 180.03,62.43 333.5,-47.97 371.5,-206.53 68.45,-285.5 -351.22,-493.98 -525.38,-226.32 -123.25,189.39 -333.28,19.1 -564.62,391.28 -51.7,83.15 -93.58,411.3 -115.9,526.59 -24.51,126.47 -51.77,51.77 -236.5,76.9 -161.47,21.99 -1581.33,27.95 -1885.11,26.71 -115.07,-0.48 -184.46,16.34 -313.04,16.05 -89.38,-0.21 -517.15,-45.87 -517.15,125.34z"/>
   <path class="fil1" d="M5054.66 7684.05c102.79,0 172.33,-0.3 263.32,-97.08 165.3,-175.81 80.6,-529.73 -247.67,-529.73 -399.54,0 -397.6,626.81 -15.65,626.81z"/>
   <path class="fil1" d="M6198.59 7354.97c0,442.33 626.83,442.33 626.83,0 0,-395.27 -626.83,-395.27 -626.83,0z"/>
  </g>
 </g>
</svg>
