<?xml version="1.0" encoding="UTF-8"?>
<!DOCTYPE svg PUBLIC "-//W3C//DTD SVG 1.1//EN" "http://www.w3.org/Graphics/SVG/1.1/DTD/svg11.dtd">
<!-- Creator: CorelDRAW 2018 (64 Bit Versão de avaliação) -->
<svg xmlns="http://www.w3.org/2000/svg" xml:space="preserve" width="91.44mm" height="91.44mm" version="1.1" style="shape-rendering:geometricPrecision; text-rendering:geometricPrecision; image-rendering:optimizeQuality; fill-rule:evenodd; clip-rule:evenodd"
viewBox="0 0 9144 9144"
 xmlns:xlink="http://www.w3.org/1999/xlink">
 <defs>
  <style type="text/css">
   <![CDATA[
    .fil0 {fill:none}
    .fil1 {fill:white}
    .fil2 {fill:white;fill-rule:nonzero}
   ]]>
  </style>
 </defs>
 <g id="Camada_x0020_1">
  <metadata id="CorelCorpID_0Corel-Layer"/>
  <rect class="fil0" width="9144" height="9144"/>
  <g id="_2031998893904">
   <g>
    <path class="fil1" d="M5737.19 3608.83l527.49 0 0 1563.61c0,43.43 13.12,56.52 56.51,56.52l489.81 0 0 -2166.46c-667.52,0 -475.52,-61.38 -795.92,259.03 -79.87,79.87 -222.01,203.85 -277.89,287.3z"/>
    <path class="fil2" d="M2397.1 5178.08l834.54 0c25.68,0 31.28,-47.78 31.28,-115.33 0,-33.41 -1.49,-67.32 -3.04,-102.78 -1.83,-42 -3.77,-86.04 -3.77,-126.62l0 -1422.46 1150.73 1687.4 0.5 0.88c6.07,9.51 10.48,17.35 14.91,25.25 14.75,26.24 30.18,53.66 52.74,53.66l828.91 0c12.81,0 19.97,-0.7 21.94,-2.53 1.84,-1.95 2.53,-9.12 2.53,-21.94l0 -3057.51 -859.01 0 0 1766.37c-350.43,-509.37 -705.84,-1067.6 -1072.24,-1558.45 -9.5,-14.26 -20.79,-30.09 -32.88,-47.04 -35.9,-50.32 -78.4,-109.91 -98.94,-160.88l-868.2 0 0 3081.98zm834.54 64.1l-898.64 0 0 -3210.18 979.73 0 6.34 23.8c11.86,44.47 58.68,110.08 97.23,164.12 12.77,17.9 24.69,34.62 34.14,48.79l954.83 1387.9 0 -1624.61 987.21 0 0 3121.61c0,30.46 -5.86,51.53 -21.37,67.07l-0.13 0.12c-15.53,15.51 -36.62,21.38 -67.08,21.38l-828.91 0c-59.95,0 -84.79,-44.18 -108.55,-86.48 -4.51,-8 -8.98,-15.94 -12.4,-21.39l-1033.84 -1515.94 0 1214.98c0,43.69 1.79,84.73 3.52,123.86 1.69,38.46 3.29,75.21 3.29,105.54 0,105.08 -17.09,179.43 -95.37,179.43z"/>
   </g>
   <g>
    <path class="fil2" d="M2465.49 6237.87l57.54 -5.72c3.47,19.26 10.41,33.33 20.95,42.38 10.54,9.04 24.76,13.53 42.65,13.53 18.9,0 33.18,-4.01 42.77,-12.03 9.59,-8.03 14.42,-17.41 14.42,-28.16 0,-6.94 -2.05,-12.79 -6.06,-17.68 -4.01,-4.84 -11.07,-9.05 -21.15,-12.59 -6.86,-2.44 -22.5,-6.67 -46.99,-12.78 -31.49,-7.9 -53.59,-17.55 -66.32,-29.04 -17.87,-16.11 -26.78,-35.78 -26.78,-58.96 0,-14.9 4.22,-28.91 12.57,-41.9 8.44,-13 20.55,-22.85 36.4,-29.65 15.83,-6.8 34.88,-10.21 57.32,-10.21 36.52,0 64.07,8.1 82.5,24.36 18.5,16.24 28.16,37.87 29.11,65l-59.17 2.05c-2.52,-15.1 -7.9,-25.91 -16.12,-32.5 -8.23,-6.6 -20.6,-9.94 -37.07,-9.94 -17,0 -30.33,3.53 -39.92,10.62 -6.19,4.55 -9.31,10.6 -9.31,18.22 0,6.94 2.93,12.85 8.77,17.75 7.41,6.32 25.44,12.85 54.07,19.65 28.63,6.74 49.78,13.82 63.46,21.01 13.73,7.29 24.48,17.15 32.23,29.73 7.75,12.58 11.63,28.08 11.63,46.51 0,16.74 -4.63,32.46 -13.94,47.07 -9.32,14.62 -22.44,25.51 -39.45,32.58 -17,7.14 -38.22,10.68 -63.59,10.68 -36.93,0 -65.29,-8.51 -85.08,-25.58 -19.8,-17 -31.56,-41.82 -35.44,-74.4zm405.58 94.67l0 -292.17 59.17 0 0 292.17 -59.17 0zm219.84 -94.67l57.54 -5.72c3.47,19.26 10.41,33.33 20.95,42.38 10.54,9.04 24.75,13.53 42.64,13.53 18.91,0 33.19,-4.01 42.77,-12.03 9.59,-8.03 14.42,-17.41 14.42,-28.16 0,-6.94 -2.04,-12.79 -6.05,-17.68 -4.01,-4.84 -11.08,-9.05 -21.15,-12.59 -6.87,-2.44 -22.51,-6.67 -46.99,-12.78 -31.49,-7.9 -53.6,-17.55 -66.32,-29.04 -17.88,-16.11 -26.78,-35.78 -26.78,-58.96 0,-14.9 4.21,-28.91 12.57,-41.9 8.44,-13 20.55,-22.85 36.39,-29.65 15.84,-6.8 34.88,-10.21 57.32,-10.21 36.53,0 64.07,8.1 82.5,24.36 18.51,16.24 28.16,37.87 29.11,65l-59.17 2.05c-2.52,-15.1 -7.89,-25.91 -16.12,-32.5 -8.22,-6.6 -20.6,-9.94 -37.06,-9.94 -17,0 -30.33,3.53 -39.92,10.62 -6.2,4.55 -9.32,10.6 -9.32,18.22 0,6.94 2.93,12.85 8.78,17.75 7.4,6.32 25.43,12.85 54.07,19.65 28.62,6.74 49.78,13.82 63.45,21.01 13.74,7.29 24.48,17.15 32.23,29.73 7.75,12.58 11.64,28.08 11.64,46.51 0,16.74 -4.63,32.46 -13.95,47.07 -9.32,14.62 -22.44,25.51 -39.44,32.58 -17.01,7.14 -38.23,10.68 -63.6,10.68 -36.92,0 -65.29,-8.51 -85.08,-25.58 -19.79,-17 -31.55,-41.82 -35.43,-74.4zm473.32 94.67l0 -242.79 -86.51 0 0 -49.38 231.78 0 0 49.38 -86.11 0 0 242.79 -59.16 0zm303.49 0l0 -292.17 216.27 0 0 49.38 -157.09 0 0 64.88 146.07 0 0 49.38 -146.07 0 0 79.15 162.81 0 0 49.38 -221.99 0zm391.29 0l0 -292.17 88.62 0 52.37 199.28 51.75 -199.28 88.83 0 0 292.17 -54.69 0 -0.21 -230 -57.6 230 -56.84 0 -57.34 -230 -0.2 230 -54.69 0zm723.88 0l-63.74 0 -25.23 -66.51 -117.18 0 -24.28 66.51 -62.57 0 113.45 -292.17 62.5 0 117.05 292.17zm-108.14 -115.89l-40.6 -108.14 -39.46 108.14 80.06 0zm357.76 115.89l0 -292.17 94.6 0c35.84,0 59.17,1.43 70.05,4.36 16.74,4.42 30.75,13.93 42.03,28.62 11.3,14.69 16.94,33.67 16.94,56.94 0,17.95 -3.26,32.97 -9.73,45.22 -6.53,12.24 -14.75,21.83 -24.75,28.83 -10,6.94 -20.21,11.57 -30.54,13.8 -14.07,2.79 -34.42,4.22 -61.07,4.22l-38.35 0 0 110.18 -59.18 0zm59.18 -242.79l0 83.24 32.15 0c23.2,0 38.64,-1.56 46.46,-4.62 7.82,-3.06 13.94,-7.83 18.36,-14.42 4.42,-6.53 6.67,-14.08 6.67,-22.79 0,-10.67 -3.13,-19.45 -9.32,-26.39 -6.26,-6.94 -14.07,-11.28 -23.66,-13.05 -7.01,-1.29 -21.09,-1.97 -42.31,-1.97l-28.35 0zm565.87 242.79l-63.74 0 -25.23 -66.51 -117.18 0 -24.28 66.51 -62.57 0 113.45 -292.17 62.5 0 117.05 292.17zm-108.14 -115.89l-40.6 -108.14 -39.46 108.14 80.06 0zm259.56 115.89l0 -292.17 124.26 0c31.22,0 53.93,2.65 68.08,7.89 14.21,5.23 25.49,14.55 33.99,27.96 8.51,13.45 12.79,28.76 12.79,46.03 0,21.97 -6.39,40.06 -19.24,54.34 -12.85,14.28 -32.04,23.26 -57.61,27 12.72,7.42 23.19,15.58 31.42,24.49 8.3,8.9 19.45,24.75 33.46,47.47l35.64 56.99 -70.53 0 -42.3 -63.8c-15.16,-22.64 -25.57,-36.92 -31.22,-42.83 -5.57,-5.85 -11.49,-9.94 -17.74,-12.11 -6.33,-2.19 -16.26,-3.26 -29.86,-3.26l-11.97 0 0 122 -59.17 0zm59.17 -168.53l43.66 0c28.29,0 45.91,-1.22 52.98,-3.6 7,-2.38 12.58,-6.53 16.53,-12.38 4.01,-5.84 5.99,-13.19 5.99,-21.97 0,-9.86 -2.66,-17.75 -7.89,-23.87 -5.25,-6.05 -12.66,-9.86 -22.17,-11.43 -4.84,-0.68 -19.19,-1.01 -43.06,-1.01l-46.04 0 0 74.26zm618.66 168.53l-63.74 0 -25.22 -66.51 -117.19 0 -24.28 66.51 -62.56 0 113.44 -292.17 62.5 0 117.05 292.17zm-108.14 -115.89l-40.6 -108.14 -39.46 108.14 80.06 0z"/>
    <path class="fil2" d="M1598.73 7106.68l0 -242.79 -86.51 0 0 -49.38 231.77 0 0 49.38 -86.11 0 0 242.79 -59.15 0zm282.49 -144.31c0,-29.8 4.5,-54.82 13.4,-75.09 6.6,-14.89 15.71,-28.28 27.2,-40.12 11.5,-11.84 24.08,-20.6 37.75,-26.39 18.22,-7.68 39.25,-11.56 63.05,-11.56 43.12,0 77.52,13.4 103.43,40.12 25.85,26.8 38.78,64 38.78,111.67 0,47.27 -12.87,84.28 -38.51,110.93 -25.64,26.73 -59.98,40.06 -102.89,40.06 -43.46,0 -78.08,-13.26 -103.72,-39.85 -25.64,-26.53 -38.49,-63.12 -38.49,-109.77zm60.8 -1.97c0,33.12 7.69,58.21 22.99,75.35 15.3,17.07 34.76,25.64 58.29,25.64 23.6,0 42.91,-8.51 58.08,-25.43 15.09,-17.01 22.64,-42.44 22.64,-76.38 0,-33.53 -7.35,-58.56 -22.1,-75.02 -14.69,-16.52 -34.21,-24.76 -58.62,-24.76 -24.36,0 -44.01,8.37 -58.9,25.04 -14.9,16.72 -22.38,41.89 -22.38,75.56zm387.38 -145.89l107.59 0c24.28,0 42.78,1.84 55.49,5.58 17.07,5.03 31.76,14.01 43.94,26.93 12.24,12.86 21.49,28.63 27.88,47.33 6.32,18.64 9.52,41.69 9.52,69.03 0,24.09 -2.99,44.75 -8.97,62.17 -7.28,21.28 -17.68,38.49 -31.21,51.61 -10.21,10 -24.01,17.76 -41.36,23.33 -12.98,4.15 -30.33,6.19 -52.09,6.19l-110.79 0 0 -292.17zm59.17 49.38l0 193.42 43.87 0c16.38,0 28.22,-0.96 35.5,-2.79 9.58,-2.38 17.47,-6.46 23.73,-12.17 6.33,-5.71 11.43,-15.11 15.37,-28.16 4.01,-13.06 5.98,-30.94 5.98,-53.52 0,-22.58 -1.97,-39.86 -5.98,-51.96 -3.94,-12.11 -9.52,-21.49 -16.66,-28.29 -7.14,-6.73 -16.19,-11.36 -27.21,-13.74 -8.16,-1.84 -24.28,-2.79 -48.21,-2.79l-26.39 0zm617.26 242.79l-63.74 0 -25.23 -66.51 -117.18 0 -24.28 66.51 -62.57 0 113.45 -292.17 62.5 0 117.05 292.17zm-108.14 -115.89l-40.6 -108.13 -39.46 108.13 80.06 0zm242.65 21.22l57.54 -5.72c3.47,19.26 10.41,33.33 20.95,42.38 10.54,9.05 24.75,13.53 42.64,13.53 18.91,0 33.19,-4.01 42.77,-12.03 9.59,-8.03 14.42,-17.41 14.42,-28.16 0,-6.94 -2.04,-12.79 -6.05,-17.68 -4.01,-4.83 -11.08,-9.05 -21.15,-12.58 -6.87,-2.45 -22.51,-6.67 -46.99,-12.79 -31.49,-7.89 -53.6,-17.55 -66.32,-29.04 -17.88,-16.11 -26.78,-35.78 -26.78,-58.96 0,-14.9 4.21,-28.91 12.57,-41.9 8.44,-12.99 20.55,-22.85 36.39,-29.65 15.84,-6.8 34.88,-10.2 57.32,-10.2 36.53,0 64.07,8.09 82.5,24.35 18.51,16.25 28.16,37.88 29.11,65.01l-59.17 2.04c-2.52,-15.1 -7.89,-25.91 -16.12,-32.5 -8.22,-6.6 -20.6,-9.94 -37.06,-9.94 -17.01,0 -30.33,3.54 -39.92,10.62 -6.2,4.55 -9.32,10.6 -9.32,18.22 0,6.94 2.93,12.86 8.78,17.75 7.4,6.33 25.43,12.85 54.07,19.65 28.62,6.74 49.78,13.82 63.45,21.02 13.74,7.28 24.48,17.14 32.23,29.72 7.75,12.59 11.63,28.09 11.63,46.52 0,16.73 -4.62,32.45 -13.94,47.06 -9.32,14.63 -22.44,25.51 -39.44,32.58 -17.01,7.15 -38.23,10.68 -63.6,10.68 -36.92,0 -65.29,-8.51 -85.08,-25.57 -19.79,-17.01 -31.55,-41.83 -35.43,-74.41zm767.62 94.67l-63.73 0 -25.23 -66.51 -117.19 0 -24.27 66.51 -62.57 0 113.45 -292.17 62.5 0 117.04 292.17zm-108.13 -115.89l-40.61 -108.13 -39.45 108.13 80.06 0zm242.65 21.22l57.53 -5.72c3.47,19.26 10.41,33.33 20.95,42.38 10.54,9.05 24.76,13.53 42.65,13.53 18.9,0 33.18,-4.01 42.77,-12.03 9.59,-8.03 14.42,-17.41 14.42,-28.16 0,-6.94 -2.04,-12.79 -6.05,-17.68 -4.01,-4.83 -11.08,-9.05 -21.16,-12.58 -6.86,-2.45 -22.5,-6.67 -46.99,-12.79 -31.48,-7.89 -53.59,-17.55 -66.31,-29.04 -17.88,-16.11 -26.79,-35.78 -26.79,-58.96 0,-14.9 4.22,-28.91 12.57,-41.9 8.45,-12.99 20.55,-22.85 36.4,-29.65 15.83,-6.8 34.88,-10.2 57.32,-10.2 36.53,0 64.07,8.09 82.5,24.35 18.51,16.25 28.16,37.88 29.11,65.01l-59.17 2.04c-2.52,-15.1 -7.89,-25.91 -16.12,-32.5 -8.22,-6.6 -20.6,-9.94 -37.07,-9.94 -17,0 -30.33,3.54 -39.91,10.62 -6.2,4.55 -9.32,10.6 -9.32,18.22 0,6.94 2.93,12.86 8.78,17.75 7.4,6.33 25.43,12.85 54.07,19.65 28.62,6.74 49.77,13.82 63.45,21.02 13.74,7.28 24.48,17.14 32.23,29.72 7.75,12.59 11.63,28.09 11.63,46.52 0,16.73 -4.63,32.45 -13.94,47.06 -9.32,14.63 -22.44,25.51 -39.45,32.58 -17,7.15 -38.22,10.68 -63.59,10.68 -36.92,0 -65.29,-8.51 -85.08,-25.57 -19.79,-17.01 -31.55,-41.83 -35.43,-74.41zm519.59 94.67l0 -292.17 216.26 0 0 49.38 -157.09 0 0 64.88 146.08 0 0 49.38 -146.08 0 0 79.16 162.81 0 0 49.37 -221.98 0zm389.88 0l0 -292.17 88.62 0 52.37 199.28 51.76 -199.28 88.82 0 0 292.17 -54.69 0 -0.2 -230 -57.61 230 -56.84 0 -57.34 -230 -0.2 230 -54.69 0zm459.28 0l0 -292.17 94.59 0c35.84,0 59.17,1.43 70.05,4.36 16.74,4.42 30.75,13.93 42.03,28.62 11.3,14.69 16.94,33.68 16.94,56.94 0,17.95 -3.26,32.98 -9.73,45.22 -6.53,12.24 -14.75,21.83 -24.75,28.83 -10,6.94 -20.21,11.57 -30.54,13.81 -14.07,2.78 -34.42,4.21 -61.07,4.21l-38.35 0 0 110.18 -59.17 0zm59.17 -242.79l0 83.25 32.15 0c23.2,0 38.64,-1.57 46.46,-4.63 7.82,-3.06 13.94,-7.83 18.36,-14.42 4.42,-6.53 6.67,-14.07 6.67,-22.79 0,-10.67 -3.13,-19.44 -9.32,-26.38 -6.26,-6.94 -14.07,-11.29 -23.66,-13.06 -7.01,-1.29 -21.09,-1.97 -42.31,-1.97l-28.35 0zm331.53 242.79l0 -292.17 124.26 0c31.22,0 53.93,2.65 68.08,7.89 14.21,5.24 25.5,14.55 33.99,27.96 8.51,13.45 12.79,28.76 12.79,46.04 0,21.96 -6.39,40.06 -19.24,54.33 -12.85,14.28 -32.04,23.27 -57.6,27.01 12.71,7.41 23.18,15.57 31.41,24.48 8.3,8.91 19.45,24.75 33.46,47.48l35.64 56.98 -70.53 0 -42.3 -63.8c-15.16,-22.64 -25.57,-36.92 -31.22,-42.83 -5.57,-5.85 -11.49,-9.94 -17.74,-12.11 -6.33,-2.18 -16.26,-3.26 -29.86,-3.26l-11.97 0 0 122 -59.17 0zm59.17 -168.53l43.66 0c28.29,0 45.91,-1.22 52.98,-3.6 7,-2.37 12.58,-6.53 16.53,-12.37 4.01,-5.85 5.99,-13.2 5.99,-21.98 0,-9.86 -2.66,-17.75 -7.89,-23.87 -5.25,-6.05 -12.66,-9.85 -22.17,-11.42 -4.84,-0.68 -19.19,-1.02 -43.06,-1.02l-46.04 0 0 74.26zm354.06 168.53l0 -292.17 216.26 0 0 49.38 -157.09 0 0 64.88 146.08 0 0 49.38 -146.08 0 0 79.16 162.81 0 0 49.37 -221.98 0zm375.19 -94.67l57.54 -5.72c3.47,19.26 10.41,33.33 20.95,42.38 10.54,9.05 24.75,13.53 42.65,13.53 18.9,0 33.18,-4.01 42.77,-12.03 9.59,-8.03 14.42,-17.41 14.42,-28.16 0,-6.94 -2.05,-12.79 -6.06,-17.68 -4.01,-4.83 -11.07,-9.05 -21.15,-12.58 -6.86,-2.45 -22.5,-6.67 -46.99,-12.79 -31.49,-7.89 -53.59,-17.55 -66.32,-29.04 -17.87,-16.11 -26.78,-35.78 -26.78,-58.96 0,-14.9 4.22,-28.91 12.57,-41.9 8.44,-12.99 20.55,-22.85 36.4,-29.65 15.83,-6.8 34.88,-10.2 57.32,-10.2 36.52,0 64.07,8.09 82.5,24.35 18.5,16.25 28.16,37.88 29.11,65.01l-59.17 2.04c-2.52,-15.1 -7.9,-25.91 -16.12,-32.5 -8.23,-6.6 -20.6,-9.94 -37.07,-9.94 -17,0 -30.33,3.54 -39.92,10.62 -6.19,4.55 -9.31,10.6 -9.31,18.22 0,6.94 2.93,12.86 8.77,17.75 7.41,6.33 25.44,12.85 54.07,19.65 28.63,6.74 49.78,13.82 63.45,21.02 13.74,7.28 24.49,17.14 32.24,29.72 7.75,12.59 11.63,28.09 11.63,46.52 0,16.73 -4.63,32.45 -13.95,47.06 -9.31,14.63 -22.44,25.51 -39.44,32.58 -17,7.15 -38.22,10.68 -63.59,10.68 -36.93,0 -65.29,-8.51 -85.08,-25.57 -19.8,-17.01 -31.56,-41.83 -35.44,-74.41zm669.42 94.67l-63.73 0 -25.23 -66.51 -117.19 0 -24.27 66.51 -62.57 0 113.45 -292.17 62.5 0 117.04 292.17zm-108.13 -115.89l-40.6 -108.13 -39.46 108.13 80.06 0zm242.65 21.22l57.54 -5.72c3.47,19.26 10.41,33.33 20.94,42.38 10.54,9.05 24.76,13.53 42.65,13.53 18.9,0 33.18,-4.01 42.77,-12.03 9.59,-8.03 14.42,-17.41 14.42,-28.16 0,-6.94 -2.04,-12.79 -6.05,-17.68 -4.01,-4.83 -11.08,-9.05 -21.16,-12.58 -6.86,-2.45 -22.5,-6.67 -46.99,-12.79 -31.48,-7.89 -53.59,-17.55 -66.31,-29.04 -17.88,-16.11 -26.79,-35.78 -26.79,-58.96 0,-14.9 4.22,-28.91 12.57,-41.9 8.45,-12.99 20.55,-22.85 36.4,-29.65 15.83,-6.8 34.88,-10.2 57.32,-10.2 36.53,0 64.07,8.09 82.5,24.35 18.51,16.25 28.16,37.88 29.11,65.01l-59.17 2.04c-2.52,-15.1 -7.89,-25.91 -16.12,-32.5 -8.22,-6.6 -20.6,-9.94 -37.06,-9.94 -17.01,0 -30.34,3.54 -39.92,10.62 -6.2,4.55 -9.32,10.6 -9.32,18.22 0,6.94 2.93,12.86 8.78,17.75 7.4,6.33 25.43,12.85 54.07,19.65 28.62,6.74 49.77,13.82 63.45,21.02 13.74,7.28 24.48,17.14 32.23,29.72 7.75,12.59 11.63,28.09 11.63,46.52 0,16.73 -4.62,32.45 -13.94,47.06 -9.32,14.63 -22.44,25.51 -39.45,32.58 -17,7.15 -38.22,10.68 -63.59,10.68 -36.92,0 -65.29,-8.51 -85.08,-25.57 -19.79,-17.01 -31.55,-41.83 -35.43,-74.41z"/>
   </g>
  </g>
 </g>
</svg>
