<?xml version="1.0" encoding="UTF-8"?>
<!DOCTYPE svg PUBLIC "-//W3C//DTD SVG 1.1//EN" "http://www.w3.org/Graphics/SVG/1.1/DTD/svg11.dtd">
<!-- Creator: CorelDRAW 2018 (64 Bit Versão de avaliação) -->
<svg xmlns="http://www.w3.org/2000/svg" xml:space="preserve" width="91.44mm" height="91.44mm" version="1.1" style="shape-rendering:geometricPrecision; text-rendering:geometricPrecision; image-rendering:optimizeQuality; fill-rule:evenodd; clip-rule:evenodd"
viewBox="0 0 9144 9144"
 xmlns:xlink="http://www.w3.org/1999/xlink">
 <defs>
  <style type="text/css">
   <![CDATA[
    .fil0 {fill:none}
    .fil1 {fill:white}
    .fil2 {fill:white;fill-rule:nonzero}
   ]]>
  </style>
 </defs>
 <g id="Camada_x0020_1">
  <metadata id="CorelCorpID_0Corel-Layer"/>
  <rect class="fil0" width="9144" height="9144"/>
  <g id="_2032635450848">
   <g>
    <path class="fil1" d="M2049.97 5175.86l833.95 0c25.67,0 31.26,-47.74 31.26,-115.25 0,-33.38 -1.49,-67.27 -3.04,-102.7 -1.83,-41.97 -3.76,-85.98 -3.76,-126.53l0 -1421.46 1149.91 1686.21 0.51 0.87c6.06,9.51 10.47,17.35 14.89,25.24 14.75,26.22 30.17,53.62 52.71,53.62l828.32 0c12.8,0 19.98,-0.7 21.93,-2.53 1.84,-1.95 2.55,-9.11 2.55,-21.92l0 -3055.37 -858.43 0 0 1765.14c-350.18,-509.01 -705.34,-1066.85 -1071.48,-1557.36 -9.49,-14.24 -20.78,-30.07 -32.86,-47.01 -35.87,-50.28 -78.35,-109.83 -98.87,-160.77l-867.59 0 0 3079.82zm2993.27 -3143.87l-986.51 0 0 1623.47 -954.16 -1386.93c-9.44,-14.16 -21.35,-30.86 -34.12,-48.75 -38.51,-54 -85.31,-119.57 -97.15,-164.01l-6.35 -23.78 -979.03 0 0 3207.93 898 0 0 0c78.23,0 95.31,-74.3 95.31,-179.31 0,-30.31 -1.6,-67.03 -3.29,-105.46 -1.73,-39.11 -3.52,-80.11 -3.52,-123.77l0 -1214.13 1033.13 1514.87c3.41,5.45 7.87,13.39 12.38,21.37 23.74,42.27 48.58,86.43 108.47,86.43l828.32 0c30.44,0 51.52,-5.86 67.04,-21.37l0.12 -0.12c15.51,-15.52 21.36,-36.58 21.36,-67.02l0 -3119.42z"/>
    <path class="fil1" d="M5557.14 5226.71l1581.34 0 0 -545.94 -1167.16 0c-82.02,0 -56.49,-79.76 -56.49,-263.57l1223.65 0 0 -1355.44 -1637.8 0 0 545.96 1223.65 0 0 263.55 -1223.65 0 0 1298.96c0,43.39 13.08,56.48 56.46,56.48z"/>
   </g>
   <g>
    <path class="fil2" d="M2201.05 6237.59l57.56 -5.72c3.47,19.26 10.42,33.34 20.96,42.39 10.54,9.05 24.76,13.54 42.66,13.54 18.91,0 33.19,-4.02 42.78,-12.04 9.59,-8.03 14.43,-17.42 14.43,-28.17 0,-6.94 -2.05,-12.79 -6.06,-17.69 -4.01,-4.83 -11.08,-9.05 -21.16,-12.58 -6.87,-2.45 -22.51,-6.68 -47,-12.8 -31.5,-7.89 -53.61,-17.55 -66.34,-29.04 -17.89,-16.12 -26.8,-35.79 -26.8,-58.98 0,-14.91 4.22,-28.92 12.58,-41.92 8.45,-12.99 20.56,-22.86 36.41,-29.66 15.84,-6.8 34.89,-10.2 57.34,-10.2 36.54,0 64.09,8.09 82.52,24.36 18.52,16.25 28.17,37.89 29.12,65.03l-59.19 2.04c-2.52,-15.11 -7.89,-25.92 -16.12,-32.51 -8.23,-6.6 -20.61,-9.94 -37.08,-9.94 -17.01,0 -30.34,3.53 -39.93,10.62 -6.2,4.55 -9.32,10.6 -9.32,18.23 0,6.94 2.93,12.85 8.78,17.75 7.41,6.33 25.44,12.86 54.09,19.66 28.63,6.74 49.79,13.82 63.47,21.02 13.74,7.29 24.49,17.15 32.24,29.74 7.76,12.58 11.64,28.09 11.64,46.53 0,16.74 -4.63,32.46 -13.95,47.08 -9.32,14.63 -22.45,25.52 -39.46,32.59 -17.01,7.15 -38.23,10.68 -63.61,10.68 -36.94,0 -65.31,-8.51 -85.11,-25.58 -19.8,-17.01 -31.56,-41.84 -35.45,-74.43zm405.72 94.7l0 -292.27 59.19 0 0 292.27 -59.19 0zm219.9 -94.7l57.56 -5.72c3.47,19.26 10.42,33.34 20.96,42.39 10.54,9.05 24.76,13.54 42.66,13.54 18.91,0 33.19,-4.02 42.78,-12.04 9.59,-8.03 14.43,-17.42 14.43,-28.17 0,-6.94 -2.05,-12.79 -6.06,-17.69 -4.01,-4.83 -11.08,-9.05 -21.16,-12.58 -6.86,-2.45 -22.51,-6.68 -47,-12.8 -31.5,-7.89 -53.61,-17.55 -66.34,-29.04 -17.88,-16.12 -26.79,-35.79 -26.79,-58.98 0,-14.91 4.21,-28.92 12.57,-41.92 8.45,-12.99 20.56,-22.86 36.41,-29.66 15.84,-6.8 34.89,-10.2 57.34,-10.2 36.54,0 64.09,8.09 82.52,24.36 18.52,16.25 28.17,37.89 29.12,65.03l-59.19 2.04c-2.52,-15.11 -7.89,-25.92 -16.12,-32.51 -8.23,-6.6 -20.61,-9.94 -37.08,-9.94 -17.01,0 -30.34,3.53 -39.93,10.62 -6.2,4.55 -9.32,10.6 -9.32,18.23 0,6.94 2.93,12.85 8.78,17.75 7.41,6.33 25.44,12.86 54.09,19.66 28.63,6.74 49.79,13.82 63.47,21.02 13.74,7.29 24.49,17.15 32.24,29.74 7.76,12.58 11.64,28.09 11.64,46.53 0,16.74 -4.63,32.46 -13.95,47.08 -9.32,14.63 -22.45,25.52 -39.46,32.59 -17.01,7.15 -38.23,10.68 -63.61,10.68 -36.94,0 -65.31,-8.51 -85.11,-25.58 -19.8,-17.01 -31.56,-41.84 -35.45,-74.43zm473.48 94.7l0 -242.87 -86.53 0 0 -49.4 231.85 0 0 49.4 -86.14 0 0 242.87 -59.18 0zm303.59 0l0 -292.27 216.34 0 0 49.4 -157.14 0 0 64.9 146.12 0 0 49.39 -146.12 0 0 79.19 162.86 0 0 49.39 -222.06 0zm391.42 0l0 -292.27 88.64 0 52.39 199.34 51.78 -199.34 88.85 0 0 292.27 -54.71 0 -0.2 -230.08 -57.62 230.08 -56.87 0 -57.35 -230.08 -0.21 230.08 -54.7 0zm724.11 0l-63.75 0 -25.24 -66.53 -117.22 0 -24.29 66.53 -62.59 0 113.49 -292.27 62.52 0 117.08 292.27zm-108.17 -115.93l-40.61 -108.17 -39.47 108.17 80.08 0zm357.88 115.93l0 -292.27 94.63 0c35.85,0 59.19,1.43 70.08,4.36 16.74,4.43 30.75,13.94 42.04,28.63 11.3,14.7 16.94,33.69 16.94,56.96 0,17.96 -3.26,32.99 -9.73,45.24 -6.53,12.24 -14.76,21.83 -24.76,28.84 -10,6.94 -20.21,11.57 -30.55,13.81 -14.08,2.79 -34.43,4.21 -61.09,4.21l-38.36 0 0 110.22 -59.2 0zm59.2 -242.87l0 83.27 32.16 0c23.21,0 38.65,-1.57 46.48,-4.63 7.81,-3.06 13.93,-7.83 18.36,-14.42 4.42,-6.53 6.67,-14.08 6.67,-22.8 0,-10.67 -3.12,-19.45 -9.32,-26.39 -6.26,-6.94 -14.08,-11.29 -23.67,-13.06 -7.01,-1.29 -21.1,-1.97 -42.32,-1.97l-28.36 0zm566.05 242.87l-63.75 0 -25.24 -66.53 -117.23 0 -24.28 66.53 -62.59 0 113.49 -292.27 62.52 0 117.08 292.27zm-108.17 -115.93l-40.62 -108.17 -39.47 108.17 80.09 0zm259.65 115.93l0 -292.27 124.29 0c31.23,0 53.95,2.65 68.1,7.9 14.22,5.23 25.51,14.55 34.01,27.96 8.51,13.46 12.79,28.77 12.79,46.05 0,21.98 -6.39,40.08 -19.25,54.36 -12.85,14.28 -32.05,23.27 -57.62,27.01 12.72,7.42 23.2,15.58 31.42,24.49 8.31,8.91 19.47,24.77 33.48,47.5l35.65 57 -70.55 0 -42.31 -63.82c-15.17,-22.65 -25.59,-36.93 -31.23,-42.85 -5.58,-5.85 -11.5,-9.94 -17.76,-12.11 -6.32,-2.19 -16.26,-3.27 -29.86,-3.27l-11.97 0 0 122.05 -59.19 0zm59.19 -168.59l43.67 0c28.3,0 45.92,-1.22 53,-3.6 7,-2.37 12.58,-6.53 16.53,-12.38 4.01,-5.85 5.99,-13.2 5.99,-21.98 0,-9.86 -2.66,-17.76 -7.89,-23.88 -5.25,-6.05 -12.67,-9.86 -22.18,-11.42 -4.84,-0.69 -19.2,-1.02 -43.07,-1.02l-46.05 0 0 74.28zm618.86 168.59l-63.76 0 -25.24 -66.53 -117.22 0 -24.29 66.53 -62.58 0 113.48 -292.27 62.52 0 117.09 292.27zm-108.18 -115.93l-40.61 -108.17 -39.47 108.17 80.08 0zm345.63 -28.43c0,-29.81 4.5,-54.84 13.41,-75.11 6.6,-14.9 15.71,-28.3 27.21,-40.14 11.5,-11.84 24.09,-20.61 37.76,-26.39 18.23,-7.69 39.26,-11.57 63.07,-11.57 43.13,0 77.55,13.4 103.47,40.13 25.85,26.81 38.79,64.03 38.79,111.71 0,47.29 -12.87,84.3 -38.52,110.97 -25.65,26.74 -60,40.07 -102.93,40.07 -43.47,0 -78.1,-13.27 -103.75,-39.87 -25.65,-26.53 -38.51,-63.13 -38.51,-109.8zm60.83 -1.97c0,33.13 7.69,58.23 23,75.38 15.3,17.07 34.76,25.65 58.3,25.65 23.61,0 42.93,-8.52 58.1,-25.45 15.09,-17.01 22.65,-42.45 22.65,-76.4 0,-33.55 -7.35,-58.58 -22.11,-75.05 -14.69,-16.52 -34.22,-24.76 -58.64,-24.76 -24.36,0 -44.02,8.37 -58.92,25.05 -14.9,16.72 -22.38,41.89 -22.38,75.58z"/>
    <path class="fil2" d="M1057.18 7011.99l57.56 -5.72c3.47,19.26 10.41,33.33 20.95,42.39 10.54,9.05 24.76,13.53 42.66,13.53 18.91,0 33.19,-4.01 42.79,-12.03 9.59,-8.04 14.42,-17.42 14.42,-28.17 0,-6.94 -2.04,-12.79 -6.06,-17.69 -4.01,-4.83 -11.08,-9.05 -21.16,-12.59 -6.86,-2.44 -22.51,-6.67 -47,-12.79 -31.5,-7.89 -53.61,-17.55 -66.34,-29.04 -17.88,-16.12 -26.79,-35.79 -26.79,-58.99 0,-14.9 4.21,-28.91 12.57,-41.91 8.45,-13 20.56,-22.86 36.41,-29.66 15.84,-6.8 34.89,-10.21 57.34,-10.21 36.54,0 64.09,8.1 82.53,24.37 18.51,16.25 28.16,37.88 29.12,65.02l-59.2 2.05c-2.52,-15.11 -7.89,-25.92 -16.12,-32.52 -8.23,-6.59 -20.61,-9.93 -37.08,-9.93 -17,0 -30.34,3.53 -39.93,10.62 -6.19,4.55 -9.32,10.6 -9.32,18.23 0,6.94 2.93,12.85 8.78,17.75 7.41,6.33 25.45,12.86 54.09,19.66 28.63,6.74 49.79,13.82 63.47,21.02 13.75,7.29 24.49,17.15 32.25,29.74 7.75,12.58 11.63,28.09 11.63,46.52 0,16.74 -4.63,32.47 -13.95,47.08 -9.32,14.64 -22.45,25.52 -39.45,32.6 -17.01,7.14 -38.24,10.68 -63.62,10.68 -36.93,0 -65.31,-8.51 -85.11,-25.58 -19.8,-17.01 -31.56,-41.84 -35.44,-74.43zm406.35 94.7l0 -292.27 216.34 0 0 49.4 -157.15 0 0 64.9 146.13 0 0 49.39 -146.13 0 0 79.19 162.87 0 0 49.39 -222.06 0zm526.77 -107.35l0 -49.4 126.94 0 0 116.61c-12.31,12.05 -30.21,22.59 -53.67,31.77 -23.41,9.12 -47.15,13.68 -71.24,13.68 -30.55,0 -57.15,-6.4 -79.86,-19.26 -22.66,-12.86 -39.73,-31.29 -51.16,-55.17 -11.43,-23.88 -17.15,-49.93 -17.15,-78.04 0,-30.48 6.39,-57.55 19.12,-81.29 12.79,-23.68 31.43,-41.91 55.99,-54.56 18.78,-9.73 42.04,-14.57 69.94,-14.57 36.25,0 64.62,7.63 85.03,22.86 20.35,15.31 33.48,36.33 39.33,63.27l-58.78 11.03c-4.08,-14.36 -11.84,-25.73 -23.2,-34.08 -11.3,-8.31 -25.45,-12.46 -42.45,-12.46 -25.72,0 -46.19,8.16 -61.38,24.57 -15.17,16.39 -22.78,40.68 -22.78,72.86 0,34.76 7.69,60.82 23.07,78.16 15.44,17.35 35.57,26.06 60.54,26.06 12.31,0 24.7,-2.45 37.08,-7.27 12.45,-4.84 23.06,-10.76 31.97,-17.69l0 -37.08 -67.34 0zm299.32 107.35l0 -292.27 88.65 0 52.39 199.34 51.77 -199.34 88.85 0 0 292.27 -54.7 0 -0.21 -230.08 -57.62 230.08 -56.87 0 -57.35 -230.08 -0.2 230.08 -54.71 0zm459.43 0l0 -292.27 216.33 0 0 49.4 -157.14 0 0 64.9 146.12 0 0 49.39 -146.12 0 0 79.19 162.86 0 0 49.39 -222.05 0zm390.83 0l0 -292.27 57.28 0 120.28 195.87 0 -195.87 54.71 0 0 292.27 -59.13 0 -118.45 -192.13 0 192.13 -54.69 0zm479.09 0l0 -242.87 -86.54 0 0 -49.4 231.85 0 0 49.4 -86.14 0 0 242.87 -59.17 0zm282.58 -144.37c0,-29.8 4.5,-54.83 13.41,-75.1 6.6,-14.9 15.71,-28.3 27.2,-40.14 11.51,-11.84 24.1,-20.61 37.76,-26.4 18.23,-7.68 39.27,-11.57 63.08,-11.57 43.13,0 77.55,13.41 103.47,40.14 25.85,26.81 38.78,64.03 38.78,111.71 0,47.29 -12.86,84.3 -38.51,110.97 -25.65,26.74 -60,40.07 -102.93,40.07 -43.47,0 -78.11,-13.27 -103.75,-39.87 -25.65,-26.53 -38.51,-63.14 -38.51,-109.81zm60.83 -1.96c0,33.13 7.68,58.22 23,75.38 15.29,17.07 34.76,25.64 58.3,25.64 23.6,0 42.93,-8.51 58.1,-25.44 15.09,-17.01 22.65,-42.45 22.65,-76.41 0,-33.54 -7.35,-58.57 -22.11,-75.04 -14.7,-16.52 -34.23,-24.76 -58.64,-24.76 -24.36,0 -44.02,8.37 -58.92,25.04 -14.9,16.73 -22.38,41.9 -22.38,75.59zm500.91 -145.94l107.62 0c24.29,0 42.8,1.84 55.51,5.58 17.08,5.03 31.77,14.02 43.96,26.94 12.24,12.87 21.5,28.64 27.89,47.35 6.32,18.64 9.52,41.7 9.52,69.05 0,24.09 -2.99,44.77 -8.97,62.19 -7.29,21.29 -17.69,38.5 -31.23,51.63 -10.21,10 -24.02,17.77 -41.37,23.33 -12.99,4.16 -30.34,6.2 -52.11,6.2l-110.82 0 0 -292.27zm59.19 49.4l0 193.48 43.88 0c16.39,0 28.23,-0.96 35.51,-2.79 9.59,-2.38 17.48,-6.46 23.74,-12.18 6.33,-5.71 11.43,-15.11 15.38,-28.17 4.01,-13.06 5.98,-30.94 5.98,-53.53 0,-22.59 -1.97,-39.87 -5.98,-51.98 -3.95,-12.11 -9.53,-21.5 -16.67,-28.3 -7.14,-6.74 -16.19,-11.36 -27.22,-13.74 -8.17,-1.84 -24.29,-2.79 -48.23,-2.79l-26.39 0zm617.46 242.87l-63.76 0 -25.24 -66.53 -117.22 0 -24.29 66.53 -62.58 0 113.48 -292.27 62.52 0 117.09 292.27zm-108.18 -115.93l-40.61 -108.17 -39.47 108.17 80.08 0zm356.49 115.93l0 -292.27 216.33 0 0 49.4 -157.14 0 0 64.9 146.12 0 0 49.39 -146.12 0 0 79.19 162.86 0 0 49.39 -222.05 0zm390.01 0l0 -292.27 88.64 0 52.39 199.34 51.78 -199.34 88.85 0 0 292.27 -54.71 0 -0.2 -230.08 -57.62 230.08 -56.87 0 -57.35 -230.08 -0.21 230.08 -54.7 0zm459.42 0l0 -292.27 94.63 0c35.85,0 59.19,1.43 70.08,4.36 16.74,4.42 30.75,13.94 42.04,28.63 11.3,14.7 16.94,33.69 16.94,56.96 0,17.96 -3.26,32.99 -9.73,45.24 -6.53,12.24 -14.76,21.83 -24.76,28.84 -10,6.94 -20.21,11.57 -30.55,13.8 -14.07,2.79 -34.43,4.22 -61.09,4.22l-38.36 0 0 110.22 -59.2 0zm59.2 -242.87l0 83.27 32.16 0c23.21,0 38.65,-1.57 46.48,-4.63 7.82,-3.06 13.93,-7.83 18.36,-14.42 4.42,-6.53 6.67,-14.08 6.67,-22.8 0,-10.67 -3.12,-19.45 -9.32,-26.39 -6.26,-6.95 -14.08,-11.29 -23.67,-13.07 -7.01,-1.28 -21.1,-1.96 -42.32,-1.96l-28.36 0zm331.64 242.87l0 -292.27 124.3 0c31.23,0 53.94,2.65 68.1,7.9 14.22,5.23 25.5,14.55 34,27.96 8.51,13.46 12.8,28.77 12.8,46.05 0,21.97 -6.39,40.08 -19.25,54.36 -12.86,14.28 -32.05,23.27 -57.62,27.01 12.71,7.42 23.19,15.58 31.42,24.49 8.3,8.91 19.46,24.76 33.48,47.49l35.65 57.01 -70.56 0 -42.31 -63.82c-15.17,-22.65 -25.58,-36.94 -31.23,-42.85 -5.58,-5.85 -11.49,-9.94 -17.75,-12.11 -6.33,-2.19 -16.27,-3.27 -29.87,-3.27l-11.97 0 0 122.05 -59.19 0zm59.19 -168.59l43.68 0c28.29,0 45.92,-1.22 52.99,-3.6 7.01,-2.38 12.59,-6.53 16.53,-12.38 4.01,-5.85 5.99,-13.2 5.99,-21.98 0,-9.86 -2.66,-17.76 -7.89,-23.88 -5.25,-6.05 -12.66,-9.86 -22.18,-11.43 -4.83,-0.68 -19.19,-1.01 -43.07,-1.01l-46.05 0 0 74.28zm354.17 168.59l0 -292.27 216.34 0 0 49.4 -157.15 0 0 64.9 146.13 0 0 49.39 -146.13 0 0 79.19 162.87 0 0 49.39 -222.06 0zm375.32 -94.7l57.56 -5.72c3.47,19.26 10.41,33.33 20.95,42.39 10.55,9.05 24.77,13.53 42.66,13.53 18.91,0 33.2,-4.01 42.79,-12.03 9.59,-8.04 14.42,-17.42 14.42,-28.17 0,-6.94 -2.04,-12.79 -6.05,-17.69 -4.01,-4.83 -11.08,-9.05 -21.16,-12.59 -6.87,-2.44 -22.52,-6.67 -47.01,-12.79 -31.5,-7.89 -53.61,-17.55 -66.34,-29.04 -17.88,-16.12 -26.79,-35.79 -26.79,-58.99 0,-14.9 4.22,-28.91 12.57,-41.91 8.45,-13 20.56,-22.86 36.41,-29.66 15.84,-6.8 34.9,-10.21 57.34,-10.21 36.54,0 64.09,8.1 82.53,24.37 18.51,16.25 28.17,37.88 29.12,65.02l-59.19 2.05c-2.52,-15.11 -7.9,-25.92 -16.12,-32.52 -8.23,-6.59 -20.61,-9.93 -37.08,-9.93 -17.01,0 -30.34,3.53 -39.93,10.62 -6.2,4.55 -9.33,10.6 -9.33,18.23 0,6.94 2.94,12.85 8.79,17.75 7.4,6.33 25.44,12.86 54.08,19.66 28.63,6.74 49.8,13.82 63.48,21.02 13.74,7.29 24.49,17.15 32.24,29.74 7.75,12.58 11.63,28.09 11.63,46.52 0,16.74 -4.62,32.47 -13.94,47.08 -9.33,14.64 -22.45,25.52 -39.46,32.6 -17.01,7.14 -38.24,10.68 -63.62,10.68 -36.93,0 -65.31,-8.51 -85.1,-25.58 -19.8,-17.01 -31.57,-41.84 -35.45,-74.43zm669.64 94.7l-63.75 0 -25.24 -66.53 -117.23 0 -24.28 66.53 -62.59 0 113.49 -292.27 62.52 0 117.08 292.27zm-108.17 -115.93l-40.62 -108.17 -39.47 108.17 80.09 0z"/>
   </g>
  </g>
 </g>
</svg>
