<?xml version="1.0" encoding="UTF-8"?>
<!DOCTYPE svg PUBLIC "-//W3C//DTD SVG 1.1//EN" "http://www.w3.org/Graphics/SVG/1.1/DTD/svg11.dtd">
<!-- Creator: CorelDRAW 2018 (64 Bit Versão de avaliação) -->
<svg xmlns="http://www.w3.org/2000/svg" xml:space="preserve" width="91.44mm" height="91.44mm" version="1.1" style="shape-rendering:geometricPrecision; text-rendering:geometricPrecision; image-rendering:optimizeQuality; fill-rule:evenodd; clip-rule:evenodd"
viewBox="0 0 9144 9144"
 xmlns:xlink="http://www.w3.org/1999/xlink">
 <defs>
  <style type="text/css">
   <![CDATA[
    .fil0 {fill:none}
    .fil1 {fill:#FEFEFE}
    .fil2 {fill:#FEFEFE;fill-rule:nonzero}
   ]]>
  </style>
 </defs>
 <g id="Camada_x0020_1">
  <metadata id="CorelCorpID_0Corel-Layer"/>
  <rect class="fil0" width="9144" height="9144"/>
  <g id="_2032643700992">
   <g>
    <path class="fil1" d="M5414.43 3847.68l950.7 0 0 228.86 -897.88 0c-40.57,0 -52.82,12.26 -52.82,52.83l0 457.73 950.7 0 0 246.48 -950.7 0 0 510.55 1531.68 0 0 -2007.02 -1531.68 0 0 510.57z"/>
    <path class="fil2" d="M2257.79 5314.19l779.9 0c24,0 29.24,-44.65 29.24,-107.78 0,-31.22 -1.39,-62.91 -2.84,-96.05 -1.71,-39.25 -3.52,-80.41 -3.52,-118.33l0 -1329.33 1075.39 1576.92 0.47 0.82c5.66,8.89 9.78,16.22 13.93,23.6 13.79,24.52 28.2,50.15 49.29,50.15l774.64 0c11.98,0 18.68,-0.66 20.51,-2.37 1.71,-1.82 2.37,-8.52 2.37,-20.5l0 -2857.34 -802.78 0 0 1650.73c-327.5,-476.02 -659.63,-997.7 -1002.05,-1456.42 -8.87,-13.32 -19.43,-28.12 -30.73,-43.96 -33.54,-47.02 -73.26,-102.71 -92.45,-150.35l-811.37 0 0 2880.21zm779.9 59.9l-839.8 0 0 -3000.01 915.58 0 5.93 22.24c11.1,41.56 54.84,102.88 90.87,153.38 11.93,16.73 23.08,32.35 31.9,45.59l892.33 1297.04 0 -1518.25 922.56 0 0 2917.24c0,28.47 -5.47,48.16 -19.97,62.68l-0.11 0.11c-14.52,14.5 -34.22,19.98 -62.69,19.98l-774.64 0c-56.02,0 -79.24,-41.29 -101.45,-80.82 -4.21,-7.47 -8.38,-14.89 -11.57,-19.99l-966.17 -1416.69 0 1135.44c0,40.83 1.68,79.18 3.28,115.75 1.58,35.94 3.08,70.28 3.08,98.63 0,98.2 -15.97,167.68 -89.13,167.68z"/>
   </g>
   <g>
    <path class="fil2" d="M832.76 6089.79l44.77 -4.45c2.7,14.98 8.1,25.93 16.3,32.97 8.2,7.04 19.26,10.53 33.18,10.53 14.71,0 25.82,-3.12 33.28,-9.36 7.46,-6.25 11.22,-13.55 11.22,-21.91 0,-5.4 -1.59,-9.95 -4.71,-13.76 -3.12,-3.76 -8.62,-7.04 -16.46,-9.79 -5.34,-1.9 -17.51,-5.19 -36.56,-9.95 -24.5,-6.14 -41.7,-13.65 -51.6,-22.59 -13.91,-12.54 -20.84,-27.84 -20.84,-45.88 0,-11.59 3.28,-22.49 9.78,-32.6 6.57,-10.11 15.99,-17.78 28.32,-23.07 12.32,-5.29 27.14,-7.94 44.6,-7.94 28.42,0 49.85,6.3 64.19,18.95 14.4,12.64 21.91,29.47 22.65,50.58l-46.04 1.59c-1.96,-11.75 -6.14,-20.16 -12.54,-25.29 -6.4,-5.13 -16.03,-7.73 -28.84,-7.73 -13.23,0 -23.6,2.75 -31.06,8.26 -4.82,3.54 -7.25,8.25 -7.25,14.18 0,5.4 2.28,10 6.83,13.81 5.76,4.92 19.79,10 42.07,15.29 22.27,5.24 38.73,10.75 49.37,16.35 10.69,5.67 19.05,13.34 25.08,23.13 6.03,9.79 9.05,21.85 9.05,36.19 0,13.02 -3.6,25.25 -10.85,36.62 -7.25,11.38 -17.46,19.85 -30.69,25.35 -13.23,5.56 -29.74,8.31 -49.48,8.31 -28.73,0 -50.8,-6.62 -66.2,-19.9 -15.4,-13.23 -24.55,-32.54 -27.57,-57.89zm315.57 73.66l0 -227.33 46.04 0 0 227.33 -46.04 0zm171.05 -73.66l44.77 -4.45c2.7,14.98 8.1,25.93 16.3,32.97 8.2,7.04 19.26,10.53 33.18,10.53 14.71,0 25.82,-3.12 33.28,-9.36 7.46,-6.25 11.22,-13.55 11.22,-21.91 0,-5.4 -1.59,-9.95 -4.71,-13.76 -3.12,-3.76 -8.62,-7.04 -16.46,-9.79 -5.34,-1.9 -17.51,-5.19 -36.56,-9.95 -24.5,-6.14 -41.7,-13.65 -51.6,-22.59 -13.91,-12.54 -20.84,-27.84 -20.84,-45.88 0,-11.59 3.28,-22.49 9.78,-32.6 6.57,-10.11 15.99,-17.78 28.32,-23.07 12.32,-5.29 27.14,-7.94 44.6,-7.94 28.42,0 49.85,6.3 64.19,18.95 14.4,12.64 21.91,29.47 22.65,50.58l-46.04 1.59c-1.96,-11.75 -6.14,-20.16 -12.54,-25.29 -6.4,-5.13 -16.03,-7.73 -28.84,-7.73 -13.23,0 -23.6,2.75 -31.06,8.26 -4.82,3.54 -7.25,8.25 -7.25,14.18 0,5.4 2.28,10 6.83,13.81 5.76,4.92 19.79,10 42.07,15.29 22.27,5.24 38.73,10.75 49.37,16.35 10.69,5.67 19.05,13.34 25.08,23.13 6.03,9.79 9.05,21.85 9.05,36.19 0,13.02 -3.6,25.25 -10.85,36.62 -7.25,11.38 -17.46,19.85 -30.69,25.35 -13.23,5.56 -29.74,8.31 -49.48,8.31 -28.73,0 -50.8,-6.62 -66.2,-19.9 -15.4,-13.23 -24.55,-32.54 -27.57,-57.89zm368.28 73.66l0 -188.91 -67.31 0 0 -38.42 180.34 0 0 38.42 -67 0 0 188.91 -46.03 0zm236.14 0l0 -227.33 168.27 0 0 38.42 -122.23 0 0 50.48 113.66 0 0 38.42 -113.66 0 0 61.59 126.68 0 0 38.42 -172.72 0zm304.45 0l0 -227.33 68.95 0 40.75 155.05 40.27 -155.05 69.11 0 0 227.33 -42.55 0 -0.16 -178.96 -44.82 178.96 -44.23 0 -44.61 -178.96 -0.16 178.96 -42.55 0zm563.23 0l-49.59 0 -19.63 -51.75 -91.18 0 -18.89 51.75 -48.68 0 88.27 -227.33 48.63 0 91.07 227.33zm-84.14 -90.17l-31.59 -84.14 -30.7 84.14 62.29 0zm278.37 90.17l0 -227.33 168.27 0 0 38.42 -122.23 0 0 50.48 113.66 0 0 38.42 -113.66 0 0 61.59 126.68 0 0 38.42 -172.72 0zm538.71 -83.82l44.45 13.65c-6.82,25.03 -18.2,43.61 -34.08,55.78 -15.87,12.11 -35.98,18.2 -60.37,18.2 -30.22,0 -55.04,-10.32 -74.51,-30.96 -19.42,-20.63 -29.16,-48.84 -29.16,-84.66 0,-37.84 9.79,-67.26 29.32,-88.22 19.52,-20.95 45.24,-31.43 77.1,-31.43 27.83,0 50.43,8.26 67.78,24.71 10.38,9.74 18.1,23.71 23.29,41.97l-45.4 10.79c-2.7,-11.75 -8.31,-21.06 -16.83,-27.88 -8.57,-6.83 -18.95,-10.22 -31.12,-10.22 -16.88,0 -30.58,6.03 -41.06,18.15 -10.53,12.07 -15.77,31.65 -15.77,58.74 0,28.68 5.19,49.16 15.5,61.33 10.38,12.22 23.82,18.31 40.38,18.31 12.22,0 22.75,-3.86 31.54,-11.64 8.78,-7.78 15.13,-19.95 18.94,-36.62zm167.67 -28.47c0,-23.18 3.5,-42.65 10.43,-58.42 5.13,-11.59 12.22,-22.01 21.16,-31.22 8.95,-9.21 18.74,-16.03 29.37,-20.53 14.18,-5.98 30.54,-9 49.06,-9 33.55,0 60.32,10.43 80.48,31.22 20.11,20.85 30.17,49.8 30.17,86.89 0,36.78 -10.01,65.57 -29.96,86.31 -19.95,20.8 -46.67,31.17 -80.06,31.17 -33.81,0 -60.75,-10.32 -80.7,-31.01 -19.95,-20.64 -29.95,-49.11 -29.95,-85.41zm47.31 -1.53c0,25.77 5.98,45.29 17.89,58.63 11.9,13.28 27.04,19.95 45.35,19.95 18.36,0 33.39,-6.62 45.19,-19.79 11.74,-13.23 17.62,-33.02 17.62,-59.43 0,-26.09 -5.72,-45.56 -17.2,-58.37 -11.43,-12.85 -26.62,-19.26 -45.61,-19.26 -18.95,0 -34.24,6.51 -45.83,19.48 -11.59,13.01 -17.41,32.59 -17.41,58.79zm302.5 113.82l0 -227.33 44.55 0 93.56 152.35 0 -152.35 42.55 0 0 227.33 -45.99 0 -92.13 -149.44 0 149.44 -42.54 0zm310.54 -73.66l44.77 -4.45c2.7,14.98 8.1,25.93 16.3,32.97 8.2,7.04 19.26,10.53 33.18,10.53 14.71,0 25.82,-3.12 33.28,-9.36 7.46,-6.25 11.22,-13.55 11.22,-21.91 0,-5.4 -1.59,-9.95 -4.71,-13.76 -3.12,-3.76 -8.62,-7.04 -16.46,-9.79 -5.34,-1.9 -17.51,-5.19 -36.56,-9.95 -24.5,-6.14 -41.7,-13.65 -51.6,-22.59 -13.91,-12.54 -20.84,-27.84 -20.84,-45.88 0,-11.59 3.28,-22.49 9.78,-32.6 6.57,-10.11 15.99,-17.78 28.32,-23.07 12.32,-5.29 27.14,-7.94 44.6,-7.94 28.42,0 49.85,6.3 64.19,18.95 14.4,12.64 21.91,29.47 22.65,50.58l-46.04 1.59c-1.96,-11.75 -6.14,-20.16 -12.54,-25.29 -6.4,-5.13 -16.03,-7.73 -28.84,-7.73 -13.23,0 -23.6,2.75 -31.06,8.26 -4.82,3.54 -7.25,8.25 -7.25,14.18 0,5.4 2.28,10 6.83,13.81 5.76,4.92 19.79,10 42.07,15.29 22.27,5.24 38.73,10.75 49.37,16.35 10.69,5.67 19.05,13.34 25.08,23.13 6.03,9.79 9.05,21.85 9.05,36.19 0,13.02 -3.6,25.25 -10.85,36.62 -7.25,11.38 -17.46,19.85 -30.69,25.35 -13.23,5.56 -29.74,8.31 -49.48,8.31 -28.73,0 -50.8,-6.62 -66.2,-19.9 -15.4,-13.23 -24.55,-32.54 -27.57,-57.89zm317.16 -153.67l46.04 0 0 123.19c0,19.58 0.58,32.23 1.69,37.99 1.96,9.32 6.56,16.83 13.86,22.44 7.36,5.66 17.36,8.47 30.06,8.47 12.86,0 22.59,-2.65 29.16,-7.99 6.56,-5.35 10.47,-11.86 11.8,-19.64 1.32,-7.77 2.01,-20.63 2.01,-38.62l0 -125.84 46.04 0 0 119.54c0,27.3 -1.22,46.62 -3.71,57.89 -2.49,11.27 -7.04,20.8 -13.7,28.57 -6.62,7.78 -15.51,13.92 -26.62,18.53 -11.17,4.6 -25.67,6.93 -43.6,6.93 -21.65,0 -38.05,-2.49 -49.22,-7.52 -11.16,-5.02 -20,-11.53 -26.51,-19.58 -6.51,-8.04 -10.74,-16.4 -12.8,-25.24 -3.02,-13.01 -4.5,-32.28 -4.5,-57.73l0 -121.39zm323.88 227.33l0 -225.43 46.04 0 0 187.01 113.98 0 0 38.42 -160.02 0zm313.56 0l0 -188.91 -67.31 0 0 -38.42 180.34 0 0 38.42 -67 0 0 188.91 -46.03 0zm220.89 -112.29c0,-23.18 3.5,-42.65 10.43,-58.42 5.13,-11.59 12.22,-22.01 21.16,-31.22 8.95,-9.21 18.74,-16.03 29.37,-20.53 14.18,-5.98 30.54,-9 49.06,-9 33.55,0 60.32,10.43 80.48,31.22 20.11,20.85 30.17,49.8 30.17,86.89 0,36.78 -10.01,65.57 -29.96,86.31 -19.95,20.8 -46.67,31.17 -80.06,31.17 -33.81,0 -60.75,-10.32 -80.7,-31.01 -19.95,-20.64 -29.95,-49.11 -29.95,-85.41zm47.31 -1.53c0,25.77 5.98,45.29 17.89,58.63 11.9,13.28 27.04,19.95 45.35,19.95 18.36,0 33.39,-6.62 45.19,-19.79 11.74,-13.23 17.62,-33.02 17.62,-59.43 0,-26.09 -5.72,-45.56 -17.2,-58.37 -11.43,-12.85 -26.62,-19.26 -45.61,-19.26 -18.95,0 -34.24,6.51 -45.83,19.48 -11.59,13.01 -17.41,32.59 -17.41,58.79zm302.5 113.82l0 -227.33 96.68 0c24.29,0 41.96,2.06 52.97,6.14 11.06,4.07 19.84,11.32 26.45,21.75 6.62,10.47 9.95,22.38 9.95,35.82 0,17.09 -4.97,31.17 -14.97,42.28 -10,11.11 -24.93,18.1 -44.82,21.01 9.89,5.77 18.04,12.12 24.44,19.05 6.46,6.93 15.14,19.26 26.04,36.94l27.73 44.34 -54.88 0 -32.91 -49.64c-11.8,-17.62 -19.9,-28.73 -24.29,-33.33 -4.34,-4.55 -8.94,-7.73 -13.81,-9.42 -4.92,-1.7 -12.65,-2.54 -23.23,-2.54l-9.31 0 0 94.93 -46.04 0zm46.04 -131.13l33.97 0c22.01,0 35.72,-0.95 41.22,-2.8 5.45,-1.85 9.79,-5.08 12.86,-9.63 3.12,-4.55 4.66,-10.27 4.66,-17.1 0,-7.67 -2.07,-13.81 -6.14,-18.57 -4.08,-4.71 -9.85,-7.67 -17.25,-8.89 -3.76,-0.53 -14.93,-0.79 -33.5,-0.79l-35.82 0 0 57.78zm274.98 131.13l0 -227.33 46.04 0 0 227.33 -46.04 0zm387.91 0l-49.59 0 -19.63 -51.75 -91.18 0 -18.89 51.75 -48.68 0 88.27 -227.33 48.63 0 91.07 227.33zm-84.14 -90.17l-31.59 -84.14 -30.7 84.14 62.29 0zm278.37 90.17l0 -227.33 73.6 0c27.89,0 46.04,1.11 54.51,3.39 13.02,3.44 23.92,10.84 32.7,22.27 8.79,11.43 13.18,26.2 13.18,44.3 0,13.97 -2.54,25.66 -7.57,35.19 -5.08,9.52 -11.48,16.98 -19.26,22.43 -7.78,5.4 -15.72,9 -23.76,10.74 -10.95,2.17 -26.78,3.28 -47.52,3.28l-29.84 0 0 85.73 -46.04 0zm46.04 -188.91l0 64.77 25.02 0c18.05,0 30.06,-1.22 36.15,-3.6 6.08,-2.38 10.84,-6.09 14.28,-11.22 3.44,-5.08 5.19,-10.95 5.19,-17.73 0,-8.3 -2.43,-15.13 -7.25,-20.53 -4.87,-5.4 -10.95,-8.78 -18.41,-10.16 -5.45,-1 -16.41,-1.53 -32.92,-1.53l-22.06 0zm440.29 188.91l-49.59 0 -19.63 -51.75 -91.18 0 -18.89 51.75 -48.68 0 88.27 -227.33 48.63 0 91.07 227.33zm-84.14 -90.17l-31.59 -84.14 -30.7 84.14 62.29 0zm201.96 90.17l0 -227.33 96.68 0c24.29,0 41.96,2.06 52.97,6.14 11.06,4.07 19.84,11.32 26.45,21.75 6.62,10.47 9.95,22.38 9.95,35.82 0,17.09 -4.97,31.17 -14.97,42.28 -10,11.11 -24.93,18.1 -44.82,21.01 9.89,5.77 18.04,12.12 24.44,19.05 6.46,6.93 15.14,19.26 26.04,36.94l27.73 44.34 -54.88 0 -32.91 -49.64c-11.8,-17.62 -19.9,-28.73 -24.29,-33.33 -4.34,-4.55 -8.94,-7.73 -13.81,-9.42 -4.92,-1.7 -12.65,-2.54 -23.23,-2.54l-9.31 0 0 94.93 -46.04 0zm46.04 -131.13l33.97 0c22.01,0 35.72,-0.95 41.22,-2.8 5.45,-1.85 9.79,-5.08 12.86,-9.63 3.12,-4.55 4.66,-10.27 4.66,-17.1 0,-7.67 -2.07,-13.81 -6.14,-18.57 -4.08,-4.71 -9.85,-7.67 -17.25,-8.89 -3.76,-0.53 -14.93,-0.79 -33.5,-0.79l-35.82 0 0 57.78zm481.36 131.13l-49.59 0 -19.63 -51.75 -91.18 0 -18.89 51.75 -48.68 0 88.27 -227.33 48.63 0 91.07 227.33zm-84.14 -90.17l-31.59 -84.14 -30.7 84.14 62.29 0zm268.84 -22.12c0,-23.18 3.5,-42.65 10.43,-58.42 5.13,-11.59 12.22,-22.01 21.16,-31.22 8.95,-9.21 18.74,-16.03 29.37,-20.53 14.18,-5.98 30.54,-9 49.06,-9 33.55,0 60.32,10.43 80.48,31.22 20.11,20.85 30.17,49.8 30.17,86.89 0,36.78 -10.01,65.57 -29.96,86.31 -19.95,20.8 -46.67,31.17 -80.06,31.17 -33.81,0 -60.75,-10.32 -80.7,-31.01 -19.95,-20.64 -29.95,-49.11 -29.95,-85.41zm47.31 -1.53c0,25.77 5.98,45.29 17.89,58.63 11.9,13.28 27.04,19.95 45.35,19.95 18.36,0 33.39,-6.62 45.19,-19.79 11.74,-13.23 17.62,-33.02 17.62,-59.43 0,-26.09 -5.72,-45.56 -17.2,-58.37 -11.43,-12.85 -26.62,-19.26 -45.61,-19.26 -18.95,0 -34.24,6.51 -45.83,19.48 -11.59,13.01 -17.41,32.59 -17.41,58.79z"/>
    <path class="fil2" d="M671.46 6765.79l0 -227.33 68.95 0 40.75 155.05 40.27 -155.05 69.11 0 0 227.33 -42.55 0 -0.16 -178.96 -44.82 178.96 -44.23 0 -44.61 -178.96 -0.16 178.96 -42.55 0zm347.82 -112.29c0,-23.18 3.5,-42.65 10.43,-58.42 5.13,-11.59 12.22,-22.01 21.16,-31.22 8.95,-9.21 18.74,-16.03 29.37,-20.53 14.18,-5.98 30.54,-9 49.06,-9 33.55,0 60.32,10.43 80.48,31.22 20.11,20.85 30.17,49.8 30.17,86.89 0,36.78 -10.01,65.57 -29.96,86.31 -19.95,20.8 -46.67,31.17 -80.06,31.17 -33.81,0 -60.75,-10.32 -80.7,-31.01 -19.95,-20.64 -29.95,-49.11 -29.95,-85.41zm47.31 -1.53c0,25.77 5.98,45.29 17.89,58.63 11.9,13.28 27.04,19.95 45.35,19.95 18.36,0 33.39,-6.62 45.19,-19.79 11.74,-13.23 17.62,-33.02 17.62,-59.43 0,-26.09 -5.72,-45.56 -17.2,-58.37 -11.43,-12.85 -26.62,-19.26 -45.61,-19.26 -18.95,0 -34.24,6.51 -45.83,19.48 -11.59,13.01 -17.41,32.59 -17.41,58.79zm301.41 -113.51l83.71 0c18.89,0 33.29,1.43 43.18,4.34 13.28,3.91 24.71,10.9 34.19,20.95 9.52,10.01 16.72,22.28 21.69,36.83 4.92,14.5 7.41,32.44 7.41,53.71 0,18.74 -2.33,34.82 -6.98,48.37 -5.67,16.56 -13.76,29.95 -24.29,40.16 -7.94,7.78 -18.68,13.82 -32.18,18.15 -10.1,3.23 -23.6,4.82 -40.53,4.82l-86.2 0 0 -227.33zm46.04 38.42l0 150.49 34.13 0c12.75,0 21.96,-0.74 27.62,-2.17 7.46,-1.85 13.6,-5.02 18.47,-9.47 4.92,-4.44 8.89,-11.75 11.96,-21.91 3.12,-10.16 4.65,-24.07 4.65,-41.64 0,-17.57 -1.53,-31.01 -4.65,-40.43 -3.07,-9.42 -7.41,-16.72 -12.97,-22.01 -5.55,-5.24 -12.59,-8.84 -21.17,-10.69 -6.35,-1.43 -18.89,-2.17 -37.51,-2.17l-20.53 0zm275.48 188.91l0 -227.33 168.27 0 0 38.42 -122.23 0 0 50.48 113.66 0 0 38.42 -113.66 0 0 61.59 126.68 0 0 38.42 -172.72 0zm305.27 0l0 -225.43 46.04 0 0 187.01 113.98 0 0 38.42 -160.02 0zm275.37 -112.29c0,-23.18 3.5,-42.65 10.43,-58.42 5.13,-11.59 12.22,-22.01 21.16,-31.22 8.95,-9.21 18.74,-16.03 29.37,-20.53 14.18,-5.98 30.54,-9 49.06,-9 33.55,0 60.32,10.43 80.48,31.22 20.11,20.85 30.17,49.8 30.17,86.89 0,36.78 -10.01,65.57 -29.96,86.31 -19.95,20.8 -46.67,31.17 -80.06,31.17 -33.81,0 -60.75,-10.32 -80.7,-31.01 -19.95,-20.64 -29.95,-49.11 -29.95,-85.41zm47.31 -1.53c0,25.77 5.98,45.29 17.89,58.63 11.9,13.28 27.04,19.95 45.35,19.95 18.36,0 33.39,-6.62 45.19,-19.79 11.74,-13.23 17.62,-33.02 17.62,-59.43 0,-26.09 -5.72,-45.56 -17.2,-58.37 -11.43,-12.85 -26.62,-19.26 -45.61,-19.26 -18.95,0 -34.24,6.51 -45.83,19.48 -11.59,13.01 -17.41,32.59 -17.41,58.79zm389.62 -113.51l83.71 0c18.89,0 33.29,1.43 43.18,4.34 13.28,3.91 24.71,10.9 34.19,20.95 9.52,10.01 16.72,22.28 21.69,36.83 4.92,14.5 7.41,32.44 7.41,53.71 0,18.74 -2.33,34.82 -6.98,48.37 -5.67,16.56 -13.76,29.95 -24.29,40.16 -7.94,7.78 -18.68,13.82 -32.18,18.15 -10.1,3.23 -23.6,4.82 -40.53,4.82l-86.2 0 0 -227.33zm46.04 38.42l0 150.49 34.13 0c12.75,0 21.96,-0.74 27.62,-2.17 7.46,-1.85 13.6,-5.02 18.47,-9.47 4.92,-4.44 8.89,-11.75 11.96,-21.91 3.12,-10.16 4.65,-24.07 4.65,-41.64 0,-17.57 -1.53,-31.01 -4.65,-40.43 -3.07,-9.42 -7.41,-16.72 -12.97,-22.01 -5.55,-5.24 -12.59,-8.84 -21.17,-10.69 -6.35,-1.43 -18.89,-2.17 -37.51,-2.17l-20.53 0zm275.48 188.91l0 -227.33 168.27 0 0 38.42 -122.23 0 0 50.48 113.66 0 0 38.42 -113.66 0 0 61.59 126.68 0 0 38.42 -172.72 0zm392.21 0l0 -227.33 44.55 0 93.56 152.35 0 -152.35 42.55 0 0 227.33 -45.99 0 -92.13 -149.44 0 149.44 -42.54 0zm321.52 0l0 -227.33 168.27 0 0 38.42 -122.23 0 0 50.48 113.66 0 0 38.42 -113.66 0 0 61.59 126.68 0 0 38.42 -172.72 0zm409.73 -83.5l0 -38.42 98.74 0 0 90.7c-9.58,9.37 -23.5,17.57 -41.75,24.71 -18.21,7.09 -36.67,10.64 -55.41,10.64 -23.76,0 -44.45,-4.98 -62.12,-14.98 -17.62,-10 -30.9,-24.34 -39.79,-42.91 -8.89,-18.58 -13.34,-38.84 -13.34,-60.7 0,-23.71 4.97,-44.77 14.87,-63.23 9.95,-18.42 24.45,-32.6 43.55,-42.44 14.61,-7.57 32.7,-11.33 54.4,-11.33 28.2,0 50.27,5.93 66.14,17.78 15.83,11.91 26.04,28.26 30.59,49.21l-45.72 8.58c-3.17,-11.17 -9.21,-20.01 -18.04,-26.51 -8.79,-6.46 -19.8,-9.69 -33.02,-9.69 -20.01,0 -35.93,6.35 -47.74,19.11 -11.8,12.75 -17.72,31.64 -17.72,56.67 0,27.04 5.98,47.31 17.94,60.8 12.01,13.49 27.67,20.27 47.09,20.27 9.58,0 19.21,-1.91 28.84,-5.66 9.69,-3.76 17.94,-8.37 24.87,-13.76l0 -28.84 -52.38 0zm223.93 -28.79c0,-23.18 3.5,-42.65 10.43,-58.42 5.13,-11.59 12.22,-22.01 21.16,-31.22 8.95,-9.21 18.74,-16.03 29.37,-20.53 14.18,-5.98 30.54,-9 49.06,-9 33.55,0 60.32,10.43 80.48,31.22 20.11,20.85 30.17,49.8 30.17,86.89 0,36.78 -10.01,65.57 -29.96,86.31 -19.95,20.8 -46.67,31.17 -80.06,31.17 -33.81,0 -60.75,-10.32 -80.7,-31.01 -19.95,-20.64 -29.95,-49.11 -29.95,-85.41zm47.31 -1.53c0,25.77 5.98,45.29 17.89,58.63 11.9,13.28 27.04,19.95 45.35,19.95 18.36,0 33.39,-6.62 45.19,-19.79 11.74,-13.23 17.62,-33.02 17.62,-59.43 0,-26.09 -5.72,-45.56 -17.2,-58.37 -11.43,-12.85 -26.62,-19.26 -45.61,-19.26 -18.95,0 -34.24,6.51 -45.83,19.48 -11.59,13.01 -17.41,32.59 -17.41,58.79zm35.56 -134.15l21.59 -46.35 48.58 0 -42.86 46.35 -27.31 0zm411.26 164.15l44.45 13.65c-6.82,25.03 -18.2,43.61 -34.08,55.78 -15.87,12.11 -35.98,18.2 -60.37,18.2 -30.22,0 -55.04,-10.32 -74.51,-30.96 -19.42,-20.63 -29.16,-48.84 -29.16,-84.66 0,-37.84 9.79,-67.26 29.32,-88.22 19.52,-20.95 45.24,-31.43 77.1,-31.43 27.83,0 50.43,8.26 67.78,24.71 10.38,9.74 18.1,23.71 23.29,41.97l-45.4 10.79c-2.7,-11.75 -8.31,-21.06 -16.83,-27.88 -8.57,-6.83 -18.95,-10.22 -31.12,-10.22 -16.88,0 -30.58,6.03 -41.06,18.15 -10.53,12.07 -15.77,31.65 -15.77,58.74 0,28.68 5.19,49.16 15.5,61.33 10.38,12.22 23.82,18.31 40.38,18.31 12.22,0 22.75,-3.86 31.54,-11.64 8.78,-7.78 15.13,-19.95 18.94,-36.62zm174.52 83.82l0 -227.33 46.04 0 0 227.33 -46.04 0zm172.5 -112.29c0,-23.18 3.5,-42.65 10.43,-58.42 5.13,-11.59 12.22,-22.01 21.16,-31.22 8.95,-9.21 18.74,-16.03 29.37,-20.53 14.18,-5.98 30.54,-9 49.06,-9 33.55,0 60.32,10.43 80.48,31.22 20.11,20.85 30.17,49.8 30.17,86.89 0,36.78 -10.01,65.57 -29.96,86.31 -19.95,20.8 -46.67,31.17 -80.06,31.17 -33.81,0 -60.75,-10.32 -80.7,-31.01 -19.95,-20.64 -29.95,-49.11 -29.95,-85.41zm47.31 -1.53c0,25.77 5.98,45.29 17.89,58.63 11.9,13.28 27.04,19.95 45.35,19.95 18.36,0 33.39,-6.62 45.19,-19.79 11.74,-13.23 17.62,-33.02 17.62,-59.43 0,-26.09 -5.72,-45.56 -17.2,-58.37 -11.43,-12.85 -26.62,-19.26 -45.61,-19.26 -18.95,0 -34.24,6.51 -45.83,19.48 -11.59,13.01 -17.41,32.59 -17.41,58.79zm389.62 -113.51l83.71 0c18.89,0 33.29,1.43 43.18,4.34 13.28,3.91 24.71,10.9 34.19,20.95 9.52,10.01 16.72,22.28 21.69,36.83 4.92,14.5 7.41,32.44 7.41,53.71 0,18.74 -2.33,34.82 -6.98,48.37 -5.67,16.56 -13.76,29.95 -24.29,40.16 -7.94,7.78 -18.68,13.82 -32.18,18.15 -10.1,3.23 -23.6,4.82 -40.53,4.82l-86.2 0 0 -227.33zm46.04 38.42l0 150.49 34.13 0c12.75,0 21.96,-0.74 27.62,-2.17 7.46,-1.85 13.6,-5.02 18.47,-9.47 4.92,-4.44 8.89,-11.75 11.96,-21.91 3.12,-10.16 4.65,-24.07 4.65,-41.64 0,-17.57 -1.53,-31.01 -4.65,-40.43 -3.07,-9.42 -7.41,-16.72 -12.97,-22.01 -5.55,-5.24 -12.59,-8.84 -21.17,-10.69 -6.35,-1.43 -18.89,-2.17 -37.51,-2.17l-20.53 0zm480.27 188.91l-49.59 0 -19.63 -51.75 -91.18 0 -18.89 51.75 -48.68 0 88.27 -227.33 48.63 0 91.07 227.33zm-84.14 -90.17l-31.59 -84.14 -30.7 84.14 62.29 0zm277.28 90.17l0 -227.33 168.27 0 0 38.42 -122.23 0 0 50.48 113.66 0 0 38.42 -113.66 0 0 61.59 126.68 0 0 38.42 -172.72 0zm303.36 0l0 -227.33 68.95 0 40.75 155.05 40.27 -155.05 69.11 0 0 227.33 -42.55 0 -0.16 -178.96 -44.82 178.96 -44.23 0 -44.61 -178.96 -0.16 178.96 -42.55 0zm357.35 0l0 -227.33 73.6 0c27.89,0 46.04,1.11 54.51,3.39 13.02,3.44 23.92,10.84 32.7,22.27 8.79,11.43 13.18,26.2 13.18,44.3 0,13.97 -2.54,25.66 -7.57,35.19 -5.08,9.52 -11.48,16.98 -19.26,22.43 -7.78,5.4 -15.72,9 -23.76,10.74 -10.95,2.17 -26.78,3.28 -47.52,3.28l-29.84 0 0 85.73 -46.04 0zm46.04 -188.91l0 64.77 25.02 0c18.05,0 30.06,-1.22 36.15,-3.6 6.08,-2.38 10.84,-6.09 14.28,-11.22 3.44,-5.08 5.19,-10.95 5.19,-17.73 0,-8.3 -2.43,-15.13 -7.25,-20.53 -4.87,-5.4 -10.95,-8.78 -18.41,-10.16 -5.45,-1 -16.41,-1.53 -32.92,-1.53l-22.06 0zm257.96 188.91l0 -227.33 96.68 0c24.29,0 41.96,2.06 52.97,6.14 11.06,4.07 19.84,11.32 26.45,21.75 6.62,10.47 9.95,22.38 9.95,35.82 0,17.09 -4.97,31.17 -14.97,42.28 -10,11.11 -24.93,18.1 -44.82,21.01 9.89,5.77 18.04,12.12 24.44,19.05 6.46,6.93 15.14,19.26 26.04,36.94l27.73 44.34 -54.88 0 -32.91 -49.64c-11.8,-17.62 -19.9,-28.73 -24.29,-33.33 -4.34,-4.55 -8.94,-7.73 -13.81,-9.42 -4.92,-1.7 -12.65,-2.54 -23.23,-2.54l-9.31 0 0 94.93 -46.04 0zm46.04 -131.13l33.97 0c22.01,0 35.72,-0.95 41.22,-2.8 5.45,-1.85 9.79,-5.08 12.86,-9.63 3.12,-4.55 4.66,-10.27 4.66,-17.1 0,-7.67 -2.07,-13.81 -6.14,-18.57 -4.08,-4.71 -9.85,-7.67 -17.25,-8.89 -3.76,-0.53 -14.93,-0.79 -33.5,-0.79l-35.82 0 0 57.78zm275.48 131.13l0 -227.33 168.27 0 0 38.42 -122.23 0 0 50.48 113.66 0 0 38.42 -113.66 0 0 61.59 126.68 0 0 38.42 -172.72 0zm291.93 -73.66l44.77 -4.45c2.7,14.98 8.1,25.93 16.3,32.97 8.2,7.04 19.26,10.53 33.18,10.53 14.71,0 25.82,-3.12 33.28,-9.36 7.46,-6.25 11.22,-13.55 11.22,-21.91 0,-5.4 -1.59,-9.95 -4.71,-13.76 -3.12,-3.76 -8.62,-7.04 -16.46,-9.79 -5.34,-1.9 -17.51,-5.19 -36.56,-9.95 -24.5,-6.14 -41.7,-13.65 -51.6,-22.59 -13.91,-12.54 -20.84,-27.84 -20.84,-45.88 0,-11.59 3.28,-22.49 9.78,-32.6 6.57,-10.11 15.99,-17.78 28.32,-23.07 12.32,-5.29 27.14,-7.94 44.6,-7.94 28.42,0 49.85,6.3 64.19,18.95 14.4,12.64 21.91,29.47 22.65,50.58l-46.04 1.59c-1.96,-11.75 -6.14,-20.16 -12.54,-25.29 -6.4,-5.13 -16.03,-7.73 -28.84,-7.73 -13.23,0 -23.6,2.75 -31.06,8.26 -4.82,3.54 -7.25,8.25 -7.25,14.18 0,5.4 2.28,10 6.83,13.81 5.76,4.92 19.79,10 42.07,15.29 22.27,5.24 38.73,10.75 49.37,16.35 10.69,5.67 19.05,13.34 25.08,23.13 6.03,9.79 9.05,21.85 9.05,36.19 0,13.02 -3.6,25.25 -10.85,36.62 -7.25,11.38 -17.46,19.85 -30.69,25.35 -13.23,5.56 -29.74,8.31 -49.48,8.31 -28.73,0 -50.8,-6.62 -66.2,-19.9 -15.4,-13.23 -24.55,-32.54 -27.57,-57.89zm520.86 73.66l-49.59 0 -19.63 -51.75 -91.18 0 -18.89 51.75 -48.68 0 88.27 -227.33 48.63 0 91.07 227.33zm-84.14 -90.17l-31.59 -84.14 -30.7 84.14 62.29 0z"/>
   </g>
  </g>
 </g>
</svg>
