<?xml version="1.0" encoding="UTF-8"?>
<!DOCTYPE svg PUBLIC "-//W3C//DTD SVG 1.1//EN" "http://www.w3.org/Graphics/SVG/1.1/DTD/svg11.dtd">
<!-- Creator: CorelDRAW 2018 (64 Bit Versão de avaliação) -->
<svg xmlns="http://www.w3.org/2000/svg" xml:space="preserve" width="91.44mm" height="91.44mm" version="1.1" style="shape-rendering:geometricPrecision; text-rendering:geometricPrecision; image-rendering:optimizeQuality; fill-rule:evenodd; clip-rule:evenodd"
viewBox="0 0 9144 9144"
 xmlns:xlink="http://www.w3.org/1999/xlink">
 <defs>
  <style type="text/css">
   <![CDATA[
    .fil0 {fill:none}
    .fil2 {fill:#0967C6}
    .fil3 {fill:#95A5A6}
    .fil4 {fill:#B8D15D}
    .fil6 {fill:#C2C6C7}
    .fil5 {fill:#FDFDFD}
    .fil7 {fill:#FEFBFD}
    .fil1 {fill:#FEFEFE}
   ]]>
  </style>
 </defs>
 <g id="Camada_x0020_1">
  <metadata id="CorelCorpID_0Corel-Layer"/>
  <rect class="fil0" width="9144" height="9144"/>
  <path class="fil1" d="M2874.22 5178.24c39.54,-10 175.11,-3.38 227.03,-3.39 224.04,-0.03 198.69,-17.81 198.55,281.27 -0.11,225.6 7.71,197.07 -290.44,197.07 -74.93,0 -171.53,16.37 -191.18,-52.38 -10.32,-36.12 -4.6,-188.73 -4.61,-236.58 -0.02,-91.49 -19.7,-165.67 60.65,-185.99zm-2558.46 171.61l2180.19 -2.92 -2.96 133.61c-670.6,-11.89 -1384.63,3.59 -2065.57,-0.33 -134.55,-0.77 -100.11,-9.25 -115.77,21.85 26.69,26.62 249.63,13.02 299.54,13.02 288.76,0 2024.5,-12.39 2120.5,4.11l0.64 135 -2419.54 2.1 -1.1 1248.65c61.87,18.97 2120.77,6.91 2495.53,6.9 175.45,-0.01 134.05,27.49 310.01,-144.07 45.13,-44.01 80.39,-69.43 120.2,-109.38l240.06 -219.26 0.53 -1360.65 -3162.97 0.82 0.06 95.66 1966.47 0.22 0.64 135.25 -1966.31 -1.36 -0.15 40.78z"/>
  <path class="fil2" d="M312.79 5656.29l2419.54 -2.1 -0.64 -135c-96,-16.5 -1831.74,-4.11 -2120.5,-4.11 -49.91,0 -272.85,13.6 -299.54,-13.02 15.66,-31.1 -18.78,-22.62 115.77,-21.85 680.94,3.92 1394.97,-11.56 2065.57,0.33l2.96 -133.61 -2180.19 2.92 -4.48 1.93 1.51 304.51z"/>
  <path class="fil3" d="M311.69 6904.94l2.67 98.96 3162.6 -0.78 0.53 -563.99 -240.06 219.26c-39.81,39.95 -75.07,65.37 -120.2,109.38 -175.96,171.56 -134.56,144.06 -310.01,144.07 -374.76,0.01 -2433.66,12.07 -2495.53,-6.9z"/>
  <polygon class="fil4" points="311.28,5351.78 315.76,5349.85 315.91,5309.07 2282.22,5310.43 2281.58,5175.18 315.11,5174.96 315.05,5079.3 "/>
  <path class="fil2" d="M2874.22 5178.24c-80.35,20.32 -60.67,94.5 -60.65,185.99 0.01,47.85 -5.71,200.46 4.61,236.58 19.65,68.75 116.25,52.38 191.18,52.38 298.15,0 290.33,28.53 290.44,-197.07 0.14,-299.08 25.49,-281.3 -198.55,-281.27 -51.92,0.01 -187.49,-6.61 -227.03,3.39z"/>
  <g id="_2516233114240">
   <path class="fil5" d="M2196.22 1569.42c-0.51,-149.73 23,-122.65 169.96,-122.59 137.38,0.05 176.09,-33.05 176.19,113.4 0.15,123.15 21.67,218.45 -57.1,228.12 -81.1,9.96 -199.63,2.1 -280.34,-11.68 -13.64,-58.92 -8.57,-135.82 -8.71,-207.25zm-1788.37 -0.31l1561.07 3.21 -3.76 93.24 -1557.62 0.85 0.08 24.54 1728.14 0.71 -1.03 96.77 -1727.06 0.41 2.44 2380.95 193.04 0c57.54,58.03 -68.78,101.75 127.45,101.15 164.14,-0.52 111.15,17.27 134.07,-95.67l1789.21 -2.45 -0.27 -2826.46 -2245.88 -0.1 0.12 222.85z"/>
   <path class="fil3" d="M410.11 4169.79l-3.33 157.42 2247.13 0.57 -0.03 -154.96 -1789.21 2.45c-22.92,112.94 30.07,95.15 -134.07,95.67 -196.23,0.6 -69.91,-43.12 -127.45,-101.15l-193.04 0z"/>
   <polygon class="fil2" points="407.67,1788.84 2134.73,1788.43 2135.76,1691.66 407.62,1690.95 "/>
   <polygon class="fil4" points="407.54,1666.41 1965.16,1665.56 1968.92,1572.32 407.85,1569.11 "/>
   <path class="fil2" d="M2196.22 1569.42c0.14,71.43 -4.93,148.33 8.71,207.25 80.71,13.78 199.24,21.64 280.34,11.68 78.77,-9.67 57.25,-104.97 57.1,-228.12 -0.1,-146.45 -38.81,-113.35 -176.19,-113.4 -146.96,-0.06 -170.47,-27.14 -169.96,122.59z"/>
  </g>
  <g id="_2516233111808">
   <path class="fil5" d="M4833.21 6365.77c-5.91,-53.71 -0.28,-144.4 -0.36,-202.16 -0.25,-177.19 -8.58,-149.46 256.16,-150.08 184.22,-0.42 152.72,-9.2 153.72,260.38 0.64,172.85 7.15,143.09 -254.81,143.45 -66.57,0.09 -147.14,17.13 -154.71,-51.59zm-403.07 -306.53l286.04 4.76 0.18 86.86c-45.64,6.96 -95.02,2.97 -141.9,2.94 -24.81,-0.01 -49.26,-0.38 -74,-0.69 -60.72,-0.77 -57.38,0.09 -69.28,19.7l24.22 7.4c2.88,0.49 5.38,0.99 8.64,1.41l285.03 1.26 -0.24 96.79c-42.12,-0.84 -280.56,-12.25 -318.15,12.59 22.82,13.3 51.7,12.02 79.36,11.68 30.7,-0.38 61.27,-0.4 91.98,-0.4 59.3,0 121.62,-1.86 180.52,1.22l4.12 96.98 -356.34 5.52 -0.37 790.98c66.49,11.24 1176.49,8.79 1215.55,-1.85l0.01 -786.88c-55.2,-16.3 -281.84,-6.62 -354.99,-6.2l-0.49 -99.88 323.44 0.45c33.37,-8.33 18.95,6.34 31.29,-24.47l-314.87 -0.07 -4.7 -97.31c43,0.31 283.96,9.74 319.27,-9.22 -13.46,-24.24 2.3,-9.82 -23.43,-17.66l-261.16 -3.76 0.23 -85.45 282.58 -2.79 -0.98 -254.7c-32.87,-85.75 -91.29,-63.53 -221.91,-63.53 -77.38,0 -213.4,7.84 -283.58,-3.9 2.12,-59.7 9.46,-231.69 -5.01,-279.38l-191.1 0.61 -1.52 283.42c-128.41,-2.78 -292.75,-8.07 -418.83,-0.69 -68.61,4.01 -88.67,35.4 -90.04,105.75 -1.34,68.59 0.16,139.68 0.43,208.51z"/>
   <path class="fil2" d="M4430.63 7466.98l1214.2 1.24 0.67 -271.83c-39.06,10.64 -1149.06,13.09 -1215.55,1.85l0.68 268.74z"/>
   <path class="fil1" d="M5644.83 7468.22l-1214.2 -1.24c-5.46,185.09 49.03,160.08 217.33,160.07l771.83 0c163.76,0.01 233.52,28.21 225.04,-158.83z"/>
   <path class="fil2" d="M4833.21 6365.77c7.57,68.72 88.14,51.68 154.71,51.59 261.96,-0.36 255.45,29.4 254.81,-143.45 -1,-269.58 30.5,-260.8 -153.72,-260.38 -264.74,0.62 -256.41,-27.11 -256.16,150.08 0.08,57.76 -5.55,148.45 0.36,202.16z"/>
   <path class="fil4" d="M4430.32 6407.26l356.34 -5.52 -4.12 -96.98c-58.9,-3.08 -121.22,-1.22 -180.52,-1.22 -30.71,0 -61.28,0.02 -91.98,0.4 -27.66,0.34 -56.54,1.62 -79.36,-11.68 37.59,-24.84 276.03,-13.43 318.15,-12.59l0.24 -96.79 -285.03 -1.26c-3.26,-0.42 -5.76,-0.92 -8.64,-1.41l-24.22 -7.4c11.9,-19.61 8.56,-20.47 69.28,-19.7 24.74,0.31 49.19,0.68 74,0.69 46.88,0.03 96.26,4.02 141.9,-2.94l-0.18 -86.86 -286.04 -4.76 0.18 348.02z"/>
   <path class="fil4" d="M5645.51 6409.51l-3.81 -601.06 0.98 254.7 -282.58 2.79 -0.23 85.45 261.16 3.76c25.73,7.84 9.97,-6.58 23.43,17.66 -35.31,18.96 -276.27,9.53 -319.27,9.22l4.7 97.31 314.87 0.07c-12.34,30.81 2.08,16.14 -31.29,24.47l-323.44 -0.45 0.49 99.88c73.15,-0.42 299.79,-10.1 354.99,6.2z"/>
  </g>
  <g id="_2516233171488">
   <path class="fil5" d="M7575.51 6981.39c-44.17,106.66 -95.73,214.63 -145.19,322.84 -48.8,106.78 -78.34,273.09 -231.38,211.04 -107.35,-43.52 -214.25,-98.42 -323.68,-145.54 -323.22,-139.16 -272.54,-105.91 -76.72,-549.98 130.21,-295.26 88.31,-288.88 552.51,-73.05 106.38,49.46 286.66,84.53 224.46,234.69zm-710.51 -1321.41c10.6,145.99 -1.38,194.95 58.29,319.3 41.86,87.22 101.3,161.75 160.08,208.45 330.65,262.67 796.25,227.42 1054.64,-96.44 156.71,-196.42 114.12,-402.52 128.6,-433.02 23.95,-50.45 101.65,-23.76 132.82,-5.67 30.88,194.01 -1.68,376 -104.16,531.13l-99.93 121.62c-22.62,22.92 -33.35,25.64 -59.19,51.69 -20.1,20.26 -38.86,32.1 -62.99,47.59 -280.1,179.85 -605.81,205.97 -908.39,61.87 -153.03,-72.88 -218.44,-138.62 -300.92,-244.07 -126.78,-162.07 -148.72,-313.41 -139.8,-509.79 4.97,-109.67 102.83,-75.76 140.95,-52.66zm507.18 2137.45l330.52 -303.43c138.8,-119.28 284.89,-266.62 417.35,-381.9l165.35 -147.33c31.61,-27.98 53.69,-52.89 85.37,-79.85l250.08 -227.52c33.26,-32.85 52.58,-54.65 87.97,-76.96l-4.48 -1230.71 -2280.56 2.24c-15.28,188.93 -1.7,441.14 -1.7,637.07 0,206.64 10.94,1149.4 -2.11,1268.26 -19.18,174.83 -81.34,369.62 -94.45,540.44l1046.66 -0.31z"/>
   <path class="fil2" d="M7355.48 7260.57c-158.12,29.23 -147.97,-253.25 53.71,-150.49 14.46,73.92 16.02,122.03 -53.71,150.49zm-366.1 -315.89c122.61,-39.36 145.82,149.85 54.8,171.86 -147,35.55 -137.45,-145.32 -54.8,-171.86zm586.13 36.71c62.2,-150.16 -118.08,-185.23 -224.46,-234.69 -464.2,-215.83 -422.3,-222.21 -552.51,73.05 -195.82,444.07 -246.5,410.82 76.72,549.98 109.43,47.12 216.33,102.02 323.68,145.54 153.04,62.05 182.58,-104.26 231.38,-211.04 49.46,-108.21 101.02,-216.18 145.19,-322.84z"/>
   <path class="fil6" d="M6865 5659.98c-38.12,-23.1 -135.98,-57.01 -140.95,52.66 -8.92,196.38 13.02,347.72 139.8,509.79 82.48,105.45 147.89,171.19 300.92,244.07 302.58,144.1 628.29,117.98 908.39,-61.87 24.13,-15.49 42.89,-27.33 62.99,-47.59 25.84,-26.05 36.57,-28.77 59.19,-51.69l99.93 -121.62c102.48,-155.13 135.04,-337.12 104.16,-531.13 -31.17,-18.09 -108.87,-44.78 -132.82,5.67 -14.48,30.5 28.11,236.6 -128.6,433.02 -258.39,323.86 -723.99,359.11 -1054.64,96.44 -58.78,-46.7 -118.22,-121.23 -160.08,-208.45 -59.67,-124.35 -47.69,-173.31 -58.29,-319.3z"/>
   <path class="fil2" d="M7752.74 7797.57l1079.98 -0.89c-9.06,-98.47 -70.01,-298.79 -96.13,-403.52 -40.04,-160.47 -28.41,-298.16 -27.79,-468.08 -47.71,24.04 -84.25,71.99 -126.23,107.31l-829.83 765.18z"/>
   <path class="fil3" d="M7372.18 7797.43l380.56 0.14 829.83 -765.18c41.98,-35.32 78.52,-83.27 126.23,-107.31l0.02 -344.64c-35.39,22.31 -54.71,44.11 -87.97,76.96l-250.08 227.52c-31.68,26.96 -53.76,51.87 -85.37,79.85l-165.35 147.33c-132.46,115.28 -278.55,262.62 -417.35,381.9l-330.52 303.43z"/>
   <path class="fil4" d="M6989.38 6944.68c-82.65,26.54 -92.2,207.41 54.8,171.86 91.02,-22.01 67.81,-211.22 -54.8,-171.86z"/>
   <path class="fil4" d="M7355.48 7260.57c69.73,-28.46 68.17,-76.57 53.71,-150.49 -201.68,-102.76 -211.83,179.72 -53.71,150.49z"/>
  </g>
  <g id="_2516233164864">
   <path class="fil7" d="M7855.57 3149.83c-7.68,-45.31 -1.25,-167.34 -1.23,-220.53 0.03,-81.22 -18.68,-155.15 61.36,-168.93 48.47,-8.35 165.1,-1.77 220.79,-1.87 204.09,-0.34 171.72,-3.75 171.89,281.07 0.12,199.05 -0.61,167.61 -282.15,168.1 -70.58,0.12 -158.91,11.55 -170.66,-57.84zm-2332.17 1076.6l-0.1 -1516.58 104.14 0.7 1.2 1516.6 73.37 0.2 -0.08 -1235.6 103.96 -0.69 -0.11 1235.61 1675.96 0.49c1.51,-106.79 -12.48,-568.72 6.59,-631.81l628.18 -1.29 -0.79 -219.33 399.48 1.32 -0.27 -787.57 -3191.68 -0.49 -1.05 1639.55 201.2 -1.11z"/>
   <path class="fil2" d="M5323.25 2587.99l3191.68 0.49c-34.28,-59.89 -190.65,-252.29 -230.05,-319.64l-2779.18 0.36 -182.45 318.79z"/>
   <path class="fil2" d="M7855.57 3149.83c11.75,69.39 100.08,57.96 170.66,57.84 281.54,-0.49 282.27,30.95 282.15,-168.1 -0.17,-284.82 32.2,-281.41 -171.89,-281.07 -55.69,0.1 -172.32,-6.48 -220.79,1.87 -80.04,13.78 -61.33,87.71 -61.36,168.93 -0.02,53.19 -6.45,175.22 1.23,220.53z"/>
   <polygon class="fil2" points="5523.4,4226.43 5628.64,4227.15 5627.44,2710.55 5523.3,2709.85 "/>
   <polygon class="fil3" points="5702.01,4227.35 5805.78,4226.67 5805.89,2991.06 5701.93,2991.75 "/>
   <polygon class="fil3" points="8114.32,4227.2 8414.15,4226.89 8416.31,3427.81 8119.2,3431.78 "/>
   <polygon class="fil2" points="7490.1,4227.3 8114.32,4227.2 8117.43,3599.72 7489.47,3601.92 "/>
  </g>
  <path class="fil2" d="M3619.52 2414.7c0.35,174.14 -12.02,361.62 21.24,505.27 196.77,33.6 485.75,52.75 683.48,28.47 192.03,-23.57 139.57,-255.9 139.21,-556.14 -0.24,-357.05 -94.64,-276.36 -429.57,-276.48 -358.28,-0.13 -415.6,-66.15 -414.36,298.88z"/>
 </g>
</svg>
