<?xml version="1.0" encoding="UTF-8"?>
<!DOCTYPE svg PUBLIC "-//W3C//DTD SVG 1.1//EN" "http://www.w3.org/Graphics/SVG/1.1/DTD/svg11.dtd">
<!-- Creator: CorelDRAW 2018 (64 Bit Versão de avaliação) -->
<svg xmlns="http://www.w3.org/2000/svg" xml:space="preserve" width="91.44mm" height="91.44mm" version="1.1" style="shape-rendering:geometricPrecision; text-rendering:geometricPrecision; image-rendering:optimizeQuality; fill-rule:evenodd; clip-rule:evenodd"
viewBox="0 0 9144 9144"
 xmlns:xlink="http://www.w3.org/1999/xlink">
 <defs>
  <style type="text/css">
   <![CDATA[
    .fil0 {fill:none}
    .fil1 {fill:white}
   ]]>
  </style>
 </defs>
 <g id="Camada_x0020_1">
  <metadata id="CorelCorpID_0Corel-Layer"/>
  <rect class="fil0" width="9144" height="9144"/>
  <g id="_2516233105984">
   <path class="fil1" d="M5252.12 7245.13c126.43,-172.56 338.87,-201.39 748.11,-974.82l793.47 0c-21.48,80.44 -75.39,110.04 -130.33,164.39 -283.65,280.62 -537.45,497.95 -931.67,655.25 -112.07,44.73 -339.96,143.57 -479.58,155.18zm-1632.28 -974.82l680.11 0 0 793.46c-168,-44.86 -440.65,-388.15 -544.18,-544l-135.93 -249.46zm-1269.54 0l748.13 0c93.5,176.72 163.78,335.43 271.72,499.06l244.39 322.37c42.75,47.85 60.5,55.06 95.98,108.05 -483.66,-112.68 -961.87,-479.59 -1299.11,-831.9 -66,-68.94 -29.98,-38.33 -61.11,-97.58zm2403.06 770.79l0 -770.79 725.46 0c-140.06,264.68 -310.23,421.2 -504.43,606.42 -71.19,67.9 -134.95,118.83 -221.03,164.37zm-181.36 748.13c730.05,0 1509.14,-272.36 2043.46,-699.66 427.26,-341.66 686.39,-657.85 926.37,-1136.64 117.12,-233.68 146.86,-379.6 204.02,-498.76l-476.07 0c-58.58,122.1 -94.42,241.27 -158.69,362.73l-929.49 0c27.68,-118.78 87.59,-224.05 90.68,-362.73l-453.41 0c-25.77,110.63 -71.21,362.73 -158.69,362.73l-906.82 0 0 -362.73 -453.41 0 0 362.73 -884.14 0c-27.67,-118.78 -87.59,-224.05 -90.68,-362.73l-476.08 0c28.25,121.3 62.42,241.43 90.68,362.73l-906.82 0c-232.32,-439.08 17.6,-362.73 -612.09,-362.73 5.12,230.04 320.9,774.22 430.78,929.44 609.67,861.22 1641.97,1405.62 2720.4,1405.62z"/>
   <path class="fil1" d="M4753.36 2076.28c325.53,217.98 475.43,419.78 680.12,725.46l-680.12 0 0 -725.46zm-453.41 0l0 725.46 -634.77 0c38.73,-166.23 411.55,-607.35 634.77,-725.46zm-1156.18 725.46l-748.13 0c206.3,-308.09 990.64,-832.61 1337.55,-861.48 -46.86,69.98 -106.21,114.9 -168.36,194.36 -139.78,178.72 -372.18,457.26 -421.06,667.12zm2131.02 -906.82c500.88,116.69 1210.8,514.41 1473.57,906.82l-793.47 0c-39.25,-147.01 -347.47,-564.77 -481.54,-697.32 -71.99,-71.17 -144.5,-128.76 -198.56,-209.5zm-3853.97 1722.95l476.07 0 158.69 -362.73 906.82 0c-31.39,65.43 -88.59,268.75 -90.68,362.73 551.52,0 445.59,35.13 501.91,-155.53 19.54,-66.14 47.4,-132.32 64.85,-207.2l861.47 0 0 362.73 453.41 0 0 -362.73 929.49 0c7.13,85.69 32.69,105.44 59.74,189.64 67.14,209.02 -58.72,173.09 507.02,173.09 -3.09,-138.67 -63.01,-243.94 -90.68,-362.73l929.49 0 158.69 362.73 476.07 0c-58.21,-121.34 -90.01,-258.74 -192.93,-464.5 -733.8,-1466.97 -2514.29,-2170.99 -4094.68,-1601.41 -771.19,277.93 -1446.45,857.46 -1810.74,1589.81 -117.98,237.17 -142.2,347.26 -204.01,476.1z"/>
   <path class="fil1" d="M1398.15 4139.29c0,22.29 246.25,877.51 373.99,942.01 232.9,117.59 316.14,-106.26 359.96,-230.73 30.65,-87.06 126.8,-434.22 195.53,-484.57 5.7,68.5 127.3,400.28 155.51,479.25 21.69,60.7 67.64,169.1 109.6,207.93 62.82,58.11 165.8,69.02 248.51,32.09 120.83,-53.96 145.33,-255.79 218.47,-440.59 52.19,-131.83 318.73,-696.15 -38.9,-607.34 -153.73,38.19 -193.56,329.42 -257.01,560.8l-42.35 116.36c-1.59,3.11 -5.29,9.69 -8.43,14.22 -30.7,-131.77 -92.06,-286.42 -132.96,-411.13 -48.32,-147.31 -80.82,-278.94 -254.82,-284.88 -195.56,-6.68 -219.65,116.41 -273.12,261.82 -35.04,95.29 -123.1,297.76 -132.57,411.52l-45.34 0c-0.49,-22.17 -94.96,-644.68 -279.15,-672.64 -69.49,-10.55 -196.92,37.66 -196.92,105.88z"/>
   <path class="fil1" d="M3665.18 4139.29c0,128.44 105.68,373.49 155.65,524.46 49.64,149.93 109.91,378.15 216.18,420.22 212.17,83.98 287.27,-61.45 345.26,-227.59 38.63,-110.66 159.01,-393.56 167.06,-490.38 59.93,43.9 71.41,133.83 99.25,218.13 85.26,258.2 157.37,646.82 456.3,497.19 92.87,-46.49 169.58,-317.15 212.61,-445.92 40.13,-120.12 151.93,-405.85 161.33,-518.78 -79.27,-53.08 -98.92,-101.71 -210.52,-76.13 -225.88,51.76 -163.12,557.29 -310.9,665.56 -29.24,-125.52 -91.43,-293.45 -133.07,-411.02 -49.79,-140.55 -92.11,-268.85 -272.58,-262.36 -173.91,6.25 -206.73,137.35 -254.84,284.94 -21.79,66.81 -43.11,128.06 -71.6,200.44 -14.32,36.36 -25.74,72.3 -35.37,100.65l-48.68 110.02 -135.53 -499.24c-93.25,-320.03 -340.55,-184.6 -340.55,-90.19z"/>
   <path class="fil1" d="M5909.55 4116.62c0,132.42 182.98,586.66 240.43,757.07 28.68,85.07 59.47,170.2 133.56,207.61 81.15,40.96 175.96,29.17 238.16,-11.87 94.16,-62.13 159.12,-344.56 207.26,-473.47 51,-136.6 47.61,-184.2 110.08,-229.96l217.53 643.94c73.47,125.02 309.12,165.05 397.95,-51.14 55.67,-135.52 268.66,-737 268.66,-819.51 0,-88.93 -257.82,-230.83 -345.56,85.18l-145.87 488.9c-1.46,3.39 -4.27,10.57 -7.31,15.35l-214.21 -601.92c-76.66,-125.55 -295.65,-126.79 -379.03,-13.99 -95.03,128.56 -133.73,511.3 -245.57,593.24 -7.14,-85.82 -34.81,-154.9 -58.2,-236.51 -54.44,-189.99 -72.59,-396.59 -206.98,-429.24 -46.95,-11.4 -210.9,14.85 -210.9,76.32z"/>
  </g>
 </g>
</svg>
