<?xml version="1.0" encoding="UTF-8"?>
<!DOCTYPE svg PUBLIC "-//W3C//DTD SVG 1.1//EN" "http://www.w3.org/Graphics/SVG/1.1/DTD/svg11.dtd">
<!-- Creator: CorelDRAW 2018 (64 Bit Versão de avaliação) -->
<svg xmlns="http://www.w3.org/2000/svg" xml:space="preserve" width="90.8755mm" height="70.104mm" version="1.1" style="shape-rendering:geometricPrecision; text-rendering:geometricPrecision; image-rendering:optimizeQuality; fill-rule:evenodd; clip-rule:evenodd"
viewBox="0 0 3707.15 2859.8"
 xmlns:xlink="http://www.w3.org/1999/xlink">
 <defs>
  <style type="text/css">
   <![CDATA[
    .fil0 {fill:none}
    .fil1 {fill:#FEFEFE}
   ]]>
  </style>
 </defs>
 <g id="Camada_x0020_1">
  <metadata id="CorelCorpID_0Corel-Layer"/>
  <rect class="fil0" x="0" y="-0.01" width="3707.15" height="2859.8"/>
  <g id="_2067978232928">
   <path class="fil1" d="M2009.53 786.56l395.63 0c321.68,0 584.86,263.18 584.86,584.86l0 82.57c0,340.59 -278.66,619.26 -619.26,619.26l-326.84 0c-340.59,0 -619.26,-278.66 -619.26,-619.26l0 -82.57c0,-321.67 263.18,-584.86 584.86,-584.86zm17.96 226.23l359.73 0c208.55,0 379.19,170.63 379.19,379.19l0 53.54c0,220.83 -180.67,401.5 -401.5,401.5l-315.12 0c-220.82,0 -401.5,-180.67 -401.5,-401.5l0 -53.54c0,-208.56 170.64,-379.19 379.19,-379.19z"/>
   <path class="fil1" d="M1301.98 786.56l395.63 0c321.67,0 584.86,263.18 584.86,584.86l0 82.57c0,148.88 -53.24,285.93 -141.63,393.03l-91.04 0c-71.15,0 -138.12,-18.77 -196.23,-51.58 122.26,-69.02 205.29,-200.23 205.29,-349.92l0 -53.54c0,-208.55 -170.64,-379.19 -379.19,-379.19l-359.72 0c-208.56,0 -379.19,170.64 -379.19,379.19l0 53.54c0,220.83 180.67,401.5 401.5,401.5l224.09 0c74.42,90.18 173.76,159.14 287.21,196.08 -60.03,19.54 -123.99,30.15 -190.32,30.15l-326.84 0c-340.59,0 -619.25,-278.67 -619.25,-619.26l0 -82.57c0,-321.67 263.18,-584.86 584.86,-584.86z"/>
  </g>
 </g>
</svg>
