<?xml version="1.0" encoding="UTF-8"?>
<!DOCTYPE svg PUBLIC "-//W3C//DTD SVG 1.1//EN" "http://www.w3.org/Graphics/SVG/1.1/DTD/svg11.dtd">
<!-- Creator: CorelDRAW 2018 (64 Bit Versão de avaliação) -->
<svg xmlns="http://www.w3.org/2000/svg" xml:space="preserve" width="91.44mm" height="91.44mm" version="1.1" style="shape-rendering:geometricPrecision; text-rendering:geometricPrecision; image-rendering:optimizeQuality; fill-rule:evenodd; clip-rule:evenodd"
viewBox="0 0 9144 9144"
 xmlns:xlink="http://www.w3.org/1999/xlink">
 <defs>
  <style type="text/css">
   <![CDATA[
    .fil0 {fill:none}
    .fil2 {fill:#0967C6}
    .fil1 {fill:#B8D15D}
   ]]>
  </style>
 </defs>
 <g id="Camada_x0020_1">
  <metadata id="CorelCorpID_0Corel-Layer"/>
  <rect class="fil0" y="2667" width="9144" height="3810"/>
  <g id="_2516239366544">
   <path class="fil1" d="M5929.53 4294.99l164.5 0c133.75,0 243.17,109.43 243.17,243.17l0 34.34c0,141.61 -115.86,257.47 -257.47,257.47l-135.9 0c-141.61,0 -257.47,-115.86 -257.47,-257.47l0 -34.34c0,-133.74 109.42,-243.17 243.17,-243.17zm7.47 94.06l149.56 0c86.72,0 157.67,70.95 157.67,157.66l0 22.27c0,91.81 -75.12,166.93 -166.94,166.93l-131.02 0c-91.82,0 -166.94,-75.12 -166.94,-166.93l0 -22.27c0,-86.71 70.95,-157.66 157.67,-157.66z"/>
   <path class="fil1" d="M7549.85 4336.25l0 495.08 91.36 0 0 -386.04c13.26,8.88 37.68,36.2 50.83,49.36l150.29 150.29c34.12,34.12 66.08,66.07 100.2,100.19 19.83,19.83 82.57,92.09 108.3,92.09l0.91 0 5.37 0c16.67,-0.09 30.19,-1.7 41.52,-22.93 5.91,-11.08 8.19,-31.36 8.19,-47.79l0 -474.45 -91.36 0 0 388.99c-13.25,-8.88 -226.06,-224.59 -252.69,-251.22l-101.67 -98.73c-21.7,-21.69 -32.18,-41.99 -67.04,-41.99 -25.4,0 -44.21,21.82 -44.21,47.15z"/>
   <path class="fil1" d="M6353.41 4336.25l0 495.08 91.35 0 0 -386.04c13.79,9.23 315.22,313.74 351.42,349.94 32,31.99 34.04,41.99 72.94,41.99 15.41,0 27.28,-12.09 33.06,-22.93 5.91,-11.08 8.19,-31.36 8.19,-47.79l0 -474.45 -91.35 0 0 388.99c-13.26,-8.88 -226.07,-224.59 -252.7,-251.22l-101.67 -98.73c-21.7,-21.69 -32.18,-41.99 -67.04,-41.99 -25.39,0 -44.2,21.82 -44.2,47.15z"/>
   <polygon class="fil1" points="8136.29,4831.33 8619.58,4831.33 8619.58,4737.03 8233.54,4737.03 8233.54,4389.29 8616.63,4389.29 8616.63,4294.99 8136.29,4294.99 "/>
   <polygon class="fil1" points="6942.79,4831.33 7399.56,4831.33 7399.56,4737.03 7040.04,4737.03 7040.04,4294.99 6942.79,4294.99 "/>
   <polygon class="fil1" points="7414.3,4831.33 7511.54,4831.33 7511.54,4294.99 7414.3,4294.99 "/>
   <polygon class="fil1" points="8298.37,4598.52 8598.95,4598.52 8598.95,4518.96 8298.37,4518.96 "/>
   <g>
    <path class="fil2" d="M3568.58 4807.76l0 -294.7 -338.89 0 0 79.57 241.64 0 0 138.5 -218.07 0c-100.98,0 -173.87,-72.42 -173.87,-159.13 0,-39 -1.14,-62.12 16.61,-98.32 10.06,-20.53 20.62,-31.71 35.66,-46.86 26.64,-26.82 69.13,-43.42 121.6,-43.42l282.91 0 0 -94.3 -312.38 0c-63.94,0 -130.83,34.42 -173.19,77.3 -86.21,87.27 -90.04,256.51 -13.79,357.22 6.18,8.16 8.8,9.91 14.8,17.62 34.62,44.44 112.75,84.2 175.13,84.2l436.14 0c11.01,0 25.38,-32.95 34.43,-48.09l153.16 -259.4c7.65,-14.05 54.93,-96.3 62.9,-102.13l114.93 197.44 -165.03 0c-2.39,10.28 -15.26,29.4 -20.47,38.46 -3.96,6.89 -6.11,11.38 -10.67,18.8 -4.29,6.96 -8.18,12.13 -10.11,19.36l253.43 0 79.57 135.56 114.93 0c-36.33,-54.26 -108.55,-179.09 -146.42,-242.58 -40.92,-68.61 -106.24,-181.2 -146.53,-242.46 -27.55,-41.91 -23.92,-57.19 -69.52,-57.19 -26.24,0 -42.56,35.09 -53.21,52.88 -13.67,22.83 -275.97,464.54 -285.69,471.67z"/>
    <path class="fil2" d="M524.42 4825.44l330.06 0c59.77,0 139.7,-39.02 174.31,-82.07 43.67,-54.33 70.28,-112.43 70.28,-189.05 0,-147.94 -104.79,-265.22 -247.54,-265.22l-327.11 0 0 536.34zm86.93 -81.13l230.2 0c41.69,0 97.44,-27.22 121.57,-57.24 30.46,-37.9 49.02,-78.42 49.02,-131.86 0,-103.17 -73.08,-184.98 -172.65,-184.98l-228.14 0 0 374.08z"/>
    <path class="fil2" d="M4735.56 4793.02l0 -61.89 -282.91 0c-100.98,0 -173.86,-72.42 -173.86,-159.13 0,-64.73 4.43,-97.03 52.26,-145.18 26.65,-26.82 69.13,-43.42 121.6,-43.42l282.91 0 0 -94.3 -312.37 0c-63.95,0 -130.84,34.42 -173.19,77.3 -19.81,20.04 -36.65,49.72 -48.7,78.02 -28.59,67.13 -23.11,150.76 0.45,216.4 31.96,89.03 128.09,164.62 224.38,164.62l394.89 0c11,0 25.38,-32.95 34.43,-48.09l153.16 -259.4c7.64,-14.05 54.93,-96.3 62.9,-102.13l114.92 197.44 -165.02 0 -31.15 57.26c-4.28,6.96 -8.18,12.13 -10.11,19.36l253.44 0 79.56 135.56 114.93 0 -146.41 -242.58c-40.93,-68.61 -106.24,-181.2 -146.53,-242.46 -27.55,-41.91 -23.93,-57.19 -69.53,-57.19 -25.65,0 -41.4,33.06 -52.11,51.02l-118.25 197.07c-5.48,9.08 -150.63,255.08 -159.69,261.72z"/>
    <path class="fil2" d="M1570.58 4834.28c18.53,0 32.53,0.41 47.27,-20.51l60.83 -101.25c27.78,-46.57 53.74,-89.68 81.77,-136.29 5.42,-9 154.84,-262.92 163.76,-269.45l-0.01 291.75c-0.04,38.48 3.94,58.45 11.74,88.46 6.26,24.13 19.7,47.06 32.42,64.83 12.12,16.95 35.15,34.27 54.29,45.9 77.34,47.03 326.52,63.95 420.95,-30.48 53.78,-53.77 61.15,-126.9 61.15,-207.02l0 -271.12 -94.3 0 0 297.64c0,58.84 -14.45,99.72 -50.58,123.28 -61.36,40.02 -226.48,40.02 -287.84,0 -36.13,-23.56 -50.58,-64.44 -50.58,-123.28l0 -297.64 -200.39 0c-2.33,10 -7.51,16.09 -13.07,25.24 -5.9,9.7 -9.23,16.43 -15.11,26.15l-91.35 156.18c-10.67,17.62 -19.11,32.35 -29.51,50.06l-75.93 130.35c-4.44,8.17 -10.58,20.13 -16.67,24.59 -2.6,-11.16 -7.12,-16.33 -12.72,-25.59l-225.98 -386.98 -117.88 0c39.54,59.05 127.51,213.13 166.7,278.29 28.71,47.73 55.77,92.92 83.95,140.01 13.93,23.26 27.58,45.73 42.02,69.96 7.21,12.06 13.12,23.61 20.93,35.06 6.46,9.45 19.87,21.86 34.14,21.86z"/>
    <polygon class="fil2" points="2531.27,4825.44 2988.04,4825.44 2988.04,4731.13 2628.52,4731.13 2628.52,4289.1 2531.27,4289.1 "/>
    <polygon class="fil2" points="1122.64,4825.44 1219.89,4825.44 1219.89,4289.1 1122.64,4289.1 "/>
    <path class="fil2" d="M4977.21 4236.06c15.54,-10.41 29.6,-28.06 62.21,-21.1 21.69,4.63 85.95,46.78 123.04,8.91 10.29,-10.51 6.29,-26.13 6.29,-49.7 -19.47,7.05 -26.16,45.76 -94.27,11.76 -30.75,-15.36 -97.49,-31.39 -97.48,23.39 0,8.87 0.21,17.83 0.21,26.74z"/>
    <path class="fil2" d="M4473.28 4972.78l47.15 -111.98 -97.24 0c0.59,7.15 41.95,106.02 50.09,111.98z"/>
    <path class="fil2" d="M5635.34 4294.99l164.5 0c133.74,0 243.17,109.43 243.17,243.17l0 34.34c0,61.9 -22.14,118.88 -58.89,163.41l-37.85 0c-29.58,0 -57.43,-7.8 -81.59,-21.45 50.83,-28.69 85.35,-83.25 85.35,-145.49l0 -22.26c0,-86.71 -70.94,-157.66 -157.66,-157.66l-149.57 0c-86.71,0 -157.66,70.95 -157.66,157.66l0 22.26c0,91.82 75.12,166.94 166.94,166.94l93.17 0c30.94,37.5 72.25,66.17 119.42,81.53 -24.96,8.12 -51.56,12.53 -79.14,12.53l-135.89 0c-141.61,0 -257.48,-115.86 -257.48,-257.47l0 -34.34c0,-133.74 109.43,-243.17 243.18,-243.17z"/>
   </g>
  </g>
 </g>
</svg>
