<?xml version="1.0" encoding="UTF-8"?>
<!DOCTYPE svg PUBLIC "-//W3C//DTD SVG 1.1//EN" "http://www.w3.org/Graphics/SVG/1.1/DTD/svg11.dtd">
<!-- Creator: CorelDRAW 2018 (64 Bit Versão de avaliação) -->
<svg xmlns="http://www.w3.org/2000/svg" xml:space="preserve" width="133.539mm" height="42.164mm" version="1.1" style="shape-rendering:geometricPrecision; text-rendering:geometricPrecision; image-rendering:optimizeQuality; fill-rule:evenodd; clip-rule:evenodd"
viewBox="0 0 43475.66 13727.16"
 xmlns:xlink="http://www.w3.org/1999/xlink">
 <defs>
  <style type="text/css">
   <![CDATA[
    .fil0 {fill:none}
    .fil1 {fill:#B7D15E}
    .fil2 {fill:#1F73B9}
   ]]>
  </style>
 </defs>
 <g id="Camada_x0020_1">
  <metadata id="CorelCorpID_0Corel-Layer"/>
  <rect class="fil0" x="0.02" y="-0.03" width="43475.63" height="13727.16"/>
  <g id="_2033512846624">
   <path class="fil1" d="M28518.9 5479.8l821.7 0c668.09,0 1214.69,546.63 1214.69,1214.69l0 171.51c0,707.39 -578.76,1286.15 -1286.15,1286.15l-678.81 0c-707.39,0 -1286.15,-578.76 -1286.15,-1286.15l0 -171.51c0,-668.06 546.63,-1214.69 1214.72,-1214.69zm37.28 469.86l747.11 0c433.17,0 787.54,354.41 787.54,787.54l0 111.21c0,458.62 -375.21,833.87 -833.84,833.87l-654.49 0c-458.62,0 -833.87,-375.25 -833.87,-833.87l0 -111.21c0,-433.13 354.38,-787.54 787.54,-787.54z"/>
   <path class="fil1" d="M36612.66 5685.91l0 2473 456.35 0 0 -1928.36c66.25,44.37 188.18,180.85 253.91,246.58l750.76 750.72c170.4,170.43 330.06,330.06 500.46,500.49 99.04,99.04 412.49,459.99 540.96,459.99l4.59 0 26.83 0c83.25,-0.46 150.77,-8.5 207.35,-114.53 29.56,-55.35 40.92,-156.66 40.92,-238.74l0 -2369.96 -456.31 0 0 1943.08c-66.22,-44.34 -1129.26,-1121.9 -1262.25,-1254.93l-507.85 -493.1c-108.41,-108.38 -160.73,-209.76 -334.91,-209.76 -126.84,0 -220.8,108.97 -220.8,235.51z"/>
   <path class="fil1" d="M30636.21 5685.91l0 2473 456.31 0 0 -1928.36c68.89,46.13 1574.57,1567.21 1755.42,1748.03 159.82,159.82 170.04,209.76 364.31,209.76 77,0 136.28,-60.39 165.16,-114.53 29.53,-55.35 40.96,-156.66 40.96,-238.74l0 -2369.96 -456.35 0 0 1943.08c-66.22,-44.34 -1129.26,-1121.9 -1262.28,-1254.93l-507.85 -493.1c-108.38,-108.38 -160.73,-209.76 -334.84,-209.76 -126.87,0 -220.83,108.97 -220.83,235.51z"/>
   <polygon class="fil1" points="39542.01,8158.91 41956.14,8158.91 41956.14,7687.88 40027.78,7687.88 40027.78,5950.86 41941.4,5950.86 41941.4,5479.83 39542.01,5479.83 "/>
   <polygon class="fil1" points="33580.28,8158.91 35861.94,8158.91 35861.94,7687.88 34066.05,7687.88 34066.05,5479.83 33580.28,5479.83 "/>
   <polygon class="fil1" points="35935.55,8158.91 36421.29,8158.91 36421.29,5479.83 35935.55,5479.83 "/>
   <polygon class="fil1" points="40351.62,6996.02 41853.07,6996.02 41853.07,6598.57 40351.62,6598.57 "/>
   <g>
    <path class="fil2" d="M16725.56 8041.15l0 -1472.05 -1692.85 0 0 397.45 1207.07 0 0 691.86 -1089.31 0c-504.43,0 -868.48,-361.77 -868.48,-794.87 0,-194.85 -5.73,-310.33 82.92,-491.18 50.3,-102.55 103.01,-158.39 178.12,-234.05 133.09,-133.97 345.33,-216.89 607.44,-216.89l1413.15 0 0 -471.03 -1560.34 0c-319.45,0 -653.57,171.93 -865.13,386.09 -430.66,435.97 -449.77,1281.33 -68.89,1784.43 30.86,40.73 43.98,49.45 73.94,87.97 172.91,221.97 563.23,420.6 874.8,420.6l2178.62 0c54.96,0 126.74,-164.57 171.96,-240.17l765.08 -1295.79c38.19,-70.16 274.35,-481.02 314.17,-510.16l574.07 986.27 -824.33 0c-11.95,51.31 -76.21,146.86 -102.26,192.12 -19.79,34.38 -30.54,56.84 -53.3,93.89 -21.42,34.8 -40.86,60.59 -50.5,96.69l1265.93 0 397.45 677.14 574.07 0c-181.47,-271 -542.17,-894.56 -731.35,-1211.72 -204.42,-342.72 -530.71,-905.11 -731.94,-1211.14 -137.62,-209.37 -119.52,-285.68 -347.28,-285.68 -131.07,0 -212.63,175.28 -265.79,264.16 -68.27,114.05 -1378.48,2320.47 -1427.05,2356.06z"/>
    <path class="fil2" d="M1519.48 8129.48l1648.67 0c298.58,0 697.85,-194.88 870.73,-409.95 218.13,-271.36 351.06,-561.6 351.06,-944.3 0,-739 -523.44,-1324.83 -1236.5,-1324.83l-1633.95 0 0 2679.08zm434.21 -405.26l1149.9 0c208.23,0 486.72,-135.92 607.28,-285.91 152.14,-189.28 244.86,-391.69 244.86,-658.62 0,-515.4 -365.09,-924.02 -862.42,-924.02l-1139.61 0 0 1868.55z"/>
    <path class="fil2" d="M22554.79 7967.54l0 -309.12 -1413.15 0c-504.43,0 -868.48,-361.77 -868.48,-794.87 0,-323.38 22.17,-484.7 261.07,-725.23 133.09,-133.97 345.3,-216.89 607.41,-216.89l1413.15 0 0 -471.03 -1560.34 0c-319.45,0 -653.54,171.93 -865.13,386.09 -98.91,100.14 -183.03,248.37 -243.23,389.74 -142.83,335.33 -115.41,753.07 2.28,1080.98 159.62,444.72 639.8,822.28 1120.79,822.28l1972.54 0c54.96,0 126.74,-164.57 171.96,-240.17l765.08 -1295.79c38.19,-70.16 274.35,-481.02 314.17,-510.16l574.07 986.27 -824.33 0 -155.59 286.01c-21.36,34.8 -40.83,60.59 -50.46,96.69l1265.93 0 397.45 677.14 574.07 0 -731.35 -1211.72c-204.42,-342.72 -530.71,-905.11 -731.94,-1211.14 -137.62,-209.37 -119.52,-285.68 -347.28,-285.68 -128.18,0 -206.83,165.19 -260.32,254.89l-590.71 984.41c-27.38,45.35 -752.42,1274.17 -797.67,1307.31z"/>
    <path class="fil2" d="M6745.21 8173.66c92.56,0 162.52,2.05 236.13,-102.42l303.85 -505.77c138.79,-232.65 268.46,-448.01 408.49,-680.82 27.02,-44.96 773.45,-1313.33 817.95,-1345.92l0 1457.3c-0.23,192.21 19.66,292 58.6,441.89 31.29,120.56 98.45,235.06 161.94,323.81 60.59,84.68 175.61,171.22 271.2,229.33 386.35,234.9 1631.02,319.45 2102.73,-152.27 268.62,-268.59 305.45,-633.91 305.45,-1034.13l0 -1354.26 -471.06 0 0 1486.73c0,293.95 -72.15,498.15 -252.64,615.84 -306.49,199.86 -1131.31,199.86 -1437.8,0 -180.49,-117.69 -252.64,-321.89 -252.64,-615.84l0 -1486.73 -1000.99 0c-11.66,49.94 -37.51,80.35 -65.31,126.03 -29.46,48.48 -46.1,82.11 -75.47,130.65l-456.31 780.15c-53.3,88 -95.46,161.58 -147.42,250.03l-379.28 651.16c-22.17,40.79 -52.84,100.5 -83.28,122.8 -12.99,-55.77 -35.55,-81.55 -63.52,-127.85l-1128.83 -1932.98 -588.82 0c197.55,294.96 636.97,1064.6 832.7,1390.07 143.38,238.44 278.62,464.19 419.36,699.38 69.54,116.23 137.75,228.45 209.89,349.46 35.98,60.29 65.54,117.95 104.57,175.12 32.23,47.24 99.23,109.23 170.5,109.23z"/>
    <polygon class="fil2" points="11544.02,8129.48 13825.65,8129.48 13825.65,7658.42 12029.79,7658.42 12029.79,5450.4 11544.02,5450.4 "/>
    <polygon class="fil2" points="4507.69,8129.48 4993.47,8129.48 4993.47,5450.4 4507.69,5450.4 "/>
    <path class="fil2" d="M23761.86 5185.42c77.65,-51.99 147.9,-140.12 310.75,-105.39 108.38,23.12 429.36,233.69 614.64,44.5 51.37,-52.48 31.45,-130.52 31.45,-248.24 -97.28,35.19 -130.71,228.58 -470.9,58.7 -153.63,-76.7 -487.01,-156.73 -486.98,116.88 0,44.28 1.04,89.04 1.04,133.55z"/>
    <path class="fil2" d="M21244.68 8865.49l235.55 -559.35 -485.78 0c2.96,35.71 209.57,529.57 250.23,559.35z"/>
    <path class="fil2" d="M27049.36 5479.8l821.7 0c668.09,0 1214.69,546.63 1214.69,1214.72l0 171.48c0,309.22 -110.59,593.86 -294.15,816.29l-189.09 0c-147.77,0 -286.86,-38.97 -407.54,-107.14 253.91,-143.35 426.36,-415.85 426.36,-726.73l0 -111.21c0,-433.13 -354.41,-787.54 -787.58,-787.54l-747.11 0c-433.17,0 -787.54,354.41 -787.54,787.54l0 111.21c0,458.62 375.25,833.87 833.87,833.87l465.43 0c154.55,187.3 360.86,330.51 596.5,407.25 -124.69,40.57 -257.52,62.61 -395.3,62.61l-678.81 0c-707.39,0 -1286.12,-578.76 -1286.12,-1286.15l0 -171.48c0,-668.09 546.59,-1214.72 1214.69,-1214.72z"/>
   </g>
  </g>
 </g>
</svg>
