<?xml version="1.0" encoding="UTF-8"?>
<!DOCTYPE svg PUBLIC "-//W3C//DTD SVG 1.1//EN" "http://www.w3.org/Graphics/SVG/1.1/DTD/svg11.dtd">
<!-- Creator: CorelDRAW 2018 (64 Bit Versão de avaliação) -->
<svg xmlns="http://www.w3.org/2000/svg" xml:space="preserve" width="133.539mm" height="42.164mm" version="1.1" style="shape-rendering:geometricPrecision; text-rendering:geometricPrecision; image-rendering:optimizeQuality; fill-rule:evenodd; clip-rule:evenodd"
viewBox="0 0 43475.66 13727.16"
 xmlns:xlink="http://www.w3.org/1999/xlink">
 <defs>
  <style type="text/css">
   <![CDATA[
    .fil0 {fill:none}
    .fil3 {fill:#EC3337}
    .fil2 {fill:#116E4C}
    .fil1 {fill:url(#id0)}
   ]]>
  </style>
  <linearGradient id="id0" gradientUnits="userSpaceOnUse" x1="2247.67" y1="5753.17" x2="7088.48" y2="7973.99">
   <stop offset="0" style="stop-opacity:1; stop-color:#FEEDE5"/>
   <stop offset="0.501961" style="stop-opacity:1; stop-color:#F79F83"/>
   <stop offset="1" style="stop-opacity:1; stop-color:#ED3237"/>
  </linearGradient>
 </defs>
 <g id="Camada_x0020_1">
  <metadata id="CorelCorpID_0Corel-Layer"/>
  <rect class="fil0" x="0.02" y="-0.03" width="43475.63" height="13727.16"/>
  <g id="_2032368321264">
   <path class="fil1" d="M4950.26 6547.85l958.73 -1136.19 12.27 815.9 906.44 13.09 5.37 -3190.12 -3102.61 3337.57 3101.31 4778.23 -6.58 -1574.34 -1874.93 -3044.14zm-1533.42 -3037.63l2519.85 4.26 896.12 -953.65 -4329.7 0 10.19 6555.86 896.38 4.23 7.16 -5610.71zm321.89 2407.85l2014.5 -2150.62 -2013.2 4.72 -1.3 2145.9z"/>
   <path class="fil2" d="M40136.62 7620.98c172.65,267.22 4.69,549 -172.35,686.49 -193.91,150.64 -403.57,261.3 -649.24,359.1 -1367.41,544.48 -3635.37,763.45 -5168.91,881.11l-578.43 44.7c-41.77,2.15 -79.47,-2.7 -121.6,3.06 -114.89,15.72 -242.97,15.99 -354.67,19.18 -55.96,1.63 -56.55,10.45 -112.55,12.08l-964 44.34c-78.1,6.48 -169.82,-6.41 -247.01,2.25 -75.04,8.43 -148.49,9.8 -239.55,9.7 -100.05,-0.13 -157.7,11.98 -249.12,11.46 -175.81,-1.01 -323.78,11.3 -487.31,11.2l-373.95 -0.07c-51.31,2.77 -61.92,11.69 -124.17,11.79l-3263.38 -11.69c-96.14,0.36 -144.06,-11.95 -237.83,-11.46 -83.08,0.42 -166.23,-0.2 -249.35,0.13 -98.78,0.36 -150.41,-11.79 -249.19,-11.39 -177.6,0.65 -315.57,-11.53 -487.21,-11.3l-480.63 -17.87c-78.2,-11.85 -163.92,-2.02 -244.83,-4.43 -86.67,-2.6 -88.62,-12.4 -237.73,-11.56 -235.64,1.37 -732.56,-47.53 -962.8,-45.48 -180.2,1.56 -424.54,-24.65 -600.47,-34.02 -100.44,-5.34 -236.52,2.31 -357.83,-16.05l-594.52 -39.95c-40.66,-3.32 -81.88,2.25 -122.38,-2.25l-466.47 -32.04c-58.96,-0.39 -62.28,-9.12 -112.97,-11.66l-2228.79 -173.1c-68.37,-8.79 -148.95,-14.13 -228.91,-20.35 -148.2,-11.49 -314.59,-38.06 -465.3,-44.54 -147.16,-6.32 -304.79,-36.11 -453.25,-45.22 -299.72,-18.43 -1032.76,-108.28 -1360.54,-146.31 -604.25,-70.16 -1206.81,-147.48 -1792.47,-224.25 -599.89,-78.62 -1173.4,-163.73 -1759.1,-257.56 -485.61,-77.78 -1177.05,-184.14 -1664.33,-284.38l-51.44 -16.54c-167.7,26.66 -236.85,65.05 -427.24,19.11 -67.23,-16.25 -114.53,-35.94 -171.31,-65.99 -53.26,-28.19 -102.65,-70.81 -149.21,-89.07l-11.33 -11.33c-76.05,0 -755.41,-155.07 -844.91,-174.76 -142.08,-31.29 -282.82,-61.5 -415,-94.84 -73.12,-18.46 -136.35,-31.32 -210.77,-49.78 -54.4,-13.54 -159.95,-34.38 -209.86,-54.5l2.15 67.98c207.97,45.35 674.8,182.41 932.91,246.97 839.54,209.89 2078.35,473.15 2932.05,614.15 409.95,67.72 843.41,151.1 1260.95,211.91 589.73,85.92 1211.24,190.98 1800.15,261.82 352.16,42.39 710.32,89.04 1055.03,134.59 179.78,23.77 348.52,44.15 528.07,61.08 82.24,7.78 179,23.93 262.67,31.94l796.79 86.89c183.46,25.26 351.97,29.79 535.82,53.33l1892.19 169.82c84.19,11.23 188.5,10.03 283.24,22.66l1374.02 98.84c77,3.84 194,21 271.55,23.02 89.5,2.31 192.8,2.7 281.91,12.66 47.34,5.24 74.62,8.82 138.01,9.28 64.56,0.46 78.17,12.27 146.57,12.01l975.27 55.74c46.52,3.87 99.82,-1.17 147.06,0.23l556.46 32.72c43.3,4.85 101.09,1.6 145.89,1.37l429.91 23.31c175.71,5.27 415.13,-2.02 569.94,19.18 89.01,12.21 199.31,-1.92 291.54,3.06l566.39 22.76c89.27,-0.33 208.07,-6.54 294.02,0.55 171.12,14.16 406.53,-6.74 576.74,12.37 144.91,16.28 2237.88,32.43 2343.81,17.94 168.22,-23.08 392.7,-8.24 580.91,-8.24 374.01,0 777.97,-21.75 1155.99,-22.27l282.88 -11.72c111.08,0.26 180.14,-11.56 294.54,-11.33 188.57,0.33 378.47,-23.83 566.65,-22.53l1393.72 -79.15c86.99,-2.12 191.95,-22.72 282.92,-22.95 89.5,-0.26 185.93,-19.96 271.95,-22.66l812.52 -71.2c687.17,-85.85 1397,-145.79 2075.55,-281 689.65,-137.45 1693.43,-322.8 2290.16,-666.89 307.79,-177.47 706.05,-447.36 494.44,-869.49 -18.92,-37.7 -33.04,-59.45 -55.18,-92.1 -24.48,-36.2 -41.28,-49.36 -65.93,-81.36 -124.69,-161.81 -509.9,-411.55 -693.39,-498.47 -13.09,57.46 -36.4,123.88 -56.55,179 -18.85,51.67 -58.15,124.04 -68.04,172.22zm-1346.87 -895.05c80.19,18.04 410.15,182.02 499.35,226.59l401.23 233.07c19.31,12.86 8.63,4.13 26.92,18.69 2.67,2.08 10.52,9.02 12.73,10.97 1.69,1.5 4.82,4.69 6.19,5.96 1.33,1.24 4.13,3.94 6.12,6.02 18.52,-32.56 25.17,-166.72 11.33,-191.92 -63.78,-45.38 -871.87,-347.61 -965.82,-354.7l1.95 45.32z"/>
   <path class="fil3" d="M11384.13 8142.14c-288.61,0 -382.05,-234.6 -431.6,-486.1 -92.59,-470.15 -135.34,-1958.02 119.35,-2341.34 164.35,-247.33 626.36,-291.54 728.32,383.39 83.12,550.37 77.16,1325.57 2.6,1877.05 -33.96,251.34 -140.45,567.01 -418.68,567.01zm-3240.26 -691.11c44.96,31.25 456.28,162.75 487.14,169.95 0,448.08 -70.71,441.86 -509.84,441.86l0 158.62 1530.81 1.3c83.67,-0.62 66.68,3.16 66.68,-159.92 -162.78,0 -432.71,24.68 -495.51,-104.96 -15.43,-31.94 -35.16,-123.39 -38.58,-166.95l-2.15 -67.98 3.81 -1790.09c167.47,0 262.02,-7.42 388.69,41.77 342.3,132.93 438.31,496 438.31,887.26l147.29 0 0 -1993.99c-228.94,0 -102.55,-33.89 -168.77,295.74 -85.07,423.33 -283.27,610.6 -805.58,610.6 0,-396.54 0,-793.08 0,-1189.62 0,-615.48 -54.24,-665.55 521.26,-668.52 182.87,-0.94 365.35,41.74 487.24,101.87 275.01,135.66 441.24,356.82 527.58,662.04 37.77,133.51 95.39,346.63 95.39,505.08l67.98 0c-90.87,78.98 -167.47,160.63 -238.05,260.45 -202.44,286.34 -336.8,688.87 -339.37,1054.18 -0.75,106.23 -25.92,76.77 -3.48,240.63 5.76,42.06 0.98,79.83 3.06,121.57 3.09,62.05 20.54,175.25 30.96,229.65 55.7,291.22 196.22,664.9 396.54,872.35 44.44,46 93.34,81.59 127.69,132.9l11.33 11.33c46.56,18.26 95.94,60.88 149.21,89.07 56.78,30.05 104.08,49.75 171.31,65.99 190.39,45.94 259.54,7.55 427.24,-19.11 41.61,-22.04 73.12,-31.19 114.05,-55.9 599.04,-361.7 770.58,-1252.58 674.38,-1910.81 -48.02,-328.56 -200.94,-739.91 -434.31,-970.54 -198.17,-195.86 -421.9,-349.66 -751.99,-281.71 -125.41,25.82 -165.19,53.56 -259.25,103.3 0,-455.63 -22.66,-916.01 -22.66,-1370.89l-2821.09 0 0 158.65c493.75,0 509.84,4 509.84,532.46l0 3127c-93.21,-2.08 -401.06,-122.71 -487.14,-124.63z"/>
   <path class="fil3" d="M28809.17 5479.67c0,-113.17 -1.24,-227.02 0.2,-340.09 1.11,-89.11 18.33,-113 -47.57,-106.69 -263.12,25.26 -362.52,40.37 -643.9,38.77 -75.95,-0.46 -103.69,11.46 -169.78,11.46l0 135.96c345.85,0 373.88,13.12 373.88,475.85 0,287.67 21.19,2069.3 -25.2,2240.77 -38.58,142.57 -202.76,127.13 -348.68,127.13l0 158.62 1144.3 0c49.36,0 33.99,-48.02 33.99,-158.62 -222.62,0 -283.24,-48.67 -283.24,-271.91l0 -1631.48c0,-237.4 38.64,-631.86 195.18,-790.51 117.82,-119.39 167.21,-115.87 314.66,-115.87 165.13,0 215.26,229.78 215.26,373.88l0 2175.3c0,73.48 -19.96,176.29 -61.21,210.71 -51.08,42.55 -174.15,49.88 -256.03,49.88 0,110.59 -15.37,158.62 33.99,158.62l1076.32 0c49.36,0 33.99,-48.02 33.99,-158.62 -296.49,0 -305.9,-86.73 -305.9,-475.85 0,-422.98 -22.82,-1493.21 49.97,-1853.38 56.84,-281.26 145.92,-480.54 448.53,-480.54 215.33,0 237.92,266.67 237.92,487.18l0 1971.37c0,276.44 -42.29,351.22 -283.24,351.22l0 158.62 1132.97 0c49.36,0 33.99,-48.02 33.99,-158.62 -279.04,0 -327.32,-12.73 -356.43,-210.06 -18.26,-123.78 -6.12,-1294.35 -6.12,-1478.07 0,-352.91 5.53,-637.39 -67.78,-917.9 -75.69,-289.69 -265.43,-452.96 -578.01,-452.96 -201,0 -299.1,73.97 -414.58,163.24 -39.2,30.28 -35.75,36.59 -64.79,71.14l-121.27 173.33c-18.2,35.65 -25.56,68.11 -56.49,90.77 -9.99,-120.07 -115.58,-269.6 -195.21,-348.62 -206.08,-204.46 -572.08,-199.86 -799.13,11.43 -135.47,126.06 -140.61,153.93 -221.97,287.83 -14.13,23.25 -4.1,9.96 -18.62,26.7z"/>
   <path class="fil3" d="M13548.1 3780.24l-56.65 0 0 147.25c290.89,0 373.88,-28.81 373.88,362.58l0 3398.88c0,82.14 -10.74,236.91 -39.13,289.43 -50.98,94.41 -223.57,84.45 -334.75,84.45 0,110.59 -15.37,158.62 33.99,158.62l1223.61 0 0 -158.62c-271.82,0 -362.55,-0.1 -362.55,-283.24l0 -1529.51c0,-324.04 110.24,-1031 521.17,-1031 232.98,0 283.24,229.85 283.24,464.52l0 2095.99c0,260.29 -83.31,283.24 -328.56,283.24 0,110.59 -15.37,158.62 33.99,158.62l1144.3 0c49.36,0 33.99,-48.02 33.99,-158.62 -400.97,0 -362.55,-32.3 -362.55,-702.44 0,-328.56 0,-657.12 0,-985.68 0,-339.34 13.54,-660.54 -66.51,-919.17 -86.6,-279.86 -236.23,-451.69 -579.28,-451.69 -166.98,0 -340.87,79.73 -427.89,161.22 -155.56,145.69 -160.15,175.15 -243.72,334.13l-8.07 -1651.11c1.43,-174.24 19.89,-110.89 -192.64,-101.77l-475.55 34.28c-55.25,1.66 -114.53,-0.36 -170.3,-0.36z"/>
   <path class="fil2" d="M19609.49 8017.52c-143.54,0 -202.89,-36.98 -281.35,-160.54 -215.43,-339.27 -187.85,-1884.9 -99.17,-2281.96 54.56,-244.34 136.22,-412.59 391.82,-412.59 307.2,0 393.02,514.56 425.87,752.45 22.2,160.63 23.38,373.55 38.06,551.05 13.12,158.45 -14.1,412.59 -21.98,577.33 -12.73,267.16 -101.25,974.26 -453.25,974.26zm90.64 -4271.26l0 124.59c396.83,0 373.88,38.55 373.88,611.8 0,298.38 0,596.7 0,895.05l-92.79 -145.14c-252.51,-372.45 -679.29,-325.63 -907.25,-95.78 -123,124.04 -198.01,215.43 -272.86,372.9 -272.11,572.34 -278.98,1553.93 -36.59,2129.17 105.55,250.43 322.96,593.93 629.71,593.93 185.21,0 363.89,-33.76 488.93,-190.85 135.57,-170.37 119.39,-177.34 197.62,-334.84l15.86 469.04 861.06 0 0 -147.29c-300.63,0 -362.75,15.24 -362.55,-351.22l0.03 -3704.81c0,-108.41 22.01,-260.55 -33.99,-260.55l-827.07 0c-26.11,0 -33.99,7.88 -33.99,33.99z"/>
   <path class="fil3" d="M16799.73 8017.52c-349.92,0 -351.22,-412.62 -351.22,-679.78 0,-604.09 126.91,-646.93 540.18,-853.37 128.34,-64.1 183.46,-119.71 286.89,-188.96 0,342.59 19.01,772.34 -23.25,1075.74 -33.4,239.71 -177.53,646.38 -452.6,646.38zm-770.42 -2401.9l0 124.63c0,173.04 147.55,362.55 317.23,362.55l56.65 0c158.23,0 305.9,-156.3 305.9,-351.22 0,-268.04 -283.24,-271.98 -283.24,-362.55 0,-84.13 10.58,-130.88 106.43,-188.11 164.15,-98.06 540.77,-111.54 668.09,138.69 95.29,187.2 75.21,522.5 75.21,763.19 0,37.31 -114.01,100.4 -143.7,116.88 -64.79,35.88 -107.34,61.66 -180.07,91.84 -38.38,15.92 -55.31,26.89 -93.67,42.32 -317.49,127.82 -734.74,243.36 -907.55,576.64 -172.55,332.76 -132.77,898.4 217.22,1186.46 325.92,268.23 784.74,157.05 1001.34,-171.83 30.77,-46.69 101.64,-142.11 106.43,-199.51l22.66 0c0,236.78 176.46,521.17 475.85,521.17 464.52,0 487.14,-476.34 487.14,-849.73l-147.25 0c0,168.68 -1.66,509.45 -99.59,591.62 -70.84,59.45 -151.39,21.06 -182.09,-49.36 -31.58,-72.47 -35.81,-156.14 -35.58,-259.02 0.91,-396.51 0.03,-793.11 0.03,-1189.62 0,-882.84 80.51,-1506.82 -929.04,-1506.82 -218.49,0 -441.34,67.52 -566.71,158.36 -139.34,100.96 -271.68,268.33 -271.68,453.42z"/>
   <path class="fil3" d="M23268.95 5989.5c0,645.04 136.31,1268.05 414.54,1692.81l148.43 202.76c66.02,78.53 94.38,111.25 181.24,181.34 373.78,301.64 833.87,347.31 1240.93,78.14 290.6,-192.15 468.75,-607.86 556.69,-938.8 26.14,-98.32 48.12,-212.11 62.15,-311.76 14.68,-104.47 35.84,-227.99 35.84,-338 -271,0 -90.7,-33.5 -226.46,521.3 -78.23,319.77 -184.92,612.29 -421.93,846.99 -265.53,262.96 -730.83,276.21 -986.66,-39.13 -377.53,-465.33 -370.3,-1452.38 -370.3,-2088.25 0,-452.57 44.21,-1123.53 195.73,-1503.69 88.68,-222.56 266.8,-467.68 552.03,-467.68 187.59,0 288.55,23.73 437.1,140.74 296.46,233.46 442.44,608.09 544.77,962.08 38.74,134 94.35,425.42 105.78,562.64l147.29 0c0,-304.79 -7.03,-585.5 -10.87,-895.47 -0.88,-72.11 -11.88,-127.17 -11.79,-214.84l-11.33 -668.42c-140.42,0 -132.93,-16.86 -181.44,79.11 -19.37,38.29 -35.75,67.78 -55.9,102.72 -182.28,316.19 -155.95,125.77 -503.78,-86.5 -81.46,-49.71 -112.12,-64.17 -209.01,-96.89 -400.58,-135.34 -824.17,82.5 -1068.31,384.98 -418.09,517.88 -564.73,1221.62 -564.73,1893.82z"/>
   <path class="fil3" d="M27075.73 8142.14c-278.65,0 -376.94,-208.69 -429.71,-465.33 -96.27,-467.94 -97.47,-1600.55 1.92,-2069.75 44.18,-208.59 150.22,-455.96 405.13,-455.96 489.46,0 482.13,875.58 486.72,1246.72 0.72,58.44 9.12,62.41 11.85,112.78l-57.23 1053.21c-34.64,253.13 -139.47,578.34 -418.68,578.34zm-1087.65 -1495.52c0,447.82 108.19,801.38 272.37,1087.2 43.43,75.63 180.75,268.62 260.13,329.02 83.54,63.62 111.25,111.47 260.39,170.14 273.12,107.37 554.28,52.22 767.33,-128.11 121.18,-102.59 218,-225.29 302.81,-365.64 136.28,-225.52 213.31,-477.61 250.85,-746.16 27.38,-195.86 32.88,-433.39 8.14,-621.7 -58.57,-445.73 -197.2,-843.83 -527.19,-1149.57 -302.39,-280.15 -768.27,-277.71 -1048.39,-0.1 -187.82,186.16 -295.13,337.42 -396.02,589.67 -100.83,252.12 -150.41,546.5 -150.41,835.27z"/>
   <path class="fil2" d="M21728.11 5117.12c144.75,0 244.37,-1.01 349.36,160.47 255.93,393.61 205.07,1896.06 116.36,2344.56 -21.98,111.02 -60.39,224.41 -111.96,307.27 -138.11,221.84 -635.34,354.54 -739.69,-409.69 -40.24,-294.83 -43.82,-385.37 -44.21,-669.56 -0.1,-79.8 -11.75,-143.09 -11.72,-237.53 0.07,-89.76 7.49,-154.16 11.39,-226.53 4.17,-76.87 -2.73,-160.7 -0.42,-238.35l16.44 -221.48c11.26,-77.09 15.14,-158.26 25.82,-223.44 28.62,-174.76 79.76,-404.09 210.48,-514.62 38.61,-32.65 111.73,-71.1 178.15,-71.1zm-1019.67 1416.21c0,466.37 68.4,823.91 269.63,1157.91 77.68,128.89 182.15,270.77 295.09,362.06 306.33,247.63 681.18,260.36 989.23,11.33 115.9,-93.7 213.77,-221.25 295.03,-350.8 80.81,-128.83 146.18,-277.12 194.53,-439.9 181.14,-610.14 101.09,-1460.33 -324.75,-1960.82l-72.96 -85.66c-46.56,-50.85 -209.57,-167.24 -279.56,-196.28 -806.79,-334.58 -1366.24,691.66 -1366.24,1502.16z"/>
   <path class="fil3" d="M38789.75 6725.93l-1.95 -45.32c8.59,-89.43 2.28,-182.12 2.41,-272.3 0.1,-62.25 9.02,-72.86 11.79,-124.17 9.02,-167.11 0.2,-165.97 21.55,-386.32 8.69,-89.76 18.2,-170.95 33.86,-249.38 39.1,-196.09 124.3,-441.63 330.78,-484.96 441.37,-92.66 537.7,471.61 553.92,803.59 8.46,173.46 22.85,337.97 22.85,520.94 0,175.64 20.32,391.56 -11.33,547.31 13.84,25.2 7.2,159.36 -11.33,191.92 0,238.48 -47.66,523.41 -128.14,684.8 -120.1,240.98 -347.38,295.65 -538.45,171.61 -184.47,-119.71 -243.23,-511.72 -261.79,-757.92l-24.16 -599.79zm1346.87 895.05c9.9,-48.18 49.19,-120.56 68.04,-172.22 20.15,-55.12 43.46,-121.53 56.55,-179 41.22,-69.48 82.08,-438.28 81.59,-566.45 -0.91,-240.4 -16.44,-394.36 -55.61,-590.25 -49.23,-246.23 -194.49,-575.24 -360.89,-760.75 -137.29,-153.11 -272.11,-276.11 -490.43,-325.27 -542.56,-122.15 -922.59,374.08 -1093.71,819.94 -231.28,602.62 -179.81,1525.83 259.35,2065.07 216.47,265.79 512.8,460.25 881.73,344.94 275.3,-86.08 450.45,-293.73 592.56,-529.08 22.53,-37.28 37.47,-74.78 60.82,-106.92z"/>
   <path class="fil3" d="M32117.44 6284.07c0,-258.63 -24.06,-1132.97 362.52,-1132.97 226.79,0 341.16,81.23 405.66,319.48 85.36,315.38 70.19,657.35 70.19,994.77l-838.36 0 0 -181.28zm-589.14 385.21c0,438.08 81,861.97 328.43,1212.41 12.96,18.39 21.16,33.92 37.44,53.16 154.51,182.84 371.5,354.57 631.14,354.57 192.44,0 336.5,-0.94 512.18,-110.95 200.68,-125.6 330.58,-315.44 409.89,-541.77l72.54 -280.05c16.73,-88.16 25.78,-75.56 -122.25,-75.56 -51.54,0 -49.78,144.65 -100.44,284.77 -95.39,263.9 -286.4,553.62 -601.97,553.62 -644.56,0 -577.81,-1042.56 -577.81,-1495.52l1393.55 0c0,-443.84 -37.57,-795.39 -238.41,-1143.81 -168.32,-291.97 -404.35,-476.3 -769.93,-476.3 -273.25,0 -473.67,179.48 -616.69,369 -52.32,69.31 -83.21,124.14 -123.52,205.01 -165.26,331.52 -234.15,698.14 -234.15,1091.43z"/>
   <path class="fil3" d="M12165.88 3780.24l-45.32 0 0 147.25c129.51,0 292.36,-22.17 340.41,90.15 22.69,53.03 33.47,170.3 33.47,249.74l0 3432.9c0,81.46 -9.05,227.77 -37.86,279.37 -53.72,96.11 -235.42,83.18 -336.02,83.18 0,110.59 -15.37,158.62 33.99,158.62l1223.61 0 0 -158.62c-261.98,0 -362.55,-3.39 -362.55,-283.24l0 -4044.7 -409.53 32.36c-72.76,8.14 -152.17,1.04 -216.7,9.86 -67.39,9.25 -153.54,3.13 -223.5,3.13z"/>
   <path class="fil3" d="M34326.73 5570.3c0,-733.3 79.08,-510.98 -328.56,-509.84 -72.24,0.23 -94.74,11.92 -169.72,11.59 -60.52,-0.23 -121.05,-0.07 -181.57,-0.29 -76.08,-0.26 -122.41,11.36 -181.24,11.36l0 135.96c213.38,0 362.58,-15.5 362.58,237.92l0 2367.91c0,253.42 -149.21,237.92 -362.58,237.92l0 158.62 1280.26 0c49.36,0 33.99,-48.02 33.99,-158.62 -263.87,0 -419.17,28.45 -419.17,-249.25l0 -1620.15c0,-315.28 148.72,-985.68 498.47,-985.68 47.53,0 57.82,20.61 79.31,45.32 -11.23,135.17 -192.6,163.82 -192.6,373.88 0,169.55 136.9,305.9 328.56,305.9 213.25,0 373.88,-212.43 373.88,-430.53 0,-335.53 -341.75,-611.64 -710.25,-427.01 -136.77,68.5 -220.21,169.33 -304.96,295.52l-106.39 199.47z"/>
   <path class="fil3" d="M35346.37 6544.66c0,506.29 25,845.63 272.43,1257.08 449.09,746.75 1395.25,642.9 1691.77,-357.86 17.06,-57.59 31.71,-153.47 52.48,-196.77l-169.95 0c-1.66,75.11 -66.02,232.71 -90.61,294.6 -97.44,245.41 -296.27,543.79 -611.84,543.79 -312.48,0 -422.52,-238.38 -485,-489.36 -111.28,-446.97 -153.05,-1941.61 136.93,-2283.26 263.38,-310.33 676.62,-111.8 676.62,76.15 0,136.57 -21.98,174.54 -124.66,328.56 -230.01,345.07 -28.1,611.8 226.63,611.8 342.04,0 438.9,-454.72 298.06,-785.2 -104.47,-245.18 -390.06,-529.04 -660.61,-529.04 -246.29,0 -415.49,15.76 -621.6,171.48 -377.98,285.52 -590.67,824.46 -590.67,1358.03z"/>
   <path class="fil3" d="M37193.11 5083.13l0 135.96c213.34,0 362.55,-15.5 362.55,237.92l0 2367.91c0,253.42 -149.21,237.92 -362.55,237.92l0 158.62 1257.6 0 0 -158.62c-92.2,0 -245.54,2.18 -303.56,-47.66 -44.96,-38.61 -58.99,-153.24 -58.99,-235.58l0 -2753.12 -895.05 56.65z"/>
   <path class="fil3" d="M31970.12 4811.21c22.53,30.73 33.08,26.63 67.33,46 118.34,66.84 65.54,62.7 265.3,3.39 130.06,-38.61 260.52,-80.81 383.55,-114.96 129.64,-35.98 244.57,-73.06 375.57,-111.6 176.29,-51.9 279.17,-81.65 279.17,-253.36 0,-90.57 -114.08,-158.58 -203.93,-158.58 -105.52,0 -329.67,148.69 -441.79,204 -111.9,55.18 -667.54,371.7 -725.2,385.11z"/>
   <path class="fil3" d="M38122.15 4063.45c0,-194.82 -138.85,-362.55 -294.57,-362.55 -161.19,0 -261.17,58.02 -324.33,219.5 -56.68,144.91 -5.6,284.12 72.18,372.58 213.12,242.35 546.72,29.53 546.72,-229.52z"/>
  </g>
 </g>
</svg>
