<?xml version="1.0" encoding="UTF-8"?>
<!DOCTYPE svg PUBLIC "-//W3C//DTD SVG 1.1//EN" "http://www.w3.org/Graphics/SVG/1.1/DTD/svg11.dtd">
<!-- Creator: CorelDRAW 2018 (64 Bit Versão de avaliação) -->
<svg xmlns="http://www.w3.org/2000/svg" xml:space="preserve" width="91.44mm" height="91.44mm" version="1.1" style="shape-rendering:geometricPrecision; text-rendering:geometricPrecision; image-rendering:optimizeQuality; fill-rule:evenodd; clip-rule:evenodd"
viewBox="0 0 9144 9144"
 xmlns:xlink="http://www.w3.org/1999/xlink">
 <defs>
  <style type="text/css">
   <![CDATA[
    .fil0 {fill:none}
    .fil3 {fill:#EC3337}
    .fil2 {fill:#116E4C}
    .fil1 {fill:url(#id0)}
   ]]>
  </style>
  <linearGradient id="id0" gradientUnits="userSpaceOnUse" x1="447.2" y1="4337.98" x2="1467.42" y2="4806.02">
   <stop offset="0" style="stop-opacity:1; stop-color:#FEEDE5"/>
   <stop offset="0.501961" style="stop-opacity:1; stop-color:#F79F83"/>
   <stop offset="1" style="stop-opacity:1; stop-color:#ED3237"/>
  </linearGradient>
 </defs>
 <g id="Camada_x0020_1">
  <metadata id="CorelCorpID_0Corel-Layer"/>
  <rect class="fil0" y="2667" width="9144" height="3810"/>
  <g id="_2516239407312">
   <path class="fil1" d="M1016.77 4505.46l202.07 -239.47 2.58 171.97 191.04 2.75 1.13 -672.34 -653.89 703.41 653.61 1007.06 -1.38 -331.81 -395.16 -641.57zm-323.17 -640.2l531.07 0.89 188.86 -200.99 -912.51 0 2.15 1381.7 188.92 0.89 1.51 -1182.49zm67.84 507.47l424.57 -453.26 -424.3 1 -0.27 452.26z"/>
   <path class="fil2" d="M8432.53 4731.63c36.39,56.32 0.99,115.7 -36.32,144.68 -40.87,31.74 -85.06,55.07 -136.83,75.68 -288.19,114.75 -766.18,160.91 -1089.39,185.7l-121.91 9.42c-8.8,0.46 -16.75,-0.57 -25.62,0.64 -24.22,3.32 -51.21,3.38 -74.75,4.05 -11.8,0.34 -11.92,2.2 -23.72,2.55l-203.17 9.34c-16.46,1.36 -35.79,-1.35 -52.06,0.48 -15.82,1.77 -31.29,2.06 -50.49,2.03 -21.08,-0.02 -33.24,2.53 -52.5,2.42 -37.05,-0.21 -68.24,2.38 -102.71,2.36l-78.8 -0.01c-10.82,0.58 -13.06,2.46 -26.18,2.48l-687.77 -2.46c-20.27,0.07 -30.36,-2.51 -50.13,-2.41 -17.51,0.09 -35.03,-0.05 -52.55,0.02 -20.81,0.08 -31.7,-2.48 -52.52,-2.4 -37.43,0.14 -66.5,-2.43 -102.68,-2.38l-101.29 -3.77c-16.49,-2.49 -34.56,-0.42 -51.61,-0.93 -18.26,-0.55 -18.67,-2.62 -50.09,-2.43 -49.67,0.28 -154.4,-10.02 -202.93,-9.6 -37.97,0.34 -89.47,-5.18 -126.55,-7.16 -21.17,-1.13 -49.85,0.48 -75.41,-3.39l-125.3 -8.41c-8.57,-0.7 -17.25,0.47 -25.79,-0.48l-98.32 -6.75c-12.42,-0.08 -13.12,-1.92 -23.8,-2.46l-469.74 -36.48c-14.4,-1.85 -31.39,-2.98 -48.24,-4.29 -31.23,-2.42 -66.3,-8.02 -98.07,-9.38 -31.01,-1.33 -64.23,-7.61 -95.52,-9.54 -63.17,-3.88 -217.66,-22.81 -286.74,-30.83 -127.35,-14.78 -254.35,-31.08 -377.78,-47.26 -126.43,-16.57 -247.3,-34.51 -370.74,-54.28 -102.34,-16.4 -248.07,-38.81 -350.77,-59.94l-10.84 -3.48c-35.35,5.61 -49.92,13.7 -90.04,4.02 -14.17,-3.42 -24.14,-7.57 -36.11,-13.9 -11.22,-5.95 -21.64,-14.93 -31.44,-18.78l-2.39 -2.39c-16.03,0 -159.21,-32.68 -178.07,-36.83 -29.95,-6.59 -59.61,-12.96 -87.46,-19.99 -15.42,-3.89 -28.75,-6.6 -44.43,-10.49 -11.46,-2.85 -33.71,-7.24 -44.23,-11.48l0.45 14.32c43.84,9.56 142.22,38.45 196.62,52.05 176.94,44.24 438.03,99.73 617.95,129.44 86.4,14.27 177.76,31.84 265.75,44.66 124.3,18.11 255.28,40.26 379.4,55.19 74.22,8.92 149.7,18.76 222.35,28.36 37.89,5 73.46,9.3 111.3,12.87 17.33,1.64 37.72,5.04 55.35,6.73l167.94 18.31c38.66,5.33 74.17,6.28 112.92,11.25l398.79 35.78c17.75,2.37 39.73,2.12 59.7,4.78l289.58 20.83c16.23,0.81 40.89,4.43 57.23,4.85 18.86,0.49 40.64,0.57 59.42,2.67 9.97,1.11 15.72,1.86 29.08,1.96 13.61,0.09 16.48,2.58 30.9,2.53l205.54 11.75c9.8,0.81 21.04,-0.25 30.99,0.04l117.28 6.9c9.12,1.02 21.3,0.33 30.75,0.29l90.6 4.91c37.03,1.11 87.49,-0.43 120.12,4.05 18.76,2.57 42,-0.41 61.44,0.64l119.37 4.79c18.81,-0.07 43.86,-1.38 61.97,0.12 36.06,2.98 85.68,-1.42 121.55,2.61 30.54,3.43 471.65,6.83 493.97,3.78 35.46,-4.87 82.77,-1.74 122.43,-1.74 78.83,0 163.97,-4.58 243.64,-4.69l59.62 -2.47c23.41,0.05 37.96,-2.44 62.08,-2.39 39.73,0.07 79.76,-5.02 119.42,-4.75l293.73 -16.68c18.34,-0.45 40.46,-4.78 59.63,-4.84 18.86,-0.05 39.18,-4.2 57.31,-4.77l171.24 -15.01c144.83,-18.09 294.43,-30.73 437.44,-59.22 145.35,-28.97 356.91,-68.03 482.67,-140.55 64.87,-37.4 148.81,-94.28 104.2,-183.25 -3.98,-7.95 -6.96,-12.53 -11.62,-19.41 -5.17,-7.63 -8.71,-10.4 -13.9,-17.15 -26.28,-34.1 -107.46,-86.74 -146.13,-105.05 -2.77,12.1 -7.68,26.11 -11.92,37.72 -3.98,10.89 -12.26,26.14 -14.35,36.3zm-283.86 -188.64c16.9,3.8 86.44,38.36 105.25,47.76l84.56 49.12c4.06,2.71 1.82,0.87 5.67,3.93 0.56,0.45 2.22,1.9 2.69,2.32 0.35,0.31 1.01,0.99 1.3,1.25 0.28,0.26 0.87,0.84 1.29,1.28 3.9,-6.87 5.3,-35.15 2.39,-40.45 -13.45,-9.57 -183.75,-73.27 -203.56,-74.76l0.41 9.55z"/>
   <path class="fil3" d="M2372.76 4841.47c-60.83,0 -80.52,-49.45 -90.96,-102.46 -19.52,-99.08 -28.53,-412.66 25.15,-493.44 34.64,-52.13 132.01,-61.45 153.49,80.79 17.52,116 16.27,279.38 0.56,395.61 -7.16,52.97 -29.6,119.5 -88.24,119.5zm-682.91 -145.66c9.48,6.59 96.17,34.3 102.67,35.82 0,94.43 -14.9,93.12 -107.45,93.12l0 33.43 322.63 0.27c17.63,-0.12 14.05,0.67 14.05,-33.7 -34.31,0 -91.2,5.2 -104.43,-22.12 -3.26,-6.73 -7.41,-26 -8.14,-35.19l-0.45 -14.32 0.8 -377.28c35.3,0 55.23,-1.56 81.93,8.81 72.14,28.01 92.37,104.53 92.37,186.99l31.04 0 0 -420.25c-48.24,0 -21.61,-7.14 -35.56,62.33 -17.93,89.23 -59.71,128.7 -169.79,128.7 0,-83.58 0,-167.15 0,-250.72 0,-129.72 -11.43,-140.28 109.86,-140.9 38.54,-0.2 77,8.8 102.69,21.47 57.96,28.59 93,75.2 111.19,139.53 7.96,28.14 20.11,73.05 20.11,106.45l14.32 0c-19.14,16.64 -35.29,33.85 -50.17,54.89 -42.66,60.35 -70.98,145.18 -71.52,222.17 -0.16,22.39 -5.46,16.18 -0.74,50.72 1.21,8.87 0.21,16.82 0.65,25.62 0.65,13.08 4.33,36.94 6.52,48.4 11.74,61.38 41.35,140.14 83.58,183.86 9.36,9.69 19.67,17.19 26.91,28l2.39 2.39c9.8,3.85 20.22,12.83 31.44,18.78 11.97,6.33 21.94,10.48 36.11,13.9 40.12,9.68 54.69,1.59 90.04,-4.02 8.77,-4.65 15.41,-6.58 24.04,-11.78 126.25,-76.24 162.4,-263.99 142.13,-402.72 -10.13,-69.25 -42.35,-155.94 -91.54,-204.55 -41.76,-41.28 -88.92,-73.7 -158.48,-59.37 -26.43,5.44 -34.82,11.28 -54.64,21.77 0,-96.03 -4.78,-193.06 -4.78,-288.92l-594.56 0 0 33.43c104.06,0 107.45,0.84 107.45,112.22l0 659.04c-19.64,-0.44 -84.52,-25.87 -102.67,-26.27z"/>
   <path class="fil3" d="M6045.2 4280.33c0,-23.85 -0.26,-47.84 0.04,-71.68 0.24,-18.77 3.86,-23.81 -10.02,-22.48 -55.46,5.33 -76.41,8.51 -135.71,8.17 -16.01,-0.09 -21.85,2.42 -35.78,2.42l0 28.65c72.89,0 78.79,2.76 78.79,100.29 0,60.62 4.47,436.12 -5.3,472.25 -8.14,30.05 -42.74,26.8 -73.49,26.8l0 33.43 241.16 0c10.4,0 7.17,-10.12 7.17,-33.43 -46.92,0 -59.7,-10.26 -59.7,-57.31l0 -343.84c0,-50.03 8.15,-133.17 41.14,-166.6 24.83,-25.17 35.24,-24.42 66.31,-24.42 34.81,0 45.37,48.42 45.37,78.79l0 458.46c0,15.48 -4.2,37.16 -12.9,44.41 -10.76,8.97 -36.7,10.51 -53.96,10.51 0,23.31 -3.23,33.43 7.16,33.43l226.85 0c10.4,0 7.16,-10.12 7.16,-33.43 -62.48,0 -64.47,-18.28 -64.47,-100.29 0,-89.14 -4.81,-314.7 10.53,-390.61 11.98,-59.28 30.76,-101.27 94.53,-101.27 45.39,0 50.15,56.2 50.15,102.67l0 415.48c0,58.26 -8.91,74.02 -59.7,74.02l0 33.43 238.78 0c10.4,0 7.17,-10.12 7.17,-33.43 -58.81,0 -68.99,-2.68 -75.12,-44.27 -3.85,-26.09 -1.29,-272.79 -1.29,-311.51 0,-74.38 1.16,-134.34 -14.28,-193.46 -15.96,-61.05 -55.95,-95.46 -121.83,-95.46 -42.36,0 -63.03,15.59 -87.37,34.4 -8.26,6.38 -7.54,7.72 -13.66,15l-25.55 36.52c-3.84,7.52 -5.39,14.36 -11.91,19.14 -2.11,-25.31 -24.36,-56.83 -41.14,-73.48 -43.43,-43.08 -120.57,-42.12 -168.42,2.41 -28.56,26.57 -29.64,32.44 -46.79,60.67 -2.97,4.9 -0.86,2.1 -3.92,5.62z"/>
   <path class="fil3" d="M2828.83 3922.16l-11.94 0 0 31.04c61.31,0 78.8,-6.07 78.8,76.41l0 716.34c0,17.31 -2.27,49.93 -8.25,61 -10.75,19.9 -47.12,17.8 -70.55,17.8 0,23.31 -3.24,33.43 7.16,33.43l257.89 0 0 -33.43c-57.29,0 -76.41,-0.02 -76.41,-59.69l0 -322.36c0,-68.29 23.23,-217.29 109.83,-217.29 49.1,0 59.7,48.44 59.7,97.9l0 441.75c0,54.85 -17.56,59.69 -69.25,59.69 0,23.31 -3.23,33.43 7.17,33.43l241.16 0c10.41,0 7.17,-10.12 7.17,-33.43 -84.51,0 -76.41,-6.81 -76.41,-148.04 0,-69.25 0,-138.5 0,-207.74 0,-71.52 2.85,-139.22 -14.02,-193.73 -18.25,-58.98 -49.79,-95.19 -122.09,-95.19 -35.19,0 -71.84,16.8 -90.18,33.98 -32.78,30.7 -33.75,36.91 -51.36,70.42l-1.71 -347.98c0.31,-36.72 4.2,-23.38 -40.59,-21.45l-100.23 7.22c-11.64,0.35 -24.14,-0.08 -35.89,-0.08z"/>
   <path class="fil2" d="M4106.3 4815.2c-30.25,0 -42.75,-7.79 -59.29,-33.83 -45.41,-71.51 -39.59,-397.26 -20.9,-480.94 11.5,-51.5 28.71,-86.96 82.58,-86.96 64.74,0 82.83,108.45 89.75,158.58 4.68,33.86 4.93,78.73 8.02,116.15 2.77,33.39 -2.97,86.95 -4.63,121.67 -2.68,56.3 -21.34,205.33 -95.53,205.33zm19.1 -900.2l0 26.26c83.64,0 78.8,8.13 78.8,128.95 0,62.88 0,125.75 0,188.63l-19.55 -30.59c-53.22,-78.5 -143.17,-68.63 -191.21,-20.18 -25.92,26.14 -41.73,45.4 -57.51,78.59 -57.35,120.62 -58.79,327.5 -7.71,448.73 22.25,52.78 68.07,125.18 132.71,125.18 39.04,0 76.7,-7.12 103.05,-40.23 28.58,-35.9 25.16,-37.37 41.66,-70.57l3.34 98.86 181.47 0 0 -31.04c-63.36,0 -76.46,3.21 -76.41,-74.02l0 -780.81c0,-22.86 4.64,-54.92 -7.16,-54.92l-174.31 0c-5.5,0 -7.17,1.66 -7.17,7.16z"/>
   <path class="fil3" d="M3514.13 4815.2c-73.75,0 -74.02,-86.96 -74.02,-143.27 0,-127.32 26.74,-136.34 113.84,-179.85 27.05,-13.51 38.67,-25.23 60.46,-39.83 0,72.21 4.01,162.78 -4.89,226.72 -7.04,50.52 -37.42,136.23 -95.39,136.23zm-162.37 -506.21l0 26.26c0,36.47 31.1,76.41 66.86,76.41l11.93 0c33.35,0 64.47,-32.94 64.47,-74.02 0,-56.49 -59.69,-57.32 -59.69,-76.41 0,-17.73 2.23,-27.59 22.43,-39.65 34.6,-20.66 113.97,-23.5 140.81,29.23 20.08,39.46 15.84,110.13 15.84,160.85 0,7.86 -24.02,21.16 -30.28,24.63 -13.66,7.57 -22.62,13 -37.95,19.36 -8.09,3.36 -11.66,5.66 -19.74,8.92 -66.91,26.93 -154.85,51.29 -191.27,121.53 -36.37,70.13 -27.98,189.35 45.78,250.05 68.69,56.54 165.39,33.1 211.04,-36.21 6.48,-9.84 21.42,-29.95 22.42,-42.05l4.78 0c0,49.9 37.19,109.84 100.29,109.84 97.9,0 102.67,-100.39 102.67,-179.08l-31.04 0c0,35.54 -0.35,107.36 -20.98,124.68 -14.94,12.53 -31.91,4.44 -38.38,-10.4 -6.66,-15.27 -7.55,-32.91 -7.5,-54.59 0.19,-83.56 0,-167.15 0,-250.72 0,-186.06 16.97,-317.57 -195.8,-317.57 -46.04,0 -93.01,14.23 -119.43,33.37 -29.37,21.28 -57.26,56.56 -57.26,95.57z"/>
   <path class="fil3" d="M4877.56 4387.78c0,135.95 28.73,267.25 87.37,356.77l31.28 42.74c13.92,16.54 19.89,23.45 38.2,38.21 78.78,63.58 175.74,73.2 261.53,16.48 61.25,-40.51 98.8,-128.12 117.33,-197.86 5.51,-20.73 10.14,-44.71 13.09,-65.71 3.1,-22.02 7.56,-48.05 7.56,-71.24 -57.11,0 -19.11,-7.06 -47.73,109.87 -16.49,67.39 -38.97,129.04 -88.92,178.51 -55.97,55.42 -154.03,58.21 -207.95,-8.25 -79.57,-98.07 -78.04,-306.1 -78.04,-440.11 0,-95.38 9.32,-236.79 41.25,-316.92 18.69,-46.9 56.23,-98.56 116.34,-98.56 39.54,0 60.82,5.01 92.12,29.66 62.49,49.21 93.26,128.16 114.82,202.76 8.16,28.25 19.89,89.67 22.29,118.59l31.05 0c0,-64.24 -1.49,-123.4 -2.3,-188.73 -0.19,-15.19 -2.5,-26.8 -2.48,-45.27l-2.39 -140.88c-29.59,0 -28.02,-3.56 -38.24,16.67 -4.08,8.07 -7.53,14.29 -11.78,21.65 -38.42,66.64 -32.86,26.51 -106.18,-18.23 -17.16,-10.48 -23.62,-13.53 -44.04,-20.42 -84.43,-28.52 -173.71,17.39 -225.16,81.13 -88.12,109.16 -119.02,257.47 -119.02,399.14z"/>
   <path class="fil3" d="M5679.87 4841.47c-58.73,0 -79.44,-43.98 -90.57,-98.08 -20.29,-98.61 -20.54,-337.32 0.41,-436.21 9.31,-43.97 31.65,-96.09 85.38,-96.09 103.16,0 101.61,184.53 102.58,262.75 0.15,12.31 1.92,13.15 2.49,23.77l-12.05 221.97c-7.31,53.35 -29.4,121.89 -88.24,121.89zm-229.23 -315.19c0,94.38 22.79,168.89 57.4,229.13 9.15,15.94 38.1,56.61 54.82,69.34 17.61,13.41 23.45,23.5 54.88,35.86 57.56,22.63 116.82,11 161.72,-27 25.54,-21.62 45.95,-47.48 63.82,-77.06 28.72,-47.53 44.95,-100.66 52.87,-157.26 5.77,-41.28 6.93,-91.34 1.71,-131.03 -12.35,-93.94 -41.56,-177.84 -111.11,-242.28 -63.73,-59.04 -161.91,-58.53 -220.95,-0.02 -39.58,39.23 -62.2,71.11 -83.46,124.28 -21.25,53.13 -31.7,115.17 -31.7,176.04z"/>
   <path class="fil2" d="M4552.82 4203.92c30.5,0 51.5,-0.21 73.63,33.82 53.94,82.96 43.22,399.61 24.52,494.14 -4.63,23.39 -12.72,47.29 -23.59,64.75 -29.11,46.76 -133.91,74.72 -155.89,-86.35 -8.49,-62.13 -9.24,-81.22 -9.32,-141.11 -0.03,-16.81 -2.48,-30.15 -2.47,-50.06 0,-18.92 1.57,-32.49 2.4,-47.74 0.87,-16.2 -0.58,-33.87 -0.09,-50.24l3.46 -46.67c2.38,-16.25 3.19,-33.36 5.45,-47.09 6.02,-36.84 16.81,-85.17 44.35,-108.46 8.14,-6.89 23.55,-14.99 37.55,-14.99zm-214.9 298.48c0,98.29 14.42,173.64 56.83,244.03 16.37,27.17 38.38,57.07 62.18,76.31 64.57,52.19 143.57,54.87 208.49,2.39 24.43,-19.75 45.06,-46.63 62.18,-73.93 17.03,-27.16 30.81,-58.41 41,-92.72 38.18,-128.59 21.3,-307.77 -68.45,-413.25l-15.37 -18.05c-9.81,-10.72 -44.16,-35.26 -58.92,-41.37 -170.03,-70.52 -287.94,145.77 -287.94,316.59z"/>
   <path class="fil3" d="M8148.67 4542.99l-0.41 -9.55c1.81,-18.85 0.48,-38.39 0.51,-57.39 0.02,-13.12 1.9,-15.36 2.48,-26.17 1.9,-35.22 0.04,-34.98 4.55,-81.42 1.83,-18.91 3.83,-36.03 7.13,-52.56 8.24,-41.33 26.2,-93.07 69.72,-102.21 93.02,-19.53 113.32,99.4 116.74,169.36 1.78,36.56 4.82,71.23 4.82,109.8 -0.01,37.01 4.27,82.52 -2.39,115.34 2.91,5.31 1.51,33.59 -2.39,40.46 0,50.25 -10.05,110.31 -27.01,144.32 -25.31,50.79 -73.21,62.31 -113.48,36.17 -38.88,-25.23 -51.26,-107.86 -55.17,-159.74l-5.1 -126.41zm283.86 188.64c2.09,-10.16 10.37,-25.41 14.35,-36.3 4.24,-11.61 9.15,-25.62 11.92,-37.72 8.68,-14.65 17.29,-92.37 17.19,-119.39 -0.19,-50.66 -3.47,-83.11 -11.72,-124.4 -10.37,-51.89 -40.99,-121.23 -76.06,-160.33 -28.94,-32.27 -57.35,-58.19 -103.37,-68.56 -114.34,-25.74 -194.44,78.84 -230.5,172.81 -48.74,127.01 -37.89,321.58 54.66,435.23 45.62,56.01 108.08,97 185.83,72.69 58.02,-18.14 94.94,-61.9 124.89,-111.5 4.75,-7.86 7.89,-15.76 12.81,-22.53z"/>
   <path class="fil3" d="M6742.44 4449.87c0,-54.51 -5.07,-238.78 76.41,-238.78 47.79,0 71.89,17.11 85.49,67.33 17.99,66.46 14.79,138.54 14.79,209.65l-176.69 0 0 -38.2zm-124.17 81.18c0,92.33 17.07,181.67 69.22,255.52 2.73,3.88 4.46,7.15 7.89,11.21 32.57,38.53 78.3,74.72 133.02,74.72 40.56,0 70.92,-0.2 107.95,-23.37 42.29,-26.48 69.67,-66.49 86.39,-114.19l15.28 -59.02c3.53,-18.58 5.44,-15.93 -25.76,-15.93 -10.87,0 -10.5,30.49 -21.17,60.02 -20.11,55.62 -60.36,116.68 -126.88,116.68 -135.83,0 -121.77,-219.73 -121.77,-315.19l293.7 0c0,-93.54 -7.92,-167.64 -50.25,-241.07 -35.47,-61.53 -85.22,-100.38 -162.27,-100.38 -57.59,0 -99.82,37.82 -129.96,77.77 -11.03,14.61 -17.54,26.16 -26.04,43.21 -34.83,69.86 -49.35,147.13 -49.35,230.02z"/>
   <path class="fil3" d="M2537.52 3922.16l-9.56 0 0 31.04c27.3,0 61.62,-4.67 71.75,19 4.78,11.18 7.05,35.9 7.05,52.64l0 723.5c0,17.17 -1.91,48.01 -7.98,58.88 -11.32,20.26 -49.62,17.53 -70.82,17.53 0,23.31 -3.23,33.43 7.17,33.43l257.88 0 0 -33.43c-55.21,0 -76.41,-0.71 -76.41,-59.69l0 -852.45 -86.31 6.81c-15.33,1.73 -32.07,0.22 -45.67,2.09 -14.21,1.95 -32.36,0.65 -47.1,0.65z"/>
   <path class="fil3" d="M7208.06 4299.44c0,-154.56 16.67,-107.7 -69.25,-107.46 -15.22,0.05 -19.96,2.51 -35.76,2.45 -12.76,-0.05 -25.51,-0.02 -38.27,-0.07 -16.04,-0.05 -25.8,2.4 -38.2,2.4l0 28.65c44.97,0 76.42,-3.26 76.42,50.15l0 499.05c0,53.41 -31.45,50.14 -76.42,50.14l0 33.43 269.83 0c10.4,0 7.16,-10.12 7.16,-33.43 -55.61,0 -88.35,6 -88.35,-52.53l0 -341.46c0,-66.45 31.35,-207.73 105.06,-207.73 10.02,0 12.19,4.34 16.72,9.55 -2.37,28.48 -40.59,34.52 -40.59,78.79 0,35.74 28.85,64.47 69.24,64.47 44.94,0 78.8,-44.77 78.8,-90.73 0,-70.72 -72.03,-128.91 -149.69,-90 -28.83,14.44 -46.41,35.69 -64.27,62.28l-22.43 42.05z"/>
   <path class="fil3" d="M7422.96 4504.79c0,106.7 5.27,178.22 57.42,264.93 94.64,157.39 294.05,135.49 356.55,-75.42 3.59,-12.14 6.68,-32.35 11.06,-41.47l-35.82 0c-0.35,15.83 -13.92,49.04 -19.09,62.09 -20.54,51.72 -62.45,114.6 -128.95,114.6 -65.86,0 -89.05,-50.24 -102.22,-103.13 -23.45,-94.2 -32.25,-409.2 28.86,-481.21 55.51,-65.4 142.6,-23.56 142.6,16.05 0,28.78 -4.63,36.78 -26.27,69.24 -48.47,72.73 -5.92,128.95 47.76,128.95 72.09,0 92.51,-95.84 62.82,-165.49 -22.02,-51.68 -82.21,-111.5 -139.22,-111.5 -51.92,0 -87.57,3.32 -131.01,36.14 -79.67,60.17 -124.49,173.76 -124.49,286.22z"/>
   <path class="fil3" d="M7812.17 4196.76l0 28.65c44.97,0 76.41,-3.26 76.41,50.15l0 499.05c0,53.41 -31.44,50.14 -76.41,50.14l0 33.43 265.05 0 0 -33.43c-19.43,0 -51.75,0.46 -63.98,-10.04 -9.48,-8.15 -12.43,-32.3 -12.43,-49.65l0 -580.24 -188.64 11.94z"/>
   <path class="fil3" d="M6711.39 4139.45c4.75,6.48 6.97,5.61 14.19,9.69 24.95,14.09 13.81,13.22 55.92,0.72 27.41,-8.14 54.9,-17.03 80.83,-24.23 27.32,-7.58 51.55,-15.4 79.15,-23.52 37.16,-10.94 58.84,-17.21 58.84,-53.39 0,-19.1 -24.04,-33.43 -42.98,-33.43 -22.24,0 -69.48,31.34 -93.11,42.99 -23.58,11.64 -140.69,78.34 -152.84,81.17z"/>
   <path class="fil3" d="M8007.97 3981.86c0,-41.07 -29.26,-76.41 -62.08,-76.41 -33.97,0 -55.04,12.22 -68.36,46.26 -11.94,30.53 -1.18,59.87 15.22,78.52 44.91,51.07 115.22,6.22 115.22,-48.37z"/>
  </g>
 </g>
</svg>
