<?xml version="1.0" encoding="UTF-8"?>
<!DOCTYPE svg PUBLIC "-//W3C//DTD SVG 1.1//EN" "http://www.w3.org/Graphics/SVG/1.1/DTD/svg11.dtd">
<!-- Creator: CorelDRAW 2018 (64 Bit Versão de avaliação) -->
<svg xmlns="http://www.w3.org/2000/svg" xml:space="preserve" width="91.44mm" height="91.44mm" version="1.1" style="shape-rendering:geometricPrecision; text-rendering:geometricPrecision; image-rendering:optimizeQuality; fill-rule:evenodd; clip-rule:evenodd"
viewBox="0 0 9144 9144"
 xmlns:xlink="http://www.w3.org/1999/xlink">
 <defs>
  <style type="text/css">
   <![CDATA[
    .fil0 {fill:none}
    .fil22 {fill:url(#id0)}
    .fil19 {fill:url(#id1)}
    .fil16 {fill:url(#id2)}
    .fil18 {fill:url(#id3)}
    .fil11 {fill:url(#id4)}
    .fil17 {fill:url(#id5)}
    .fil9 {fill:url(#id6)}
    .fil7 {fill:url(#id7)}
    .fil15 {fill:url(#id8)}
    .fil14 {fill:url(#id9)}
    .fil20 {fill:url(#id10)}
    .fil2 {fill:url(#id11)}
    .fil10 {fill:url(#id12)}
    .fil8 {fill:url(#id13)}
    .fil21 {fill:url(#id14)}
    .fil13 {fill:url(#id15)}
    .fil12 {fill:url(#id16)}
    .fil6 {fill:url(#id17)}
    .fil4 {fill:url(#id18);fill-rule:nonzero}
    .fil3 {fill:url(#id19);fill-rule:nonzero}
    .fil1 {fill:url(#id20);fill-rule:nonzero}
    .fil5 {fill:url(#id21);fill-rule:nonzero}
   ]]>
  </style>
  <linearGradient id="id0" gradientUnits="userSpaceOnUse" x1="7527.23" y1="5301.61" x2="7670.42" y2="5301.61">
   <stop offset="0" style="stop-opacity:1; stop-color:#19308A"/>
   <stop offset="1" style="stop-opacity:1; stop-color:#0C6EB8"/>
  </linearGradient>
  <linearGradient id="id1" gradientUnits="userSpaceOnUse" xlink:href="#id0" x1="1384.27" y1="5588.36" x2="1409.74" y2="5588.36">
  </linearGradient>
  <linearGradient id="id2" gradientUnits="userSpaceOnUse" xlink:href="#id0" x1="2477.75" y1="5588.36" x2="2775.69" y2="5588.36">
  </linearGradient>
  <linearGradient id="id3" gradientUnits="userSpaceOnUse" xlink:href="#id0" x1="1603.97" y1="5588.65" x2="1901.91" y2="5588.65">
  </linearGradient>
  <linearGradient id="id4" gradientUnits="userSpaceOnUse" xlink:href="#id0" x1="5625.96" y1="5588.65" x2="5994.99" y2="5588.65">
  </linearGradient>
  <linearGradient id="id5" gradientUnits="userSpaceOnUse" xlink:href="#id0" x1="2016.14" y1="5588.36" x2="2337.77" y2="5588.36">
  </linearGradient>
  <linearGradient id="id6" gradientUnits="userSpaceOnUse" xlink:href="#id0" x1="6578.26" y1="5588.65" x2="6876.2" y2="5588.65">
  </linearGradient>
  <linearGradient id="id7" gradientUnits="userSpaceOnUse" xlink:href="#id0" x1="7883.3" y1="5588.65" x2="8252.32" y2="5588.65">
  </linearGradient>
  <linearGradient id="id8" gradientUnits="userSpaceOnUse" xlink:href="#id0" x1="2924.36" y1="5588.56" x2="3305.22" y2="5588.56">
  </linearGradient>
  <linearGradient id="id9" gradientUnits="userSpaceOnUse" xlink:href="#id0" x1="3420.38" y1="5588.59" x2="3802.35" y2="5588.59">
  </linearGradient>
  <linearGradient id="id10" gradientUnits="userSpaceOnUse" xlink:href="#id0" x1="891.69" y1="5588.65" x2="1189.63" y2="5588.65">
  </linearGradient>
  <linearGradient id="id11" gradientUnits="userSpaceOnUse" xlink:href="#id0" x1="6974.09" y1="4102.05" x2="8276.99" y2="4102.05">
  </linearGradient>
  <linearGradient id="id12" gradientUnits="userSpaceOnUse" xlink:href="#id0" x1="6145.32" y1="5588.36" x2="6443.26" y2="5588.36">
  </linearGradient>
  <linearGradient id="id13" gradientUnits="userSpaceOnUse" xlink:href="#id0" x1="6990.43" y1="5588.36" x2="7312.07" y2="5588.36">
  </linearGradient>
  <linearGradient id="id14" gradientUnits="userSpaceOnUse" xlink:href="#id0" x1="7401.52" y1="5588.59" x2="7783.5" y2="5588.59">
  </linearGradient>
  <linearGradient id="id15" gradientUnits="userSpaceOnUse" xlink:href="#id0" x1="3903.87" y1="5588.65" x2="4201.81" y2="5588.65">
  </linearGradient>
  <linearGradient id="id16" gradientUnits="userSpaceOnUse" xlink:href="#id0" x1="5011.72" y1="5588.36" x2="5309.66" y2="5588.36">
  </linearGradient>
  <linearGradient id="id17" gradientUnits="userSpaceOnUse" xlink:href="#id0" x1="4536.07" y1="5588.65" x2="4858.52" y2="5588.65">
  </linearGradient>
  <linearGradient id="id18" gradientUnits="userSpaceOnUse" xlink:href="#id0" x1="5279.82" y1="4101.01" x2="5332.93" y2="4101.01">
  </linearGradient>
  <linearGradient id="id19" gradientUnits="userSpaceOnUse" xlink:href="#id0" x1="4053.07" y1="4102.06" x2="5079.22" y2="4102.06">
  </linearGradient>
  <linearGradient id="id20" gradientUnits="userSpaceOnUse" xlink:href="#id0" x1="867.01" y1="4101.01" x2="3822.17" y2="4101.01">
  </linearGradient>
  <linearGradient id="id21" gradientUnits="userSpaceOnUse" xlink:href="#id0" x1="5517.56" y1="4102.06" x2="6797.58" y2="4102.06">
  </linearGradient>
 </defs>
 <g id="Camada_x0020_1">
  <metadata id="CorelCorpID_0Corel-Layer"/>
  <rect class="fil0" y="2667" width="9144" height="3810"/>
  <path class="fil1" d="M2942.49 4737.51c-158.08,0 -302.25,-58.02 -413.33,-153.3 213.57,-246.16 672.68,-681.16 672.68,-681.16 170.26,-113.53 382.57,14.47 375.82,136.85 0.09,26.66 1.33,35.74 1.33,61.11 0,351.62 -285.12,636.5 -636.5,636.5zm-644.82 -254.73c-116.58,135.92 -357.72,254.73 -550.82,254.73 -130.66,0 -251.99,-39.4 -352.9,-106.78 241.54,-95.89 955.38,-844.92 968.98,-858.9 171.86,-179.03 328.21,-307.24 579.56,-307.24 141.72,0 321.3,81.81 427.16,160.17 1.97,1.58 -117.07,-75.22 -304.9,65.5 -102.72,93.74 -514.32,492.24 -686.59,699.77l-80.49 92.75zm-1186.79 -368.98c0,-4.47 -0.61,-8.49 -0.61,-12.79 0,-351.38 284.96,-636.42 636.58,-636.42 137.49,0 264.86,43.75 368.83,118.08 7.03,5.1 23.76,7.48 20.45,14.88 -41.69,95.84 -410.26,452.32 -667.32,655.22 -210.75,193.34 -334.22,27.99 -357.93,-138.97zm1831.61 -892.47c-226.07,0 -438.46,87.63 -597.85,235.54 -159.49,-147.91 -371.8,-235.54 -597.79,-235.54 -485.21,0 -879.84,394.67 -879.84,879.68 0,485.09 394.63,879.68 879.84,879.68 225.99,0 438.3,-87.72 597.79,-235.58 159.39,147.86 371.78,235.58 597.85,235.58 484.98,0 879.68,-394.59 879.68,-879.68 0,-485.01 -394.7,-879.68 -879.68,-879.68z"/>
  <g id="_2516127438544">
   <path class="fil2" d="M7019.63 4124.95c9.29,229.23 115.22,444.39 316.52,563.04 87.87,51.78 186.87,79.04 288.86,79.54 222.15,1.08 393.72,-85.71 527.73,-262.29l0.97 -1.28 36.76 27.56 -0.95 1.29c-139.38,189.28 -330.06,281.58 -564.45,280.55 -106.71,-0.48 -210.6,-28.36 -303.3,-81.19 -224.69,-128.04 -347.68,-375.42 -347.68,-630.13 0,-256.37 124.74,-506.33 352.19,-633.38 91.58,-51.16 193.84,-77.93 298.76,-77.93 98.3,0 194.54,23.83 281.71,69.2 237.1,123.4 370.24,379.05 370.24,642.11l0 22.91 -1257.36 0zm-5.59 -40.42l1222.53 0c-0.37,-176.42 -59.95,-336.94 -182.33,-465.25 -112.83,-118.29 -264.59,-188.13 -429.2,-188.13 -50.14,0 -100.09,6.51 -148.54,19.48 -48.46,12.98 -94.98,32.35 -138.43,57.42 -96.57,55.72 -174.61,136.54 -229.96,232.99 -62.06,108.16 -89.09,219.61 -94.07,343.49z"/>
   <path class="fil3" d="M5034.82 3753.39l0 26.55 -53.11 0 0 -26.55c0,-89.51 -46.22,-169.38 -120.51,-227.12 -75.62,-58.77 -180.27,-94.65 -295.05,-94.65 -114.77,0 -219.43,35.88 -295.04,94.66 -74.3,57.73 -120.51,137.6 -120.51,227.11 0,153.46 215.43,234.07 437.93,317.32 241.78,90.47 491.78,184.03 490.69,380.04 0.02,100.99 -58.61,195.82 -153.44,264.84 -92.41,67.25 -219.28,110.04 -359.63,110.04 -143.07,0 -269.65,-42.03 -361.23,-108.67 -94.53,-68.8 -151.85,-163.86 -151.85,-266.21l0 -26.56 53.11 0 0 26.56c0,88.51 51.55,168.46 134.1,226.5 83.83,58.92 199.53,95.27 325.87,95.27 123.59,0 239.67,-37.13 324.37,-96.68 82.86,-58.25 135.6,-137.94 135.6,-225.09 0,-157.74 -217.72,-238.97 -441.48,-322.45 -239.6,-89.4 -486.03,-181.35 -487.13,-374.89 -0.02,-102.87 52.39,-197.47 138.21,-265.91 84.03,-67.03 200.19,-109 330.43,-109 130.25,0 246.4,41.97 330.44,108.99 85.81,68.45 138.23,163.05 138.23,265.9z"/>
   <polygon class="fil4" points="5279.81,3376.39 5332.93,3376.39 5332.93,4825.63 5279.81,4825.63 "/>
   <path class="fil5" d="M6135.24 4128.62l0 -53.11 635.78 0c7.81,0 14.42,2.69 19.13,7.4 4.74,4.74 7.43,11.35 7.43,19.16 0,200.24 -71.45,380.54 -186.38,511.03 -115.85,131.54 -275.88,212.53 -451.51,212.53 -176.71,0 -337.82,-81.02 -454.47,-212.59 -115.7,-130.49 -187.66,-310.76 -187.66,-510.97 0,-200.22 71.96,-380.48 187.66,-510.98 116.65,-131.57 277.76,-212.59 454.47,-212.59 115.32,-0.98 227.2,32.55 321.6,85.55 103.06,57.85 185.44,138.99 228.95,223.78 6.54,12.06 12.54,26.53 18.52,39.23l-58.03 0c-2.71,-4.37 -5.55,-8.75 -8.15,-13.16 -40.19,-78.22 -114.94,-151.9 -208.36,-204.38 -86.44,-48.57 -188.81,-78.93 -294.49,-77.93 -162.5,0.03 -309.79,74.9 -416.43,196.15 -106.61,121.23 -172.63,288.81 -172.63,474.33 0,185.51 66.02,353.1 172.63,474.32 106.64,121.25 253.93,196.13 416.39,196.13 160.31,0 305.67,-73.87 411.34,-191.09 105.98,-117.56 172.07,-278.74 173.41,-452.81l-609.2 0z"/>
  </g>
  <g id="_2516127430480">
   <path class="fil6" d="M4857.74 5588.66c8.77,98.75 -56.41,199.33 -159.7,207.88l-0.28 0.03 -148.96 0c-7.32,0 -12.73,-5.42 -12.73,-12.73l0 -390.36c0,-7.31 5.41,-12.73 12.73,-12.73l148.96 0 0.28 0.02c103.29,8.55 168.47,109.14 159.7,207.89zm-296.21 182.45l135.05 0c89.25,-8.13 142.97,-96.64 135.69,-181.28l-0.02 -0.29 0 -1.76 0.02 -0.3c7.28,-84.63 -46.44,-173.14 -135.69,-181.27l-135.05 0 0 364.9z"/>
   <path class="fil7" d="M7883.3 5588.66c0,-104.36 74.15,-207.91 184.51,-207.91 110.68,0 184.52,103.24 184.52,207.91 0,104.66 -73.84,207.91 -184.52,207.91 -110.36,0 -184.51,-103.55 -184.51,-207.91zm25.46 0c0,90.21 62.77,182.45 159.05,182.45 96.6,0 159.06,-91.93 159.06,-182.45 0,-90.52 -62.45,-182.45 -159.06,-182.45 -96.28,0 -159.05,92.24 -159.05,182.45z"/>
   <polygon class="fil8" points="7164.58,5405.61 7164.58,5796.57 7139.12,5796.57 7139.12,5405.61 6990.44,5405.61 6990.44,5380.15 7312.07,5380.15 7312.07,5405.61 "/>
   <path class="fil9" d="M6863.76 5491.02l0 12.73 -25.46 0 0 -12.73c0,-55.8 -62.3,-84.81 -111.07,-84.81 -48.77,0 -111.07,29.02 -111.07,84.81 0,84.07 260.45,85.23 260.04,195.3 -0.01,4 -0.33,7.98 -0.95,11.94 -10.24,65.77 -88.62,98.31 -148.02,98.31 -58.98,0 -134.93,-29.97 -147.46,-94.6 -1,-5.16 -1.51,-10.41 -1.51,-15.67l0 -12.73 25.46 0 0 12.73c0,4.69 0.57,9.35 1.68,13.91 12.1,49.53 76.68,70.9 121.83,70.9 45.2,0 112.02,-23.35 122.36,-73.59 0.77,-3.69 1.15,-7.45 1.15,-11.22 0,-85.93 -259.63,-85.75 -260.04,-195.26 -0.26,-70.24 73.47,-110.29 136.53,-110.29 63.15,0 136.53,40.07 136.53,110.27z"/>
   <path class="fil10" d="M6170.77 5405.61l0 170.02 199.63 0 0 25.46 -199.63 0 0 170.02 272.48 0 0 25.46 -285.21 0c-7.31,0 -12.73,-5.42 -12.73,-12.73l0 -390.95c0,-7.32 5.42,-12.74 12.73,-12.74l285.21 0 0 25.46 -272.48 0z"/>
   <path class="fil11" d="M5969.39 5601.39l-170.47 0 0 -25.46 183.33 0c7.31,0 12.73,5.42 12.73,12.73 0,104.24 -73.5,207.91 -183.92,207.91 -110.62,0 -185.1,-103.12 -185.1,-207.91 0,-104.91 74.54,-207.52 185.08,-207.91 60.11,-0.22 130.79,34.69 159,89.69l8.73 18.5 -27.56 0 -3.91 -6.32 -0.12 -0.24c-24.1,-46.89 -84.71,-76.37 -136.09,-76.17 -96.49,0.37 -159.67,91.65 -159.67,182.45 0,90.64 63.09,182.45 159.64,182.45 90.68,0 155.09,-83.64 158.33,-169.72z"/>
   <path class="fil12" d="M5037.18 5405.61l0 170.02 199.62 0 0 25.46 -199.62 0 0 170.02 272.48 0 0 25.46 -285.21 0c-7.32,0 -12.73,-5.42 -12.73,-12.73l0 -390.95c0,-7.32 5.41,-12.74 12.73,-12.74l285.21 0 0 25.46 -272.48 0z"/>
   <path class="fil13" d="M4189.36 5491.02l0 12.73 -25.45 0 0 -12.73c0,-55.8 -62.31,-84.81 -111.08,-84.81 -48.76,0 -111.07,29.02 -111.07,84.81 0,84.07 260.46,85.23 260.04,195.3 -0.01,4 -0.33,7.98 -0.95,11.94 -10.24,65.77 -88.62,98.31 -148.02,98.31 -58.98,0 -134.93,-29.97 -147.46,-94.6 -1,-5.16 -1.51,-10.41 -1.51,-15.67l0 -12.73 25.46 0 0 12.73c0,4.69 0.57,9.35 1.68,13.91 12.11,49.53 76.69,70.9 121.83,70.9 45.2,0 112.02,-23.35 122.37,-73.59 0.76,-3.69 1.15,-7.45 1.15,-11.22 0,-85.93 -259.64,-85.75 -260.04,-195.26 -0.27,-70.24 73.46,-110.29 136.52,-110.29 63.15,0 136.53,40.07 136.53,110.27z"/>
   <path class="fil14" d="M3451.27 5788.66l-2.64 7.91 -28.25 0 7.64 -17.84 171.76 -390.9c4.12,-9.61 18.95,-9.6 23.15,-0.06l171.81 391.02 7.61 17.78 -28.26 0 -2.63 -7.91 -160.1 -364.06 -160.09 364.06z"/>
   <path class="fil15" d="M3114.78 5753.15l165.59 -365.45c5.41,-11.93 24.24,-8.02 24.26,5.18l0.6 403.69 -25.46 0 0 -12.72 -0.55 -332.32 -152.84 337.36c-4.13,9.63 -19.04,9.63 -23.12,0.13l-153.45 -337.48 0 345.03 -25.46 0 0 -403.68c0,-13.2 18.84,-17.12 24.26,-5.19l166.17 365.45z"/>
   <path class="fil16" d="M2503.21 5405.61l0 170.02 199.62 0 0 25.46 -199.62 0 0 170.02 272.48 0 0 25.46 -285.21 0c-7.32,0 -12.73,-5.42 -12.73,-12.73l0 -390.95c0,-7.32 5.41,-12.74 12.73,-12.74l285.21 0 0 25.46 -272.48 0z"/>
   <polygon class="fil17" points="2190.27,5405.61 2190.27,5796.57 2164.82,5796.57 2164.82,5405.61 2016.13,5405.61 2016.13,5380.15 2337.77,5380.15 2337.77,5405.61 "/>
   <path class="fil18" d="M1889.46 5491.02l0 12.73 -25.45 0 0 -12.73c0,-55.8 -62.31,-84.81 -111.08,-84.81 -48.76,0 -111.07,29.02 -111.07,84.81 0,84.07 260.46,85.23 260.04,195.3 -0.01,4 -0.33,7.98 -0.95,11.94 -10.24,65.77 -88.62,98.31 -148.02,98.31 -58.98,0 -134.93,-29.97 -147.46,-94.6 -1,-5.16 -1.51,-10.41 -1.51,-15.67l0 -12.73 25.46 0 0 12.73c0,4.69 0.57,9.35 1.68,13.91 12.11,49.53 76.68,70.9 121.83,70.9 45.2,0 112.02,-23.35 122.36,-73.59 0.77,-3.69 1.16,-7.45 1.16,-11.22 0,-85.93 -259.64,-85.75 -260.05,-195.26 -0.26,-70.24 73.47,-110.29 136.53,-110.29 63.15,0 136.53,40.07 136.53,110.27z"/>
   <polygon class="fil19" points="1384.28,5796.57 1384.28,5380.15 1409.73,5380.15 1409.73,5796.57 "/>
   <path class="fil20" d="M1177.18 5491.02l0 12.73 -25.46 0 0 -12.73c0,-55.8 -62.3,-84.81 -111.07,-84.81 -48.77,0 -111.07,29.02 -111.07,84.81 0,84.07 260.46,85.23 260.04,195.3 -0.01,4 -0.33,7.98 -0.95,11.94 -10.24,65.77 -88.62,98.31 -148.02,98.31 -58.98,0 -134.93,-29.97 -147.46,-94.6 -1,-5.16 -1.51,-10.41 -1.51,-15.67l0 -12.73 25.46 0 0 12.73c0,4.69 0.57,9.35 1.68,13.91 12.1,49.53 76.68,70.9 121.83,70.9 45.2,0 112.02,-23.35 122.36,-73.59 0.77,-3.69 1.15,-7.45 1.15,-11.22 0,-85.93 -259.63,-85.75 -260.04,-195.26 -0.26,-70.24 73.47,-110.29 136.53,-110.29 63.15,0 136.53,40.07 136.53,110.27z"/>
   <path class="fil21" d="M7432.42 5788.66l-2.65 7.91 -28.24 0 7.64 -17.84 171.75 -390.9c4.13,-9.61 18.96,-9.6 23.16,-0.06l171.8 391.02 7.62 17.78 -28.27 0 -2.62 -7.91 -160.1 -364.06 -160.09 364.06z"/>
   <path class="fil22" d="M7670.32 5285.53c1.78,-16.99 -24.6,-16.73 -26.36,0.24 -3.35,41.27 -48.98,-1.2 -63.9,-6.59 -22.35,-8.07 -43.01,5.49 -51.65,26.22 -6.55,15.71 16.26,28.92 22.69,13.73 13.31,-31.42 34.67,-4.7 51.82,5.15 8.71,5.01 17.43,6.94 27.43,5.65 23.73,-3.08 38.08,-21.14 39.97,-44.4z"/>
  </g>
 </g>
</svg>
