<?xml version="1.0" encoding="UTF-8"?>
<!DOCTYPE svg PUBLIC "-//W3C//DTD SVG 1.1//EN" "http://www.w3.org/Graphics/SVG/1.1/DTD/svg11.dtd">
<!-- Creator: CorelDRAW 2018 (64 Bit Versão de avaliação) -->
<svg xmlns="http://www.w3.org/2000/svg" xml:space="preserve" width="133.539mm" height="42.164mm" version="1.1" style="shape-rendering:geometricPrecision; text-rendering:geometricPrecision; image-rendering:optimizeQuality; fill-rule:evenodd; clip-rule:evenodd"
viewBox="0 0 43475.66 13727.16"
 xmlns:xlink="http://www.w3.org/1999/xlink">
 <defs>
  <style type="text/css">
   <![CDATA[
    .fil0 {fill:none}
    .fil7 {fill:url(#id0)}
    .fil8 {fill:url(#id1)}
    .fil11 {fill:url(#id2)}
    .fil21 {fill:url(#id3)}
    .fil9 {fill:url(#id4)}
    .fil22 {fill:url(#id5)}
    .fil13 {fill:url(#id6)}
    .fil10 {fill:url(#id7)}
    .fil12 {fill:url(#id8)}
    .fil2 {fill:url(#id9)}
    .fil18 {fill:url(#id10)}
    .fil16 {fill:url(#id11)}
    .fil14 {fill:url(#id12)}
    .fil15 {fill:url(#id13)}
    .fil17 {fill:url(#id14)}
    .fil6 {fill:url(#id15)}
    .fil19 {fill:url(#id16)}
    .fil20 {fill:url(#id17)}
    .fil3 {fill:url(#id18);fill-rule:nonzero}
    .fil4 {fill:url(#id19);fill-rule:nonzero}
    .fil1 {fill:url(#id20);fill-rule:nonzero}
    .fil5 {fill:url(#id21);fill-rule:nonzero}
   ]]>
  </style>
  <linearGradient id="id0" gradientUnits="userSpaceOnUse" x1="35874.08" y1="11473.01" x2="37449.46" y2="11473.01">
   <stop offset="0" style="stop-opacity:1; stop-color:#314083"/>
   <stop offset="1" style="stop-opacity:1; stop-color:#1B7ABE"/>
  </linearGradient>
  <linearGradient id="id1" gradientUnits="userSpaceOnUse" xlink:href="#id0" x1="32062.36" y1="11471.74" x2="33435.43" y2="11471.74">
  </linearGradient>
  <linearGradient id="id2" gradientUnits="userSpaceOnUse" xlink:href="#id0" x1="26237.26" y1="11472.98" x2="27812.65" y2="11472.98">
  </linearGradient>
  <linearGradient id="id3" gradientUnits="userSpaceOnUse" xlink:href="#id0" x1="33817.32" y1="11472.72" x2="35447.98" y2="11472.72">
  </linearGradient>
  <linearGradient id="id4" gradientUnits="userSpaceOnUse" xlink:href="#id0" x1="30302.74" y1="11473.01" x2="31574.69" y2="11473.01">
  </linearGradient>
  <linearGradient id="id5" gradientUnits="userSpaceOnUse" xlink:href="#id0" x1="34354.02" y1="10247.58" x2="34965.23" y2="10247.58">
  </linearGradient>
  <linearGradient id="id6" gradientUnits="userSpaceOnUse" xlink:href="#id0" x1="18885.5" y1="11473.01" x2="20157.42" y2="11473.01">
  </linearGradient>
  <linearGradient id="id7" gradientUnits="userSpaceOnUse" xlink:href="#id0" x1="28454.43" y1="11471.74" x2="29726.39" y2="11471.74">
  </linearGradient>
  <linearGradient id="id8" gradientUnits="userSpaceOnUse" xlink:href="#id0" x1="23614.99" y1="11471.74" x2="24886.95" y2="11471.74">
  </linearGradient>
  <linearGradient id="id9" gradientUnits="userSpaceOnUse" xlink:href="#id0" x1="31992.55" y1="5126.52" x2="37554.78" y2="5126.52">
  </linearGradient>
  <linearGradient id="id10" gradientUnits="userSpaceOnUse" xlink:href="#id0" x1="9066.98" y1="11473.01" x2="10338.93" y2="11473.01">
  </linearGradient>
  <linearGradient id="id11" gradientUnits="userSpaceOnUse" xlink:href="#id0" x1="12797.25" y1="11471.74" x2="14069.2" y2="11471.74">
  </linearGradient>
  <linearGradient id="id12" gradientUnits="userSpaceOnUse" xlink:href="#id0" x1="16821.44" y1="11472.72" x2="18452.1" y2="11472.72">
  </linearGradient>
  <linearGradient id="id13" gradientUnits="userSpaceOnUse" xlink:href="#id0" x1="14703.86" y1="11472.62" x2="16329.84" y2="11472.62">
  </linearGradient>
  <linearGradient id="id14" gradientUnits="userSpaceOnUse" xlink:href="#id0" x1="10826.57" y1="11471.74" x2="12199.64" y2="11471.74">
  </linearGradient>
  <linearGradient id="id15" gradientUnits="userSpaceOnUse" xlink:href="#id0" x1="21584.41" y1="11473.01" x2="22961" y2="11473.01">
  </linearGradient>
  <linearGradient id="id16" gradientUnits="userSpaceOnUse" xlink:href="#id0" x1="8129.09" y1="11471.74" x2="8237.8" y2="11471.74">
  </linearGradient>
  <linearGradient id="id17" gradientUnits="userSpaceOnUse" xlink:href="#id0" x1="6026.16" y1="11473.01" x2="7298.15" y2="11473.01">
  </linearGradient>
  <linearGradient id="id18" gradientUnits="userSpaceOnUse" xlink:href="#id0" x1="19522.43" y1="5126.59" x2="23903.18" y2="5126.59">
  </linearGradient>
  <linearGradient id="id19" gradientUnits="userSpaceOnUse" xlink:href="#id0" x1="24759.52" y1="5122.1" x2="24986.28" y2="5122.1">
  </linearGradient>
  <linearGradient id="id20" gradientUnits="userSpaceOnUse" xlink:href="#id0" x1="5920.84" y1="5122.1" x2="18536.72" y2="5122.1">
  </linearGradient>
  <linearGradient id="id21" gradientUnits="userSpaceOnUse" xlink:href="#id0" x1="25774.51" y1="5126.52" x2="31239.03" y2="5126.52">
  </linearGradient>
 </defs>
 <g id="Camada_x0020_1">
  <metadata id="CorelCorpID_0Corel-Layer"/>
  <rect class="fil0" x="0.02" y="-0.03" width="43475.63" height="13727.16"/>
  <g id="_2032368323696">
   <path class="fil1" d="M14781.28 7839.37c-674.83,0 -1290.35,-247.69 -1764.54,-654.45 911.71,-1050.89 2871.75,-2907.96 2871.75,-2907.96 726.83,-484.67 1633.2,61.79 1604.36,584.26 0.39,113.79 5.7,152.56 5.7,260.88 0,1501.09 -1217.23,2717.27 -2717.27,2717.27zm-2752.79 -1087.46c-497.69,580.26 -1527.16,1087.46 -2351.53,1087.46 -557.79,0 -1075.77,-168.19 -1506.59,-455.86 1031.17,-409.37 4078.66,-3607.01 4136.71,-3666.72 733.7,-764.33 1401.14,-1311.64 2474.2,-1311.64 605.03,0 1371.67,349.27 1823.59,683.79 8.43,6.71 -499.81,-321.14 -1301.68,279.6 -438.47,400.22 -2195.68,2101.46 -2931.07,2987.39l-343.63 395.99zm-5066.56 -1575.25c0,-19.08 -2.57,-36.24 -2.57,-54.56 0,-1500.08 1216.51,-2716.95 2717.6,-2716.95 587,0 1130.72,186.78 1574.57,504.07 30.02,21.78 101.45,31.97 87.32,63.55 -177.95,409.14 -1751.45,1931 -2848.87,2797.2 -899.7,825.37 -1426.79,119.48 -1528.04,-593.31zm7819.35 -3810.03c-965.11,0 -1871.81,374.14 -2552.31,1005.58 -680.86,-631.44 -1587.23,-1005.58 -2552.01,-1005.58 -2071.41,0 -3756.12,1684.9 -3756.12,3755.47 0,2070.89 1684.71,3755.44 3756.12,3755.44 964.78,0 1871.16,-374.47 2552.01,-1005.74 680.5,631.27 1587.2,1005.74 2552.31,1005.74 2070.4,0 3755.44,-1684.54 3755.44,-3755.44 0,-2070.57 -1685.03,-3755.47 -3755.44,-3755.47z"/>
   <g>
    <path class="fil2" d="M32186.98 5224.29c39.65,978.62 491.87,1897.17 1351.26,2403.65 375.12,221.06 797.77,337.45 1233.15,339.57 948.37,4.66 1680.86,-365.87 2252.95,-1119.72l4.13 -5.47 156.92 117.66 -4.07 5.5c-595,808.02 -1409.02,1202.09 -2409.64,1197.69 -455.6,-2.02 -899.08,-121.08 -1294.84,-346.6 -959.22,-546.63 -1484.29,-1602.73 -1484.29,-2690.09 0,-1094.46 532.53,-2161.56 1503.53,-2703.99 390.97,-218.36 827.56,-332.7 1275.44,-332.7 419.69,0 830.55,101.74 1202.67,295.45 1012.22,526.8 1580.59,1618.19 1580.59,2741.23l0 97.8 -5367.8 0zm-23.86 -172.55l5219.08 0c-1.56,-753.16 -255.93,-1438.45 -778.4,-1986.21 -481.64,-504.99 -1129.55,-803.14 -1832.29,-803.14 -214.06,0 -427.31,27.77 -634.1,83.15 -206.9,55.44 -405.49,138.14 -591,245.15 -412.26,237.86 -745.45,582.89 -981.71,994.64 -264.95,461.75 -380.33,937.56 -401.59,1466.41z"/>
    <path class="fil3" d="M23713.64 3638.04l0 113.36 -226.76 0 0 -113.36c0,-382.08 -197.29,-723.05 -514.46,-969.57 -322.8,-250.88 -769.61,-404.09 -1259.58,-404.09 -489.98,0 -936.75,153.21 -1259.55,404.13 -317.2,246.49 -514.46,587.42 -514.46,969.54 0,655.17 919.69,999.29 1869.53,1354.71 1032.17,386.22 2099.48,785.62 2094.82,1622.39 0.1,431.18 -250.23,836.02 -655.04,1130.66 -394.52,287.08 -936.13,469.76 -1535.3,469.76 -610.79,0 -1151.17,-179.42 -1542.11,-463.93 -403.57,-293.69 -648.3,-699.51 -648.3,-1136.49l0 -113.36 226.76 0 0 113.36c0,377.88 220.05,719.18 572.48,966.96 357.86,251.56 851.78,406.73 1391.18,406.73 527.61,0 1023.16,-158.49 1384.76,-412.72 353.73,-248.7 578.92,-588.88 578.92,-960.97 0,-673.37 -929.52,-1020.19 -1884.73,-1376.56 -1022.86,-381.66 -2074.9,-774.2 -2079.62,-1600.45 -0.13,-439.16 223.66,-842.99 590.02,-1135.18 358.74,-286.14 854.61,-465.33 1410.64,-465.33 556.03,0 1051.9,179.19 1410.64,465.3 366.36,292.2 590.15,696.06 590.15,1135.12z"/>
    <polygon class="fil4" points="24759.55,2028.6 24986.28,2028.6 24986.28,8215.56 24759.55,8215.56 "/>
    <path class="fil5" d="M28411.46 5239.95l0 -226.72 2714.18 0c33.34,0 61.56,11.49 81.68,31.58 20.22,20.25 31.71,48.44 31.71,81.78 0,854.87 -305.06,1624.57 -795.65,2181.68 -494.6,561.54 -1177.77,907.29 -1927.58,907.29 -754.4,0 -1442.19,-345.88 -1940.18,-907.55 -493.92,-557.11 -801.12,-1326.71 -801.12,-2181.42 0,-854.74 307.2,-1624.28 801.12,-2181.39 497.99,-561.7 1185.78,-907.58 1940.18,-907.58 492.32,-4.2 969.93,138.98 1372.94,365.22 439.97,246.97 791.65,593.34 977.41,955.34 27.93,51.5 53.52,113.26 79.08,167.47l-247.76 0c-11.56,-18.65 -23.7,-37.34 -34.77,-56.16 -171.61,-333.93 -490.73,-648.49 -889.51,-872.55 -369.03,-207.32 -806.04,-336.96 -1257.21,-332.66 -693.72,0.1 -1322.55,319.74 -1777.79,837.39 -455.14,517.52 -736.95,1232.95 -736.95,2024.92 0,792 281.81,1507.44 736.95,2024.96 455.24,517.62 1084.07,837.29 1777.59,837.29 684.4,0 1304.93,-315.34 1756.07,-815.8 452.41,-501.89 734.54,-1189.94 740.27,-1933.08l-2600.69 0z"/>
   </g>
   <g>
    <path class="fil6" d="M22957.64 11473.01c37.44,421.58 -240.82,850.96 -681.77,887.46l-1.17 0.1 -635.96 0c-31.22,0 -54.3,-23.08 -54.3,-54.3l0 -1666.51c0,-31.22 23.08,-54.34 54.3,-54.34l635.96 0 1.17 0.1c440.95,36.5 719.21,465.88 681.77,887.49zm-1264.53 778.88l576.54 0c381.01,-34.71 610.34,-412.59 579.28,-773.9l-0.1 -1.24 0 -7.52 0.1 -1.24c31.06,-361.31 -198.27,-739.16 -579.28,-773.9l-576.54 0 0 1557.8z"/>
    <path class="fil7" d="M35874.08 11473.01c0,-445.5 316.52,-887.59 787.67,-887.59 472.49,0 787.71,440.75 787.71,887.59 0,446.81 -315.21,887.56 -787.71,887.56 -471.16,0 -787.67,-442.02 -787.67,-887.56zm108.67 0c0,385.11 267.97,778.88 679,778.88 412.43,0 679.03,-392.47 679.03,-778.88 0,-386.41 -266.61,-778.92 -679.03,-778.92 -411.06,0 -679,393.77 -679,778.92z"/>
    <polygon class="fil8" points="32805.75,10691.55 32805.75,12360.57 32697.08,12360.57 32697.08,10691.55 32062.36,10691.55 32062.36,10582.88 33435.43,10582.88 33435.43,10691.55 "/>
    <path class="fil9" d="M31521.56 11056.16l0 54.37 -108.67 0 0 -54.37c0,-238.18 -266.02,-362.06 -474.19,-362.06 -208.2,0 -474.15,123.91 -474.15,362.06 0,358.94 1111.87,363.89 1110.11,833.77 -0.07,17.06 -1.43,34.09 -4.04,50.95 -43.72,280.8 -378.34,419.69 -631.92,419.69 -251.79,0 -576.06,-127.88 -629.51,-403.8 -4.26,-22.07 -6.45,-44.47 -6.45,-66.94l0 -54.37 108.67 0 0 54.37c0,20.02 2.44,39.95 7.16,59.38 51.7,211.46 327.39,302.68 520.12,302.68 192.96,0 478.22,-99.66 522.37,-314.14 3.26,-15.79 4.92,-31.81 4.92,-47.92 0,-366.82 -1108.39,-366.07 -1110.15,-833.58 -1.11,-299.88 313.65,-470.83 582.86,-470.83 269.6,0 582.86,171.05 582.86,470.74z"/>
    <path class="fil10" d="M28563.11 10691.55l0 725.85 852.23 0 0 108.67 -852.23 0 0 725.82 1163.25 0 0 108.67 -1217.58 0c-31.22,0 -54.34,-23.08 -54.34,-54.3l0 -1669.05c0,-31.22 23.12,-54.34 54.34,-54.34l1217.58 0 0 108.67 -1163.25 0z"/>
    <path class="fil11" d="M27703.42 11527.35l-727.74 0 0 -108.71 782.63 0c31.22,0 54.37,23.15 54.37,54.37 0,445.02 -313.81,887.56 -785.2,887.56 -472.23,0 -790.21,-440.23 -790.21,-887.56 0,-447.88 318.24,-885.9 790.12,-887.59 256.64,-0.94 558.35,148.13 678.81,382.9l37.28 78.98 -117.66 0 -16.7 -26.99 -0.52 -1.01c-102.91,-200.19 -361.64,-326.05 -580.97,-325.21 -411.94,1.6 -681.67,391.3 -681.67,778.92 0,386.97 269.37,778.88 681.54,778.88 387.1,0 662.1,-357.05 675.94,-724.55z"/>
    <path class="fil12" d="M23723.7 10691.55l0 725.85 852.2 0 0 108.67 -852.2 0 0 725.82 1163.25 0 0 108.67 -1217.62 0c-31.22,0 -54.3,-23.08 -54.3,-54.3l0 -1669.05c0,-31.22 23.08,-54.34 54.3,-54.34l1217.62 0 0 108.67 -1163.25 0z"/>
    <path class="fil13" d="M20104.29 11056.16l0 54.37 -108.67 0 0 -54.37c0,-238.18 -265.99,-362.06 -474.19,-362.06 -208.17,0 -474.15,123.91 -474.15,362.06 0,358.94 1111.91,363.89 1110.15,833.77 -0.07,17.06 -1.43,34.09 -4.07,50.95 -43.72,280.8 -378.31,419.69 -631.92,419.69 -251.79,0 -576.02,-127.88 -629.51,-403.8 -4.26,-22.07 -6.45,-44.47 -6.45,-66.94l0 -54.37 108.71 0 0 54.37c0,20.02 2.41,39.95 7.16,59.38 51.67,211.46 327.36,302.68 520.09,302.68 193,0 478.22,-99.66 522.37,-314.14 3.29,-15.79 4.92,-31.81 4.92,-47.92 0,-366.82 -1108.39,-366.07 -1110.11,-833.58 -1.14,-299.88 313.62,-470.83 582.83,-470.83 269.6,0 582.86,171.05 582.86,470.74z"/>
    <path class="fil14" d="M16953.33 12326.84l-11.3 33.73 -120.59 0 32.62 -76.15 733.24 -1668.75c17.58,-41.05 80.9,-40.99 98.84,-0.26l733.47 1669.27 32.49 75.89 -120.65 0 -11.23 -33.76 -683.46 -1554.19 -683.43 1554.22z"/>
    <path class="fil15" d="M15516.8 12175.26l706.93 -1560.14c23.08,-50.95 103.46,-34.25 103.56,22.07l2.54 1723.38 -108.71 0 0 -54.27 -2.31 -1418.69 -652.53 1440.17c-17.58,41.15 -81.26,41.12 -98.68,0.59l-655.07 -1440.73 0 1472.93 -108.67 0 0 -1723.35c0,-56.32 80.38,-73.06 103.56,-22.14l709.38 1560.18z"/>
    <path class="fil16" d="M12905.92 10691.55l0 725.85 852.23 0 0 108.67 -852.23 0 0 725.82 1163.25 0 0 108.67 -1217.58 0c-31.22,0 -54.34,-23.08 -54.34,-54.3l0 -1669.05c0,-31.22 23.12,-54.34 54.34,-54.34l1217.58 0 0 108.67 -1163.25 0z"/>
    <polygon class="fil17" points="11570,10691.55 11570,12360.57 11461.29,12360.57 11461.29,10691.55 10826.57,10691.55 10826.57,10582.88 12199.67,10582.88 12199.67,10691.55 "/>
    <path class="fil18" d="M10285.8 11056.16l0 54.37 -108.67 0 0 -54.37c0,-238.18 -266.02,-362.06 -474.19,-362.06 -208.2,0 -474.15,123.91 -474.15,362.06 0,358.94 1111.87,363.89 1110.11,833.77 -0.07,17.06 -1.43,34.09 -4.04,50.95 -43.72,280.8 -378.34,419.69 -631.92,419.69 -251.79,0 -576.06,-127.88 -629.51,-403.8 -4.26,-22.07 -6.45,-44.47 -6.45,-66.94l0 -54.37 108.67 0 0 54.37c0,20.02 2.44,39.95 7.16,59.38 51.7,211.46 327.39,302.68 520.12,302.68 192.96,0 478.22,-99.66 522.37,-314.14 3.26,-15.79 4.92,-31.81 4.92,-47.92 0,-366.82 -1108.39,-366.07 -1110.15,-833.58 -1.11,-299.88 313.65,-470.83 582.86,-470.83 269.6,0 582.86,171.05 582.86,470.74z"/>
    <polygon class="fil19" points="8129.12,12360.57 8129.12,10582.88 8237.8,10582.88 8237.8,12360.57 "/>
    <path class="fil20" d="M7245.02 11056.16l0 54.37 -108.71 0 0 -54.37c0,-238.18 -265.99,-362.06 -474.15,-362.06 -208.2,0 -474.19,123.91 -474.19,362.06 0,358.94 1111.91,363.89 1110.15,833.77 -0.07,17.06 -1.43,34.09 -4.07,50.95 -43.72,280.8 -378.31,419.69 -631.89,419.69 -251.79,0 -576.06,-127.88 -629.55,-403.8 -4.26,-22.07 -6.41,-44.47 -6.41,-66.94l0 -54.37 108.67 0 0 54.37c0,20.02 2.41,39.95 7.16,59.38 51.67,211.46 327.36,302.68 520.12,302.68 192.96,0 478.19,-99.66 522.37,-314.14 3.26,-15.79 4.92,-31.81 4.92,-47.92 0,-366.82 -1108.42,-366.07 -1110.15,-833.58 -1.11,-299.88 313.62,-470.83 582.86,-470.83 269.6,0 582.86,171.05 582.86,470.74z"/>
    <path class="fil21" d="M33949.21 12326.84l-11.3 33.73 -120.59 0 32.62 -76.15 733.24 -1668.75c17.61,-41.05 80.94,-40.99 98.84,-0.26l733.47 1669.27 32.52 75.89 -120.69 0 -11.2 -33.76 -683.46 -1554.19 -683.46 1554.22z"/>
    <path class="fil22" d="M34964.84 10178.92c7.59,-72.5 -105.03,-71.43 -112.52,1.01 -14.32,176.2 -209.14,-5.11 -272.82,-28.1 -95.42,-34.48 -183.62,23.44 -220.51,111.9 -27.97,67.07 69.44,123.49 96.89,58.63 56.81,-134.13 148,-20.05 221.22,21.98 37.21,21.39 74.39,29.66 117.07,24.12 101.35,-13.15 162.59,-90.25 170.66,-189.54z"/>
   </g>
  </g>
 </g>
</svg>
