<?xml version="1.0" encoding="UTF-8"?>
<!DOCTYPE svg PUBLIC "-//W3C//DTD SVG 1.1//EN" "http://www.w3.org/Graphics/SVG/1.1/DTD/svg11.dtd">
<!-- Creator: CorelDRAW 2018 (64 Bit Versão de avaliação) -->
<svg xmlns="http://www.w3.org/2000/svg" xml:space="preserve" width="90.8755mm" height="70.104mm" version="1.1" style="shape-rendering:geometricPrecision; text-rendering:geometricPrecision; image-rendering:optimizeQuality; fill-rule:evenodd; clip-rule:evenodd"
viewBox="0 0 3707.15 2859.8"
 xmlns:xlink="http://www.w3.org/1999/xlink">
 <defs>
  <style type="text/css">
   <![CDATA[
    .fil0 {fill:none}
    .fil1 {fill:#FEFEFE;fill-rule:nonzero}
   ]]>
  </style>
 </defs>
 <g id="Camada_x0020_1">
  <metadata id="CorelCorpID_0Corel-Layer"/>
  <rect class="fil0" x="0" y="-0.01" width="3707.15" height="2859.8"/>
  <path class="fil1" d="M2289.53 1893.99c-115.26,0 -220.38,-42.3 -301.38,-111.78 155.72,-179.48 490.48,-496.66 490.48,-496.66 124.14,-82.77 278.95,10.55 274.02,99.79 0.07,19.43 0.97,26.06 0.97,44.55 0,256.38 -207.89,464.1 -464.1,464.1zm-470.16 -185.73c-85.01,99.1 -260.83,185.73 -401.63,185.73 -95.27,0 -183.74,-28.72 -257.32,-77.86 176.12,-69.92 696.61,-616.06 706.53,-626.26 125.31,-130.54 239.31,-224.02 422.59,-224.02 103.33,0 234.27,59.65 311.46,116.79 1.44,1.15 -85.36,-54.85 -222.32,47.76 -74.89,68.35 -375.01,358.92 -500.62,510.23l-58.69 67.63zm-865.34 -269.04c0,-3.26 -0.44,-6.19 -0.44,-9.33 0,-256.2 207.78,-464.04 464.15,-464.04 100.25,0 193.12,31.9 268.93,86.1 5.12,3.72 17.33,5.46 14.91,10.85 -30.4,69.88 -299.14,329.81 -486.58,477.75 -153.67,140.97 -243.69,20.41 -260.98,-101.33zm1335.51 -650.74c-164.84,0 -319.7,63.9 -435.92,171.75 -116.29,-107.85 -271.09,-171.75 -435.87,-171.75 -353.79,0 -641.53,287.77 -641.53,641.41 0,353.7 287.74,641.41 641.53,641.41 164.78,0 319.58,-63.96 435.87,-171.77 116.22,107.81 271.09,171.77 435.92,171.77 353.62,0 641.41,-287.71 641.41,-641.41 0,-353.64 -287.8,-641.41 -641.41,-641.41z"/>
 </g>
</svg>
