<?xml version="1.0" encoding="UTF-8"?>
<!DOCTYPE svg PUBLIC "-//W3C//DTD SVG 1.1//EN" "http://www.w3.org/Graphics/SVG/1.1/DTD/svg11.dtd">
<!-- Creator: CorelDRAW 2018 (64 Bit Versão de avaliação) -->
<svg xmlns="http://www.w3.org/2000/svg" xml:space="preserve" width="133.539mm" height="42.164mm" version="1.1" style="shape-rendering:geometricPrecision; text-rendering:geometricPrecision; image-rendering:optimizeQuality; fill-rule:evenodd; clip-rule:evenodd"
viewBox="0 0 43475.66 13727.16"
 xmlns:xlink="http://www.w3.org/1999/xlink">
 <defs>
  <style type="text/css">
   <![CDATA[
    .fil0 {fill:none}
    .fil2 {fill:#9DCD6C;fill-rule:nonzero}
    .fil1 {fill:#008CBD;fill-rule:nonzero}
   ]]>
  </style>
 </defs>
 <g id="Camada_x0020_1">
  <metadata id="CorelCorpID_0Corel-Layer"/>
  <rect class="fil0" x="0.02" y="-0.03" width="43475.63" height="13727.16"/>
  <path class="fil1" d="M40424.06 9389.78c0,129.45 -13.54,154.38 -40.76,218 -45.48,104.54 -154.55,168.12 -252.28,168.12 -79.44,0 -152.17,-54.53 -152.17,-156.76 0,-184.04 240.85,-229.36 354.44,-229.36l90.77 0zm-34556.35 -6374.91c0,0 0,0 0,0 0,0 0,0 0,0 -187.23,112.03 -351.22,277.68 -465.49,454.07 -114.63,175.15 -181.01,366.03 -176.52,530.54 0.1,0.88 0.1,0.88 0.1,0.88 0,0 0,0 0,0 5.53,168.12 84.39,281.94 209.99,330.71 128.73,50.01 306.91,32 503.55,-69.9 0,0 0,0 0,0 0,0 0,0 0,0 202.05,-105.52 385.96,-278.36 514.69,-470.15 130.49,-194.1 203.28,-404.42 188.08,-581.95 0,0 0,0 0,0 0,0 0,0 -0.07,0 -15.76,-175.55 -113.79,-283.14 -258.92,-314.53 -140.29,-32.98 -323.97,6.38 -515.4,120.33zm-2519.46 2107.58c0,0 0,0 0,0 0,0 0,0 0,0 -0.88,0.29 -0.88,0.29 -0.88,0.29 -129.28,213.34 -199.31,438.28 -207.45,631.83 -7.39,195.96 49,363.36 172.78,453.09 0,0 0,0 0,0 186.03,134.33 475.39,62.64 737.73,-164.25 53.26,-44.96 103.43,-95.49 152.23,-151.78 47.83,-56.55 94.22,-118.6 137.42,-185.47 -0.91,0.26 -0.91,0.26 -0.91,0.26 0,0 0,0 0,0 221.81,-345.39 281.06,-713.9 181.18,-946.29 -19.31,-42.97 -44.54,-81.26 -74.82,-114.7 -30.05,-32.52 -65.96,-59.16 -106.62,-78.43 0,0 0,0 0,0 -0.91,0.36 -0.91,0.36 -0.91,0.36 0,0 0,0 0,0 0,0 0,0 -0.03,0 -143.25,-66.97 -327.71,-34.41 -508.96,69.54 -175.25,100.53 -348.39,269.41 -480.76,485.55zm-745.35 2922.61c0,0 0,0 0,0 0,0 0,0 0,0 -8.82,181.24 37.21,327.78 121.14,418.97 86.11,94.09 212.4,129.18 357.99,81.07 0,0 0,0 0,0 0,0 0,0 1.07,-0.13 148.69,-49.03 289.36,-174.34 393.74,-339.21 106.04,-165.35 172.71,-366.39 175.87,-559.75 0,0 0,0 0,0 0,0 0,0 0,0 4.17,-191.66 -56.32,-336.44 -153.67,-418.16 -95.13,-79.6 -226.11,-96.95 -369.13,-35.91 0,0.23 0,0.23 0,0.23 0,0 0,0 0,0 -140.12,59.94 -268.3,185.54 -362.19,339.14 -93.24,152.59 -155.13,334.71 -164.83,513.74zm3727.96 1910.71c0,0 0,0 0,0 0,0 0,0 0,0 -244.5,37.15 -454.91,182.28 -598.59,384.4 -143.54,200.06 -223.31,462.17 -208.26,743.04 0,0 0,0 0,0 0.2,1.82 0.2,1.82 0.2,1.82 14.29,286.21 125.18,544.41 298.15,734.61 177.17,196.87 421.48,322.34 685.12,318.53 0,0 0,0 0,0 0,0 0,0 0,0 275.04,-3.91 519.83,-145.4 687.76,-366.78 169.52,-226.07 256.45,-528.82 219.82,-849.17 0,0 0,0 -0.23,-1.95 0,0 0,0 0,0 -34.54,-314.43 -181.28,-579.8 -384.75,-754.01 -196.71,-167.44 -446.55,-249.55 -699.22,-210.48zm2399.65 -1613.54c0,0 0,0 0,0 -365.9,477.7 -398.88,1082.02 -131.37,1581.11 53,99.07 118.7,194.17 198.79,287.38 79.01,91.74 168.32,179.88 273.96,256.81 0,0 0,0 0,0 0,0 0,0 0,0 566.71,425.84 1355.88,512.86 2011.97,243.36 134.17,-52.55 261.82,-119.19 378.76,-202.05 115.58,-82.37 224.18,-179.03 321.46,-289.95 0,0 0,0 0,0 0,0 0,0 0,0 0,0 0,0 0,0 0,0 0,0 0,0 341.65,-392.7 444.3,-876.26 325.7,-1322.74 -113.88,-433.26 -433.59,-817.04 -904.26,-1050.47 0,0 0,0 0,0 -2.18,0.29 -2.18,0.29 -2.18,0.29 0,0 0,0 2.18,-0.29 -447.95,-221.03 -951.6,-260.91 -1400.58,-161.32 -428.44,95.07 -816.65,321.53 -1074.43,657.87zm725.2 -2759.37c0,0 0,0 0,0 0,0 0,0 0,0 50.07,258.92 235.42,455.56 500.23,565.38 273.83,114.63 636.68,136.22 1023.58,29.85 0,0 0,0 0,0 0,0 0,0 2.08,-0.39 401.46,-109.39 745.55,-331.36 972.53,-603.92 227.25,-274.97 328.5,-593.38 241.31,-879.48 0,0 0,0 0,0 0,0 0,0 0,0 -86.37,-281.13 -334.65,-470.7 -651.72,-554.31 -308.8,-77.32 -677.89,-55.48 -1042.17,81.13 -1.92,0.52 -1.92,0.52 -1.92,0.52 0,0 0,0 0,0 -351.74,132.86 -637.49,350.54 -821.89,592.95 -183.52,241.7 -271,514.95 -222.04,768.27zm264.03 -3977.67c0,0 0,0 0,0 -0.88,0.72 -0.88,0.72 -0.88,0.72 0,0 0,0 0.65,-1.86 -318.31,-29.59 -683.98,75.95 -1020,265.37 -324,181.93 -623.52,442.77 -830.49,744.18 0,0 0,0 0,0 -293.76,426.95 -337.45,843.61 -148.43,1101.13 36.69,50.95 84.16,95.65 141.59,133.78 56.68,38.94 121.21,70.19 197.98,91.22 0,0 0,0 0,0 0,0 0,0 0,0 409.14,118.51 985.85,-47.6 1473.77,-403.57 97.64,-70.55 191.86,-148.75 278.23,-233.17 86.93,-84.84 167.6,-176.65 241.18,-275.04 -1.79,0.59 -1.79,0.59 -1.79,0.59 0,0 0,0 1.79,-0.59 0,0 0,0 0,0 0,0 0,0 0,0 256.51,-347.87 345.82,-692.25 277.38,-956.06 -65.93,-259.05 -279.5,-433.69 -610.99,-466.7zm-5305.62 7753.81l-1.33 1.99c-40.7,-39.36 -81.2,-78.53 -120.52,-117.56 -158.16,-119.42 -344.94,-148.69 -526.28,-101.38 -202.83,52.38 -402.63,201.75 -553.79,436.1 0,0 0,0 0,0 -216.18,332.76 -288.58,764.72 -208.26,1121.84 15.04,69.93 36.2,137.94 64.62,203.22 28.68,65.5 62.41,126.84 103.53,181.47 0,0 0,0 0,0 0,0 0,0 0,0 218.23,298.58 560.69,363.3 871.61,187.82 61.76,-34.18 122.97,-78.72 179.84,-133.42 56.55,-53.36 111.28,-117.99 162.82,-190.42 -1.24,0.1 -1.24,0.1 -1.24,0.1 0,0 0,0 0,0 0,0 0,0 1.24,-0.1 0,0 0,0 0,0 179.03,-261.1 265.73,-585.4 258.53,-892.38 -6.12,-270.68 -85.23,-520.68 -230.76,-697.26zm1447.08 -6465.51c0,0 0,0 0,0 230.18,-138.72 451.36,-187.79 623.69,-152.43 176.65,38.29 299.06,166.49 318.34,377.79 0.13,0.98 0.13,0.98 0.13,0.98 0,0 0,0 0,0 20.74,215.26 -68.53,472.46 -227.86,707.91 -153.15,225.13 -363.69,425.51 -597.09,552.06 15.53,249.51 31.55,504.63 48.15,765.11 397.29,-174.63 792.69,-203.48 1124.93,-100.08 211.52,-302.58 426.07,-608.52 642.9,-917.71 -48.09,-21.26 -92.1,-45.64 -131.63,-72.86 -64.62,-46.26 -118.83,-102.36 -163.14,-164.28 -218.1,-308.67 -163.04,-804.12 183.94,-1310.96 0,0 0,0 0,0 244.76,-357.21 598.03,-671.09 982.04,-892.18 400.25,-229.69 842.89,-362.97 1230.9,-333.9 0,0 0,0 1.69,-0.65 0,0 0,0 0,0 0,0 0,0 0,0 410.38,32.59 676.46,242.19 762.35,557.21 88.29,322.31 -17.65,743.95 -338.72,1171.94 0.26,1.2 0.26,1.2 0.26,1.2 0,0 0,0 0,0 0,0 0,0 0,0 -1.86,0.55 -1.86,0.55 -1.86,0.55 -86.8,118.15 -187.3,229.04 -298.25,333.87 -104.9,102.23 -219.2,197.55 -341.36,283.63 -564.53,403.93 -1218.63,597.54 -1698.38,488.93 -220.57,312.19 -438.5,621.11 -653.31,926.69 327.84,164.9 566.62,477.61 635.41,911.23 395.33,-137.88 808.48,-280.74 1240.5,-429.52 -29.85,-284.06 74.95,-582.34 274.16,-846.67 218.75,-292.03 558.93,-552.26 976.24,-714.45 0,0 0,0 0,0 0,0 0,0 0.94,-0.52 436.55,-168.09 884.95,-201.2 1257.01,-109.29 394.78,93.14 697.85,322.93 806.82,665.26 0,0 0,0 0,0 0,0 0,0 0,0 111.86,349.92 -5.5,739.26 -292.52,1075.02 -275.95,330.35 -700.98,600.64 -1192.58,728 -1.07,0.36 -1.07,0.36 -1.07,0.36 0,0 0,0 0,0 -468.52,124.07 -906.05,91.65 -1233.37,-48.61 -253.16,-109.88 -443.84,-287.7 -537.44,-516.41 -445.93,147.22 -871.64,288.68 -1278.47,425.12 8.95,451.79 -160.31,921.58 -453.16,1323.72 306.78,185.61 629.09,381.14 967.68,586.93 304.6,-386.15 751.37,-653.83 1249.36,-772.73 533.31,-125.93 1140.16,-85.69 1688.78,170.4 0,0 0,0 2.21,-0.33 0,0 0,0 0,0 0,0 0,0 0,0 588,273.31 987.51,738.35 1135.09,1267.82 153.15,550.08 32.36,1143.84 -399.96,1628.32 0.42,2.38 0.42,2.38 0.42,2.38 0,0 0,0 0,0 0,0 0,0 0,0 -2.38,0.13 -2.38,0.13 -2.38,0.13 -115.22,134.62 -250.95,250.1 -401.85,349.85 -141.69,99.56 -297.05,181.37 -464.65,246.55 -809.19,316.61 -1763.17,194.82 -2434.97,-333.77 0,0 0,0 0,0 0,0 0,0 0,0 -125.67,-97.87 -235.64,-205.4 -328.63,-315.44 -88.65,-108.48 -164.12,-226.95 -226.63,-348 -269.41,-518.2 -267.88,-1130.53 23.44,-1654.46 -342.95,-216.34 -668.94,-421.74 -978.78,-616.59 -303.53,338.07 -689.39,592.01 -1102.85,701.82 30.25,405.33 61.82,822.38 94.77,1251.22 291.35,-37.05 576.38,56.68 807.83,247.33 249.42,207.13 431.99,527.87 477.44,911.39 0,0 0,0 0,0 0.23,0.91 0.23,0.91 0.23,0.91 46.98,391.53 -60.52,763.42 -267.39,1037.42 -209.34,273.54 -506.97,437.43 -841.91,437.43 0,0 0,0 0,0 0,0 0,0 0,0 -322.34,0 -614.25,-152.27 -826.91,-394.13 -202.96,-231.05 -333.64,-542.88 -349.92,-884.4 0,0 0,0 -0.1,-0.88 0,0 0,0 0,0 -15.63,-334.23 81,-646.05 249.51,-885.05 132.77,-186.74 312.58,-334.06 523.71,-413.53 -29.89,-433.1 -58.7,-854.09 -86.14,-1263.1 -365.19,50.27 -687.89,-30.15 -934.11,-200.74 -189.97,280.31 -377.46,557.69 -562.42,832.18 187.56,210.8 290.05,518.66 299.55,853.63 10.97,375.35 -93.47,772.96 -315.31,1091.82 0.1,1.76 0.1,1.76 0.1,1.76 0,0 0,0 0,0 0,0 0,0 0,0 -1.24,0.03 -1.24,0.03 -1.24,0.03 -60.46,88.59 -127.98,165.71 -199.08,230.6 -70,64.36 -143.48,118.28 -218.85,160.93 -379.97,206.6 -793.21,118.6 -1051.9,-247.14 -1.2,0 -1.2,0 -1.2,0 0,0 0,0 0,0 -48.12,-68.4 -88.55,-143.97 -122.67,-222.04 -31.35,-77.06 -56.49,-159.82 -75.47,-245.31 -90.21,-425.97 -1.92,-937.89 253.49,-1334.69 0,0 0,0 0,0 180.66,-278.46 416.33,-459.73 657.77,-526.7 221.74,-61.63 451.76,-27.41 647.03,119.09 182.38,-272.24 367.04,-547.5 554.08,-825.34 -202.86,-194.66 -334.65,-467.55 -371.28,-792.82 -290.47,104.8 -568.99,205.99 -836.05,303.1 -25.46,192.31 -99.43,384.27 -203.54,546.95 -128.34,199.08 -299.23,351.71 -479.49,408.62 -1.11,0.16 -1.11,0.16 -1.11,0.16 0,0 0,0 0,0 -176.03,55.57 -327.62,10.35 -430.5,-102.78 -99.04,-111.02 -153.73,-287.6 -141.85,-505.38 0,0 0,0 0,0 0,0 0,0 0,0 11.69,-214.78 85.85,-433.07 196.8,-613.92 113.13,-184.95 266.05,-335.33 432.94,-407.9 0,0 0,0 0,0 0,0 0,0 0.98,-1.04 171.74,-74.39 329.83,-56.42 446.12,37.83 110.37,89.04 181.54,246.36 188.76,453.45 261.4,-98.29 533.41,-200.52 816.81,-306.29 1.86,-341.13 103.6,-690.69 275.62,-1007.95 -177.82,-108.93 -349.01,-213.44 -513.65,-314.04 -20.54,26.24 -41.48,51.83 -62.96,76.61 -58.21,67.98 -120.59,129.31 -184.4,183.65 -319.58,272.27 -669.01,355.42 -889.54,188.31 -0.91,0.23 -0.91,0.23 -0.91,0.23 -146.7,-111.73 -210.71,-313.42 -200.61,-548.77 9.86,-230.63 91.71,-498.51 247.76,-753.91 0,0 0,0 0,-0.78 0,0 0,0 0,-0.29 0,0 0,0 0,0 157.44,-256.35 363.49,-460.06 573.74,-582.4 216.21,-125.83 438.99,-168.29 614.9,-91.06 0,0 0,0 0.88,-0.36 0,0 0,0 0,0 0,0 0,0 0,0 0,0 0,0 0,0 50.59,22.72 94.8,52.68 132.47,91.32 37.11,38.91 67.62,86.05 91.48,139.08 124.17,274.52 56.23,715.98 -205.59,1131.34l505.86 297.93c214.65,-324.98 512.93,-614.96 863.14,-812.91l-43.69 -778.59c-175.38,59.9 -330.84,61.27 -449.93,12.24 -149.57,-60.23 -242.45,-198.27 -247.85,-400.12 0,0 0,0 0,0 0,0 0,0 -0.03,-0.88 -5.14,-197.33 75.79,-423.98 210.54,-635.05 137.36,-210.38 331.75,-408.55 556.82,-545.19 0,0 0,0 0,0zm34567.46 6986.94l149.99 0 0 -758.8c0,-136.28 -27.28,-347.54 -363.53,-347.54 -295.32,0 -386.25,165.84 -388.5,302.16l172.71 0c11.26,-84.09 45.35,-172.71 220.38,-172.71 81.72,0 172.62,29.5 197.62,149.96 6.74,36.33 6.74,154.45 6.74,206.7 -36.27,6.87 -68.11,6.87 -106.72,6.87 -188.5,0 -515.7,83.96 -515.7,336.24 0,193.09 113.56,302.42 290.73,302.42 197.68,0 304.5,-116.23 331.69,-168.42l4.59 0 0 143.12zm-920.9 -127.23c-59.12,20.45 -136.31,22.69 -174.96,22.69 -358.9,0 -429.39,-288.45 -429.39,-495.25 0,-163.56 61.34,-377.1 256.77,-377.1 145.33,0 193.03,109 193.03,224.93l184.04 0c0,-172.71 -81.75,-354.38 -370.27,-354.38 -311.27,0 -440.75,215.75 -440.75,540.67 0,390.74 211.29,590.97 556.62,590.97 99.85,0 156.73,-8.99 224.9,-29.85l0 -122.67zm-1379.85 -1235.91l204.42 0 0 -204.42 -204.42 0 0 204.42zm24.91 1363.14l154.55 0 0 -1081.43 -154.55 0 0 1081.43zm-375.67 -124.98c-34.05,11.43 -54.5,20.45 -104.44,20.45 -159.1,0 -177.24,-111.25 -177.24,-181.73l0 -665.68 290.8 0 0 -129.48 -290.8 0 0 -349.82 -154.45 97.64 0 252.18 -177.3 0 0 129.48 177.3 0 0 697.46c0,193.19 81.75,279.79 299.81,279.79 45.48,0 90.9,-4.53 136.31,-11.3l0 -138.98zm-1143.55 -365.68c0,129.45 -13.64,154.38 -40.92,218 -45.42,104.54 -154.42,168.12 -252.12,168.12 -79.57,0 -152.23,-54.53 -152.23,-156.76 0,-184.04 240.79,-229.36 354.31,-229.36l90.96 0zm4.53 490.66l149.99 0 0 -758.8c0,-136.28 -27.31,-347.54 -363.56,-347.54 -295.26,0 -386.15,165.84 -388.43,302.16l172.62 0c11.36,-84.09 45.45,-172.71 220.38,-172.71 81.81,0 172.71,29.5 197.68,149.96 6.8,36.33 6.8,154.45 6.8,206.7 -36.33,6.87 -68.14,6.87 -106.79,6.87 -188.57,0 -515.63,83.96 -515.63,336.24 0,193.09 113.52,302.42 290.67,302.42 197.75,0 304.53,-116.23 331.75,-168.42l4.53 0 0 143.12zm-268.04 -1269.97l143.09 0 152.23 -304.37 -199.9 0 -95.42 304.37zm-2074.99 1269.97l154.48 0 0 -445.34c0,-195.34 90.83,-506.61 270.32,-506.61 159.01,0 159.01,165.91 159.01,352.16l0 599.79 154.55 0 0 -445.34c0,-193.09 88.49,-506.61 270.32,-506.61 158.97,0 158.97,163.6 158.97,352.16l0 599.79 154.58 0 0 -772.44c0,-179.52 -93.21,-333.9 -277.25,-333.9 -193.09,0 -279.43,165.84 -306.62,247.59l-4.56 0c-11.33,-143.12 -90.87,-247.59 -272.69,-247.59 -215.79,0 -277.09,186.22 -302.13,274.84l-4.49 0 0 -249.94 -154.48 0 0 1081.43zm-830.13 0l154.51 0 0 -447.56c0,-290.8 120.39,-492.94 365.77,-492.94l0 -165.84c-247.63,0 -329.44,161.22 -361.18,233.98l-4.59 0 0 -209.08 -154.51 0 0 1081.43zm-1109.46 -540.67c0,-270.32 88.65,-436.23 263.58,-436.23 177.11,0 268.04,165.91 268.04,436.23 0,272.6 -90.93,436.13 -268.04,436.13 -174.93,0 -263.58,-163.53 -263.58,-436.13zm263.58 565.96c320.29,0 445.21,-247.95 445.21,-563.72 0,-315.77 -124.92,-567.92 -445.21,-567.92 -318.08,0 -440.82,252.15 -440.82,567.92 0,315.77 122.74,563.72 440.82,563.72zm-1132.25 -25.3l154.48 0 0 -951.95 311.24 0 0 -129.48 -311.24 0 0 -118.12c0,-145.33 47.7,-245.31 227.18,-245.31 65.86,0 115.84,15.86 156.76,29.53l0 -138.63c-49.97,-11.36 -106.72,-20.38 -184.04,-20.38 -270.32,0 -354.38,165.81 -354.38,343.05l0 149.86 -181.67 0 0 129.48 181.67 0 0 951.95zm-1316.3 0l154.55 0 0 -445.34c0,-195.34 102.23,-506.61 306.75,-506.61 158.97,0 158.97,165.91 158.97,352.16l0 599.79 154.45 0 0 -772.44c0,-179.52 -93.18,-333.9 -277.12,-333.9 -240.82,0 -308.96,186.22 -338.49,274.84l-4.56 0 0 -249.94 -154.55 0 0 1081.43zm-675.52 -1363.14l204.39 0 0 -204.42 -204.39 0 0 204.42zm24.97 1363.14l154.48 0 0 -1081.43 -154.48 0 0 1081.43zm-1611.62 -772.44c13.71,-72.67 65.89,-204.46 227.25,-204.46 156.76,0 206.77,131.79 206.77,204.46l-434.01 0zm586.15 638.4c-49.94,11.33 -93.11,29.5 -213.51,29.5 -311.27,0 -384.01,-311.21 -384.01,-474.77l0 -63.65 622.55 0 0 -52.25c0,-236.26 -122.71,-411.12 -377.14,-411.12 -288.52,0 -422.55,206.7 -422.55,529.24 0,399.86 193.09,602.39 527.09,602.39 99.85,0 181.7,-11.3 247.56,-32.1l0 -127.23zm-2399.88 -406.63c0,-270.32 88.62,-436.23 263.55,-436.23 177.24,0 268.07,165.91 268.07,436.23 0,272.6 -90.83,436.13 -268.07,436.13 -174.93,0 -263.55,-163.53 -263.55,-436.13zm263.55 565.96c320.32,0 445.21,-247.95 445.21,-563.72 0,-315.77 -124.89,-567.92 -445.21,-567.92 -318.01,0 -440.69,252.15 -440.69,567.92 0,315.77 122.67,563.72 440.69,563.72zm-995.91 -515.96c0,129.45 -13.67,154.38 -40.92,218 -45.45,104.54 -154.38,168.12 -252.12,168.12 -79.6,0 -152.3,-54.53 -152.3,-156.76 0,-184.04 240.85,-229.36 354.38,-229.36l90.96 0zm4.53 490.66l149.99 0 0 -758.8c0,-136.28 -27.28,-347.54 -363.56,-347.54 -295.29,0 -386.15,165.84 -388.43,302.16l172.65 0c11.33,-84.09 45.45,-172.71 220.34,-172.71 81.81,0 172.71,29.5 197.65,149.96 6.84,36.33 6.84,154.45 6.84,206.7 -36.33,6.87 -68.14,6.87 -106.82,6.87 -188.54,0 -515.66,83.96 -515.66,336.24 0,193.09 113.62,302.42 290.8,302.42 197.68,0 304.4,-116.23 331.69,-168.42l4.53 0 0 143.12zm-370.36 -1269.97c0,-9.08 4.59,-111.34 47.76,-111.34 45.45,0 163.6,115.93 265.82,115.93 115.87,0 131.79,-134.04 131.79,-247.63l-95.42 0c0,34.12 0,106.79 -47.73,106.79 -61.34,0 -179.48,-122.67 -268.07,-122.67 -20.41,0 -81.81,11.33 -104.54,86.27 -18.13,63.55 -24.97,127.23 -24.97,172.65l95.36 0zm-1066.2 1481.59c18.17,0 36.27,-2.21 54.47,-2.21 54.53,0 154.48,11.33 154.48,111.28 0,61.34 -52.22,104.47 -109.06,104.47 -49.97,0 -106.69,-29.5 -129.51,-54.5l0 115.84c25.07,11.36 75.01,29.5 143.18,29.5 147.64,0 222.62,-88.52 222.62,-188.5 0,-111.31 -65.86,-195.37 -190.88,-195.37l-34.09 0 29.63 -122.64c45.42,11.3 95.39,15.82 149.89,15.82 99.95,0 156.79,-8.99 224.93,-29.85l0 -122.67c-59.06,20.45 -136.35,22.69 -174.93,22.69 -359,0 -429.39,-288.45 -429.39,-495.25 0,-163.56 61.37,-377.1 256.74,-377.1 145.33,0 193.03,109 193.03,224.93l184.11 0c0,-172.71 -81.81,-354.38 -370.36,-354.38 -311.21,0 -440.69,215.75 -440.69,540.67 0,288.55 115.84,472.49 315.73,547.5l-49.91 229.78zm-821.08 -702.28c0,129.45 -13.58,154.38 -40.86,218 -45.42,104.54 -154.45,168.12 -252.15,168.12 -79.54,0 -152.2,-54.53 -152.2,-156.76 0,-184.04 240.79,-229.36 354.35,-229.36l90.87 0zm4.59 490.66l149.99 0 0 -758.8c0,-136.28 -27.31,-347.54 -363.53,-347.54 -295.32,0 -386.25,165.84 -388.47,302.16l172.62 0c11.36,-84.09 45.45,-172.71 220.38,-172.71 81.78,0 172.58,29.5 197.65,149.96 6.77,36.33 6.77,154.45 6.77,206.7 -36.27,6.87 -68.14,6.87 -106.75,6.87 -188.5,0 -515.6,83.96 -515.6,336.24 0,193.09 113.52,302.42 290.67,302.42 197.65,0 304.44,-116.23 331.69,-168.42l4.59 0 0 143.12zm-920.96 -127.23c-58.96,20.45 -136.28,22.69 -174.86,22.69 -359,0 -429.36,-288.45 -429.36,-495.25 0,-163.56 61.34,-377.1 256.61,-377.1 145.43,0 193.16,109 193.16,224.93l183.98 0c0,-172.71 -81.72,-354.38 -370.33,-354.38 -311.18,0 -440.65,215.75 -440.65,540.67 0,390.74 211.26,590.97 556.59,590.97 99.95,0 156.76,-8.99 224.87,-29.85l0 -122.67zm-1379.81 -1235.91l204.52 0 0 -204.42 -204.52 0 0 204.42zm24.94 1363.14l154.55 0 0 -1081.43 -154.55 0 0 1081.43zm-1266.22 0l154.48 0 0 -445.34c0,-195.34 102.29,-506.61 306.72,-506.61 159.04,0 159.04,165.91 159.04,352.16l0 599.79 154.51 0 0 -772.44c0,-179.52 -93.24,-333.9 -277.22,-333.9 -240.76,0 -308.96,186.22 -338.52,274.84l-4.53 0 0 -249.94 -154.48 0 0 1081.43zm-643.77 0l154.45 0 0 -1081.43 -154.45 0 0 445.34c0,195.34 -99.95,506.61 -304.4,506.61 -159.07,0 -159.07,-165.88 -159.07,-352.16l0 -599.79 -154.48 0 0 772.44c0,179.52 90.93,334.29 277.15,334.29 240.85,0 308.96,-186.61 336.24,-275.2l4.56 0 0 249.9zm-2411.21 0l154.42 0 0 -445.34c0,-195.34 90.96,-506.61 270.32,-506.61 159.14,0 159.14,165.91 159.14,352.16l0 599.79 154.45 0 0 -445.34c0,-193.09 88.59,-506.61 270.32,-506.61 159.07,0 159.07,163.6 159.07,352.16l0 599.79 154.48 0 0 -772.44c0,-179.52 -93.18,-333.9 -277.19,-333.9 -193.16,0 -279.43,165.84 -306.68,247.59l-4.56 0c-11.39,-143.12 -90.93,-247.59 -272.56,-247.59 -215.82,0 -277.22,186.22 -302.19,274.84l-4.59 0 0 -249.94 -154.42 0 0 1081.43zm-1107.18 -540.67c0,-270.32 88.49,-436.23 263.42,-436.23 177.24,0 268.1,165.91 268.1,436.23 0,272.6 -90.87,436.13 -268.1,436.13 -174.93,0 -263.42,-163.53 -263.42,-436.13zm263.42 565.96c320.29,0 445.37,-247.95 445.37,-563.72 0,-315.77 -125.08,-567.92 -445.37,-567.92 -317.98,0 -440.69,252.15 -440.69,567.92 0,315.77 122.71,563.72 440.69,563.72zm17855.02 -3138.26c205.79,0 348.42,-51.99 427.83,-154.97 80.58,-103.95 120.3,-287.28 120.3,-550.89l0 -1609.24c0,-175.77 -47.14,-308.99 -140.12,-398.75 -93.08,-90.74 -229.43,-136.09 -408,-136.09 -178.57,0 -315.02,45.35 -406.79,136.09 -91.78,89.76 -137.68,222.98 -137.68,398.75l0 1609.24c0,263.61 39.69,446.94 120.33,550.89 79.37,102.98 220.7,154.97 424.15,154.97zm0 586.8c-584.13,0 -995.87,-99.2 -1235.2,-298.61 -239.39,-199.38 -359.65,-542.43 -359.65,-1028.1l0 -1608.23c0,-363.82 132.67,-635.99 398.07,-817.4 265.4,-180.49 663.54,-271.2 1196.78,-271.2 533.24,0 932.55,90.7 1199.22,271.2 266.61,181.41 399.31,453.58 399.31,817.4l0 1608.23c0,485.68 -120.33,828.73 -359.65,1028.1 -239.36,199.41 -652.3,298.61 -1238.88,298.61zm-15417.44 -58.57l0 0 0 -3906.4 0 0 2562.14 0 0 0 0 290.11 0 291.02 0 0 -1511.7 0 0 0 0 1032.86 0 0 1460.91 0 0 290.08 0 291.02 0 0 -1460.91 0 0 0 0 1130.17 0 0 1540.22 0 0 0 0 290.11 0 291.02 0 0 -2590.66 0zm-2873.41 0l0 -3325.27 0 0 -1104.94 0 0 0 0 -291.02 0 -290.11 0 0 3256.54 0 0 0 0 290.11 0 291.02 0 0 -1101.16 0 0 0 0 3325.27 0 0 -523.35 0 -527.09 0zm6322.23 0l0 0 0 -3906.4 0 0 523.35 0 527.03 0 0 0 0 3325.27 0 0 1333.19 0 0 0 0 290.11 0 291.02 0 0 -2383.57 0zm3135.1 0l0 0 0 -3906.4 0 0 2562.07 0 0 0 0 290.11 0 291.02 0 0 -1511.73 0 0 0 0 1032.86 0 0 1460.91 0 0 290.08 0 291.02 0 0 -1460.91 0 0 0 0 1130.17 0 0 1540.32 0 0 0 0 290.11 0 291.02 0 0 -2590.66 0zm6474.79 -1328.6l0 116.23c9.9,458.3 -101.71,784.29 -333.64,978.94 -233.14,194.66 -626.26,292 -1180.6,292 -589.11,0 -1003.3,-105.81 -1245.09,-317.49 -240.59,-210.74 -360.89,-574.53 -360.89,-1089.54l0 -1203.81c0,-518.76 120.3,-884.47 360.89,-1095.2 241.8,-211.65 655.98,-317.49 1245.09,-317.49 510.91,0 890.42,99.2 1137.2,296.69 231.87,184.3 347.22,458.33 344.77,822.09l0 74.65 0 116.26 -1042.98 0 0 -116.26c4.95,-203.15 -29.76,-355.26 -102.94,-455.4 -74.39,-101.12 -186.03,-151.23 -336.05,-151.23 -195.96,0 -337.35,57.66 -425.38,172.94 -86.8,115.28 -130.23,303.3 -130.23,564.11l0 1204.79c0,339.24 40.92,575.47 121.53,708.72 80.61,133.22 225.75,199.38 434.08,199.38 161.19,0 281.48,-56.71 360.89,-170.08 78.1,-113.43 115.32,-285.39 110.33,-514.07l0 -116.23 1043.02 0zm5718.24 1328.6l0 0 -429.13 0 -431.54 0 0 0 0 -3906.4 0 0 734.18 0 736.66 0 0 0 820.95 2989.8 -3.71 0 0 0 816 -2989.8 0 0 729.17 0 734.18 0 0 0 0 3906.4 0 0 -429.1 0 -431.51 0 0 0 0 -3280.83 2.41 0 -900.32 3280.83 -523.35 0 -523.35 0 -899.08 -3294.99 -2.47 0 0 3294.99zm-21958.19 2457.5c-59.16,20.45 -136.35,22.69 -174.89,22.69 -359,0 -429.45,-288.45 -429.45,-495.25 0,-163.56 61.3,-377.1 256.74,-377.1 145.37,0 193.06,109 193.06,224.93l184.08 0c0,-172.71 -81.75,-354.38 -370.36,-354.38 -311.18,0 -440.69,215.75 -440.69,540.67 0,390.74 211.29,590.97 556.59,590.97 99.92,0 156.76,-8.99 224.93,-29.85l0 -122.67z"/>
  <path class="fil2" d="M6021.67 5580.49c0,0 0,0 0,0 0,0 0,0 0,0 -310.23,134.49 -577.07,372.09 -759.77,649.6 -182.35,274.16 -290.01,593.57 -281.45,900.68 0,0 0,0 0,0 0,0 0,0 0,0 7.94,313.36 137.88,566.52 344.81,721.98 214.55,162.82 518.53,221.16 858.42,125.47 0,0 0,0 0,0 0,0 0,0 0,0 354.77,-99.17 677.54,-344.48 904.29,-660.96 228.19,-320.36 353.17,-702.05 312.12,-1056.27 0,0 0,0 0,0 0,0 0,0 -0.16,-1.01 -39.59,-345.1 -228.25,-590.28 -489.81,-709.93 -249.9,-114.63 -565.9,-108.93 -888.44,30.44z"/>
 </g>
</svg>
