<?xml version="1.0" encoding="UTF-8"?>
<!DOCTYPE svg PUBLIC "-//W3C//DTD SVG 1.1//EN" "http://www.w3.org/Graphics/SVG/1.1/DTD/svg11.dtd">
<!-- Creator: CorelDRAW 2018 (64 Bit Versão de avaliação) -->
<svg xmlns="http://www.w3.org/2000/svg" xml:space="preserve" width="90.8755mm" height="70.104mm" version="1.1" style="shape-rendering:geometricPrecision; text-rendering:geometricPrecision; image-rendering:optimizeQuality; fill-rule:evenodd; clip-rule:evenodd"
viewBox="0 0 3707.15 2859.8"
 xmlns:xlink="http://www.w3.org/1999/xlink">
 <defs>
  <style type="text/css">
   <![CDATA[
    .fil0 {fill:none}
    .fil1 {fill:#FEFEFE;fill-rule:nonzero}
   ]]>
  </style>
 </defs>
 <g id="Camada_x0020_1">
  <metadata id="CorelCorpID_0Corel-Layer"/>
  <rect class="fil0" x="0" y="-0.01" width="3707.15" height="2859.8"/>
  <path class="fil1" d="M1174.92 1552.83c46.69,-17.61 95.29,-35.89 145.96,-54.81 0.29,-60.97 18.4,-123.29 49.13,-179.9 -31.72,-19.44 -62.25,-38.11 -91.66,-56.1 -3.7,4.7 -7.5,9.26 -11.39,13.64 -10.28,12.14 -21.47,23.22 -32.75,32.91 -57.19,48.63 -119.48,63.3 -158.87,33.69 -0.4,0 -0.4,0 -0.4,0 -25.97,-20.11 -37.52,-55.98 -35.69,-98.08 1.75,-41.21 16.6,-89.06 44.29,-134.77 28.16,-45.88 64.74,-82.38 102.53,-103.98 38.44,-22.64 78.31,-30.02 109.78,-16.38 0,0 0,0 0,-0.14 9.15,4.19 17.01,9.63 23.73,16.42 6.55,6.98 12.12,15.2 16.42,24.94 22.1,48.85 9.99,127.63 -36.71,201.89 28.97,17.1 59.06,34.82 90.31,53.22 38.43,-58.04 91.67,-109.74 154.05,-145.08 -2.68,-47.41 -5.27,-93.79 -7.82,-139.13 -31.34,10.69 -59.02,11.02 -80.35,2.26 -26.7,-10.83 -43.18,-35.38 -44.22,-71.49 0,0 0,0 0,-0.13 -0.8,-35.3 13.48,-75.77 37.61,-113.37 24.38,-37.55 59.3,-73.03 99.33,-97.41 41.31,-24.79 80.63,-33.5 111.49,-27.23 31.46,6.8 53.36,29.69 56.94,67.44 0,0.33 0,0.33 0,0.33 3.6,38.3 -12.23,84.23 -40.58,126.33 -27.54,40.19 -65.11,76.09 -106.75,98.52 2.81,44.54 5.67,90.07 8.64,136.59 70.81,-31.05 141.52,-36.33 200.75,-17.86 37.78,-54 76.1,-108.59 114.87,-163.8 -8.62,-3.85 -16.52,-8.29 -23.7,-13.13 -11.52,-8.06 -21.07,-18.23 -29.17,-29.27 -38.62,-55.07 -28.71,-143.54 33.03,-234.18 43.64,-63.72 106.73,-119.71 175.49,-159.32 71.43,-40.96 150.3,-64.79 219.76,-59.57 0,0 0,0 0.42,-0.11 73.18,5.85 120.67,43.24 135.92,99.37 15.82,57.56 -3.35,133.09 -60.57,209.38 0,0.17 0,0.17 0,0.17 -0.18,0.07 -0.18,0.07 -0.18,0.07 -15.62,21.27 -33.3,41.07 -53.37,59.69 -18.83,18.28 -38.99,35.26 -60.75,50.85 -100.94,72.02 -217.62,106.6 -303.31,87.22 -39.37,55.77 -78.24,110.92 -116.6,165.49 58.45,29.47 101.01,85.33 113.41,162.59 70.57,-24.62 144.34,-50.16 221.49,-76.69 -5.29,-50.82 13.48,-103.96 48.98,-151.17 39.06,-52.01 99.8,-98.47 174.28,-127.56 0,0 0,0 0.37,-0.15 77.71,-29.92 157.95,-35.93 224.24,-19.51 70.39,16.62 124.64,57.69 144.34,118.8 19.58,62.68 -1.25,132.26 -52.47,192.02 -49.24,59.12 -125.3,107.36 -213.03,130.05 -0.2,0 -0.2,0 -0.2,0 -83.59,22.24 -161.71,16.43 -220.12,-8.67 -45.32,-19.64 -79.19,-51.34 -95.89,-92.05 -79.69,26.28 -155.76,51.53 -228.43,75.87 1.48,80.88 -28.69,165.03 -81.51,236.95l0.53 -0.72c54.81,33.15 112.36,68.08 172.82,104.82 54.43,-68.86 134.28,-116.78 223.15,-137.92 95.07,-22.52 203.61,-15.21 301.53,30.45 0,0 0,0 0.33,0 105.21,48.89 176.49,131.71 202.97,226.23 27.16,98.31 5.57,204.3 -71.64,290.88 0.12,0.47 0.12,0.47 0.12,0.47 -0.52,0 -0.52,0 -0.52,0 -20.37,24.07 -44.67,44.75 -71.57,62.38 -25.56,17.81 -53.15,32.49 -83.04,44.11 -144.43,56.42 -314.98,34.67 -434.79,-59.55 -22.57,-17.59 -42.17,-36.82 -58.78,-56.43 -15.72,-19.3 -29.17,-40.65 -40.3,-62.12 -48.17,-92.5 -47.84,-202.01 4.07,-295.55 -61.3,-38.59 -119.51,-75.24 -174.83,-110.03 -54.14,60.4 -122.9,105.65 -196.85,125.25 5.41,72.4 11.08,146.9 16.93,223.47 51.95,-6.69 102.77,10.08 144.05,44.44 44.59,36.7 77.32,94.05 85.54,162.61 0,0.31 0,0.31 0,0.31 8.29,69.67 -10.92,136.31 -47.8,185.08 -37.4,48.74 -90.57,77.97 -150.26,77.97 -57.7,0 -109.76,-27.12 -147.73,-70.17 -36.3,-41.26 -59.63,-97.13 -62.57,-158.14 0,0 0,0 0,-0.06 -2.63,-59.68 14.44,-115.39 44.47,-158.1 23.7,-33.28 55.86,-59.55 93.66,-73.78 -5.41,-77.37 -10.55,-152.56 -15.45,-225.63 -65.27,9.02 -123.06,-5.28 -166.96,-35.76 -33.93,50.07 -67.38,99.63 -100.34,148.68 33.42,37.54 51.96,92.39 53.53,152.2 1.95,67 -16.55,138.2 -56.3,194.96 0,0.49 0,0.49 0,0.49 -0.27,0 -0.27,0 -0.27,0 -10.68,15.64 -22.82,29.5 -35.32,41.21 -12.54,11.53 -25.81,20.95 -39.29,28.56 -67.86,37.02 -141.56,21.42 -187.8,-44.02 -0.22,0 -0.22,0 -0.22,0 -8.62,-12.15 -15.93,-25.75 -21.82,-39.55 -5.75,-13.91 -9.95,-28.66 -13.74,-44.04 -15.84,-75.95 -0.12,-167.33 45.62,-237.98 32.14,-50.03 74.25,-82.31 117.16,-94.31 39.81,-10.99 80.93,-4.87 115.76,21.42 32.52,-48.62 65.49,-97.79 98.89,-147.43 -36.27,-34.92 -59.84,-83.7 -66.26,-141.71 -51.98,18.76 -101.74,36.89 -149.42,54.36 -4.59,34.25 -17.73,68.41 -36.29,97.54 -22.87,35.45 -53.39,62.72 -85.72,73.02 -31.5,9.78 -58.77,1.92 -77.03,-18.38 -17.46,-19.98 -27.46,-51.27 -25.23,-90.21 2.02,-38.38 15.35,-77.45 34.98,-109.69 20.27,-33.03 47.52,-59.98 77.55,-73.02 0,0 0,0 0.24,0 30.49,-13.38 58.69,-10.04 79.51,6.69 19.82,15.95 32.45,44.22 33.68,81.02zm114.99 322.8l-0.15 0.22c-7.1,-6.63 -14.1,-13.35 -20.87,-20.23 -28.26,-21.95 -61.97,-27.28 -94.81,-18.72 -36.27,9.3 -72,36 -98.75,77.83 -38.5,59.45 -51.71,136.48 -37.07,200.41 2.48,12.45 6.27,24.65 11.13,36.14 5.42,11.75 11.35,22.67 18.69,32.56 38.9,53.14 100.05,64.83 155.62,33.45 11.08,-6.05 21.87,-14.18 32.17,-23.88 10.09,-9.44 19.69,-20.88 28.99,-34.03 -0.24,0 -0.24,0 -0.24,0 0,0 0,0 0.24,0 32.23,-46.35 47.55,-104.35 46.3,-159.21 -1.19,-48.41 -15.29,-93.01 -41.26,-124.54zm947.29 -1384.46l0 0c-0.27,0 -0.27,0 -0.27,0 0,0 0,0 0.27,-0.38 -56.75,-5.44 -122.05,13.6 -182.01,47.29 -57.92,32.57 -111.4,79.14 -148.25,133.07 -52.46,76.13 -60.34,150.45 -26.67,196.52 6.73,9.14 15.17,17.01 25.42,23.73 10,7.14 21.62,12.58 35.4,16.59 72.91,21.15 176.02,-8.6 262.99,-72.23 17.52,-12.72 34.28,-26.48 49.78,-41.66 15.69,-15.11 30.06,-31.61 43.09,-49.08 -0.34,0.04 -0.34,0.04 -0.34,0.04 0,0 0,0 0.34,-0.04 45.78,-62.15 61.77,-123.6 49.54,-170.7 -11.68,-46.31 -50,-77.42 -109.29,-83.15zm-176.57 1202.87l0 0c-65.19,85.18 -71.28,193.34 -23.33,282.31 9.45,17.81 21.15,34.74 35.4,51.43 14.32,16.3 30.1,31.96 49.05,45.89 101.09,75.99 242.08,91.51 359.13,43.3 24.01,-9.36 46.85,-21.13 67.67,-36.05 20.49,-14.79 40.28,-32.08 57.43,-51.86 61.06,-69.94 79.38,-156.43 58.14,-236.18 -20.4,-77.34 -77.28,-145.93 -161.44,-187.59 -0.32,0 -0.32,0 -0.32,0 0,0 0,0 0.32,0 -79.89,-39.39 -169.98,-46.36 -250.02,-28.64 -76.62,16.86 -146.08,57.4 -192.04,117.38zm-961.1 -575.03l0 0c0,0.12 0,0.12 0,0.12 -23.21,38.11 -35.69,78.21 -37.13,112.82 -1.44,34.98 8.68,64.96 30.86,80.94 33.14,23.91 84.73,11.16 131.65,-29.46 9.66,-7.97 18.74,-17.1 27.12,-27.05 8.77,-10.09 16.94,-21.14 24.68,-33.13 -0.21,0 -0.21,0 -0.21,0 39.69,-61.7 50.27,-127.33 32.32,-168.94 -3.43,-7.71 -7.95,-14.25 -13.43,-20.38 -5.29,-5.94 -11.59,-10.68 -18.9,-14.01 -0.28,0 -0.28,0 -0.28,0 -25.53,-11.99 -58.37,-6.23 -90.76,12.38 -31.56,18.22 -62.05,48.14 -85.93,86.71zm1090.75 82.18l0 0c9.03,46.35 41.94,81.49 89.11,100.96 48.99,20.61 113.95,24.25 182.87,5.34 0,0 0,0 0.31,-0.15 71.8,-19.55 133.08,-59.07 173.69,-107.61 40.68,-49.13 58.75,-106.12 43.11,-157.04 -15.26,-50.26 -59.66,-84.06 -116.29,-99.17 -54.99,-13.66 -120.85,-9.85 -186.17,14.54 -0.31,0.2 -0.31,0.2 -0.31,0.2 -62.82,23.69 -113.67,62.66 -146.69,105.92 -32.97,43 -48.48,91.83 -39.64,137zm-1223.9 439.79l0 0c-1.49,32.29 6.63,58.47 21.71,74.82 15.5,16.75 37.77,23.1 63.89,14.49 0,0 0,0 0.14,0 26.58,-8.75 51.74,-31.17 70.3,-60.71 18.96,-29.56 30.98,-65.44 31.47,-99.86 0.83,-34.23 -10.03,-60.07 -27.31,-74.64 -17.06,-14.33 -40.58,-17.39 -66.2,-6.56l0 0.16c-24.74,10.75 -47.83,33.16 -64.43,60.52 -16.85,27.46 -27.74,59.79 -29.57,91.79zm665.91 341.3l0 0c-43.76,6.38 -81.52,32.5 -107,68.47 -25.56,35.77 -39.88,82.64 -37.31,132.83 0,0.38 0,0.38 0,0.38 2.66,50.97 22.48,96.97 53.48,131.12 31.53,34.86 75.26,57.52 122.35,56.76 49.11,-0.68 92.71,-25.99 122.59,-65.48 30.55,-40.39 45.84,-94.4 39.51,-151.61 0,0 0,0 -0.25,-0.35 -6.14,-56.25 -32.39,-103.55 -68.54,-134.71 -35.22,-29.84 -79.92,-44.53 -124.85,-37.41zm-82.99 -1239.55l0 0c-33.34,19.9 -62.45,49.38 -83.12,80.89 -20.24,31.23 -32.3,65.47 -31.37,94.85 0,0.16 0,0.16 0,0.16 1.04,29.98 15.04,50.36 37.46,59.21 22.97,8.86 54.86,5.46 90,-12.64 36.02,-18.67 68.8,-49.72 91.92,-83.88 23.24,-34.79 36.3,-72.18 33.7,-103.9 -3.03,-31.37 -20.4,-50.67 -46.3,-56.15 -25.26,-5.94 -58.01,1.13 -92.29,21.46zm236.47 364.74l2.5 0.89c-0.83,-0.3 -1.66,-0.6 -2.5,-0.89zm140.12 188.07c0.13,1.22 0.24,2.45 0.36,3.68 -0.11,-1.23 -0.23,-2.46 -0.36,-3.68zm0.41 4.22c0.13,1.38 0.24,2.76 0.34,4.14 -0.11,-1.38 -0.22,-2.76 -0.34,-4.14zm0.36 4.38c0.09,1.25 0.18,2.5 0.26,3.76 -0.08,-1.25 -0.17,-2.5 -0.26,-3.76zm0.7 13.06c0.04,1.26 0.08,2.52 0.1,3.78 -0.02,-1.26 -0.06,-2.52 -0.1,-3.78zm-314.9 405.26c-1.2,0.3 -2.41,0.6 -3.6,0.88 1.2,-0.29 2.4,-0.58 3.6,-0.88zm-35.56 -521.63c-55.26,24.14 -103,66.33 -135.5,115.97 -32.57,48.92 -51.86,106.04 -50.46,160.89 1.53,55.97 24.74,101.19 61.56,128.94 38.47,29.15 92.57,39.59 153.54,22.31 63.18,-17.76 120.97,-61.52 161.28,-117.87 40.87,-57.3 63.14,-125.4 55.77,-188.75 0,0 0,0 0,-0.18 -7.18,-61.64 -40.78,-105.41 -87.49,-126.81 -44.73,-20.41 -101.09,-19.47 -158.71,5.49zm348.99 94.71l-0.01 -0.11 -0.01 -0.07 -0.05 -0.47 -0.43 -3.78 -0 -0.03c-0.17,-1.42 -0.35,-2.85 -0.55,-4.28 0,0 0,0 0,-0.2l-0.01 -0.09 -0.02 -0.1 -0.01 -0.09 -0.01 -0.09 -0.01 -0.09 -0.32 -2.17 -0.02 -0.09 -0.01 -0.09 -0.01 -0.09 -0.02 -0.09 -0.01 -0.1 -0.02 -0.09 -0.01 -0.09 -0.02 -0.09 -0.01 -0.09 -0.02 -0.09 -0.26 -1.68 -0.02 -0.09 -0.02 -0.09 -0.01 -0.09 -0.02 -0.09 -0.02 -0.09 -0.01 -0.09 -0.02 -0.09 -0.02 -0.09 1.96 14.96z"/>
 </g>
</svg>
