<?xml version="1.0" encoding="UTF-8"?>
<!DOCTYPE svg PUBLIC "-//W3C//DTD SVG 1.1//EN" "http://www.w3.org/Graphics/SVG/1.1/DTD/svg11.dtd">
<!-- Creator: CorelDRAW 2018 (64 Bit Versão de avaliação) -->
<svg xmlns="http://www.w3.org/2000/svg" xml:space="preserve" width="91.44mm" height="91.44mm" version="1.1" style="shape-rendering:geometricPrecision; text-rendering:geometricPrecision; image-rendering:optimizeQuality; fill-rule:evenodd; clip-rule:evenodd"
viewBox="0 0 9144 9144"
 xmlns:xlink="http://www.w3.org/1999/xlink">
 <defs>
  <style type="text/css">
   <![CDATA[
    .fil0 {fill:none}
    .fil1 {fill:#0789B8;fill-rule:nonzero}
    .fil2 {fill:#9BCC6A;fill-rule:nonzero}
   ]]>
  </style>
 </defs>
 <g id="Camada_x0020_1">
  <metadata id="CorelCorpID_0Corel-Layer"/>
  <rect class="fil0" y="2667" width="9144" height="3810"/>
  <path class="fil1" d="M8666.81 5120.04c0,28.08 -2.94,33.49 -8.84,47.29 -9.86,22.68 -33.53,36.48 -54.73,36.48 -17.24,0 -33.01,-11.84 -33.01,-34.01 0,-39.93 52.25,-49.76 76.89,-49.76l19.69 0zm-7496.63 -1382.97c0,0 0,0 0,0 0,0 0,0 0,0 -40.62,24.3 -76.2,60.24 -100.98,98.5 -24.87,38 -39.27,79.41 -38.3,115.1 0.02,0.19 0.02,0.19 0.02,0.19 0,0 0,0 0,0 1.21,36.47 18.31,61.17 45.56,71.74 27.92,10.85 66.58,6.95 109.24,-15.16 0,0 0,0 0,0 0,0 0,0 0,0 43.83,-22.89 83.73,-60.38 111.65,-102 28.31,-42.1 44.11,-87.73 40.8,-126.24 0,0 0,0 0,0 0,0 0,0 -0.01,0 -3.42,-38.08 -24.68,-61.43 -56.17,-68.24 -30.43,-7.15 -70.28,1.39 -111.81,26.11zm-546.57 457.22c0,0 0,0 0,0 0,0 0,0 0,0 -0.19,0.06 -0.19,0.06 -0.19,0.06 -28.05,46.28 -43.23,95.08 -45,137.07 -1.61,42.51 10.63,78.83 37.48,98.29 0,0 0,0 0,0 40.36,29.14 103.13,13.59 160.04,-35.63 11.55,-9.75 22.44,-20.71 33.03,-32.93 10.37,-12.26 20.44,-25.72 29.81,-40.23 -0.2,0.06 -0.2,0.06 -0.2,0.06 0,0 0,0 0,0 48.12,-74.93 60.97,-154.88 39.31,-205.29 -4.19,-9.32 -9.67,-17.63 -16.23,-24.89 -6.53,-7.06 -14.31,-12.83 -23.13,-17.01 0,0 0,0 0,0 -0.2,0.07 -0.2,0.07 -0.2,0.07 0,0 0,0 0,0 0,0 0,0 -0.01,0 -31.07,-14.52 -71.09,-7.46 -110.41,15.09 -38.02,21.81 -75.58,58.45 -104.3,105.34zm-161.7 634.02c0,0 0,0 0,0 0,0 0,0 0,0 -1.91,39.33 8.08,71.12 26.28,90.9 18.68,20.41 46.08,28.02 77.67,17.59 0,0 0,0 0,0 0,0 0,0 0.23,-0.04 32.26,-10.63 62.78,-37.81 85.42,-73.58 23,-35.87 37.47,-79.49 38.15,-121.43 0,0 0,0 0,0 0,0 0,0 0,0 0.91,-41.58 -12.21,-72.99 -33.34,-90.72 -20.63,-17.26 -49.05,-21.03 -80.07,-7.78 0,0.04 0,0.04 0,0.04 0,0 0,0 0,0 -30.4,13.01 -58.21,40.25 -78.58,73.58 -20.22,33.1 -33.65,72.61 -35.76,111.44zm808.75 414.52c0,0 0,0 0,0 0,0 0,0 0,0 -53.04,8.05 -98.7,39.54 -129.86,83.38 -31.14,43.41 -48.44,100.27 -45.18,161.2 0,0 0,0 0,0 0.04,0.4 0.04,0.4 0.04,0.4 3.1,62.09 27.15,118.1 64.68,159.36 38.44,42.71 91.44,69.93 148.63,69.11 0,0 0,0 0,0 0,0 0,0 0,0 59.67,-0.85 112.78,-31.55 149.21,-79.58 36.77,-49.04 55.62,-114.71 47.68,-184.22 0,0 0,0 -0.05,-0.42 0,0 0,0 0,0 -7.49,-68.21 -39.32,-125.78 -83.46,-163.58 -42.68,-36.32 -96.88,-54.13 -151.69,-45.65zm520.57 -350.05c0,0 0,0 0,0 -79.37,103.64 -86.53,234.74 -28.49,343.02 11.5,21.48 25.75,42.11 43.12,62.33 17.14,19.91 36.52,39.03 59.43,55.72 0,0 0,0 0,0 0,0 0,0 0,0 122.95,92.38 294.15,111.26 436.48,52.79 29.11,-11.4 56.8,-25.86 82.17,-43.83 25.07,-17.87 48.63,-38.84 69.74,-62.9 0,0 0,0 0,0 0,0 0,0 0,0 0,0 0,0 0,0 0,0 0,0 0,0 74.11,-85.19 96.38,-190.1 70.65,-286.95 -24.7,-94 -94.06,-177.26 -196.16,-227.89 0,0 0,0 0,0 -0.48,0.05 -0.48,0.05 -0.48,0.05 0,0 0,0 0.48,-0.05 -97.19,-47.96 -206.44,-56.61 -303.85,-35.01 -92.94,20.63 -177.16,69.76 -233.09,142.72zm157.33 -598.61c0,0 0,0 0,0 0,0 0,0 0,0 10.86,56.17 51.07,98.83 108.52,122.65 59.4,24.87 138.12,29.56 222.05,6.48 0,0 0,0 0,0 0,0 0,0 0.45,-0.08 87.09,-23.74 161.75,-71.89 210.99,-131.02 49.29,-59.65 71.26,-128.73 52.34,-190.79 0,0 0,0 0,0 0,0 0,0 0,0 -18.73,-60.99 -72.6,-102.12 -141.38,-120.25 -66.99,-16.78 -147.06,-12.04 -226.08,17.59 -0.42,0.11 -0.42,0.11 -0.42,0.11 0,0 0,0 0,0 -76.31,28.83 -138.3,76.05 -178.3,128.64 -39.82,52.43 -58.8,111.71 -48.17,166.67zm57.28 -862.91c0,0 0,0 0,0 -0.19,0.15 -0.19,0.15 -0.19,0.15 0,0 0,0 0.14,-0.4 -69.05,-6.42 -148.38,16.48 -221.28,57.57 -70.29,39.46 -135.27,96.05 -180.17,161.44 0,0 0,0 0,0 -63.72,92.62 -73.2,183.01 -32.2,238.88 7.96,11.05 18.26,20.75 30.72,29.02 12.3,8.45 26.29,15.23 42.95,19.79 0,0 0,0 0,0 0,0 0,0 0,0 88.76,25.7 213.87,-10.33 319.72,-87.55 21.18,-15.3 41.62,-32.27 60.36,-50.59 18.86,-18.4 36.36,-38.32 52.32,-59.66 -0.38,0.13 -0.38,0.13 -0.38,0.13 0,0 0,0 0.38,-0.13 0,0 0,0 0,0 0,0 0,0 0,0 55.65,-75.47 75.02,-150.18 60.18,-207.41 -14.31,-56.2 -60.64,-94.08 -132.55,-101.24zm-1151 1682.11l-0.29 0.42c-8.83,-8.53 -17.61,-17.03 -26.15,-25.5 -34.31,-25.91 -74.83,-32.26 -114.16,-21.99 -44,11.36 -87.35,43.77 -120.14,94.61 0,0 0,0 0,0 -46.9,72.18 -62.61,165.89 -45.19,243.36 3.27,15.18 7.86,29.93 14.02,44.09 6.23,14.21 13.55,27.51 22.47,39.37 0,0 0,0 0,0 0,0 0,0 0,0 47.34,64.77 121.63,78.81 189.08,40.75 13.4,-7.42 26.68,-17.08 39.02,-28.95 12.26,-11.57 24.14,-25.6 35.32,-41.31 -0.27,0.02 -0.27,0.02 -0.27,0.02 0,0 0,0 0,0 0,0 0,0 0.27,-0.02 0,0 0,0 0,0 38.84,-56.64 57.64,-126.99 56.08,-193.59 -1.33,-58.72 -18.49,-112.96 -50.06,-151.26zm313.93 -1402.63c0,0 0,0 0,0 49.93,-30.1 97.92,-40.74 135.3,-33.07 38.32,8.31 64.88,36.12 69.06,81.96 0.03,0.21 0.03,0.21 0.03,0.21 0,0 0,0 0,0 4.5,46.7 -14.87,102.49 -49.44,153.58 -33.22,48.83 -78.89,92.3 -129.53,119.76 3.38,54.13 6.85,109.47 10.45,165.98 86.19,-37.88 171.96,-44.14 244.04,-21.71 45.89,-65.64 92.44,-132.01 139.47,-199.09 -10.43,-4.61 -19.98,-9.9 -28.56,-15.8 -14.01,-10.04 -25.78,-22.21 -35.39,-35.65 -47.31,-66.96 -35.37,-174.43 39.91,-284.39 0,0 0,0 0,0 53.1,-77.49 129.74,-145.59 213.04,-193.55 86.83,-49.83 182.86,-78.74 267.03,-72.43 0,0 0,0 0.37,-0.15 0,0 0,0 0,0 0,0 0,0 0,0 89.02,7.07 146.75,52.55 165.39,120.88 19.14,69.93 -3.84,161.4 -73.49,254.24 0.06,0.26 0.06,0.26 0.06,0.26 0,0 0,0 0,0 0,0 0,0 0,0 -0.4,0.13 -0.4,0.13 -0.4,0.13 -18.84,25.62 -40.64,49.68 -64.71,72.43 -22.75,22.17 -47.55,42.85 -74.05,61.53 -122.47,87.63 -264.37,129.63 -368.45,106.06 -47.85,67.73 -95.13,134.74 -141.72,201.04 71.12,35.77 122.91,103.61 137.84,197.68 85.76,-29.91 175.39,-60.9 269.11,-93.18 -6.47,-61.62 16.26,-126.33 59.48,-183.67 47.45,-63.36 121.26,-119.81 211.79,-155 0,0 0,0 0,0 0,0 0,0 0.2,-0.11 94.7,-36.47 191.98,-43.65 272.69,-23.71 85.65,20.2 151.39,70.06 175.03,144.32 0,0 0,0 0,0 0,0 0,0 0,0 24.27,75.91 -1.19,160.38 -63.45,233.21 -59.87,71.67 -152.08,130.3 -258.72,157.94 -0.23,0.08 -0.23,0.08 -0.23,0.08 0,0 0,0 0,0 -101.65,26.91 -196.56,19.88 -267.57,-10.55 -54.92,-23.84 -96.29,-62.41 -116.6,-112.03 -96.74,31.93 -189.09,62.63 -277.35,92.23 1.94,98.01 -34.77,199.93 -98.3,287.16 66.55,40.26 136.47,82.69 209.92,127.33 66.09,-83.77 163.01,-141.84 271.04,-167.63 115.7,-27.33 247.35,-18.6 366.36,36.96 0,0 0,0 0.48,-0.07 0,0 0,0 0,0 0,0 0,0 0,0 127.57,59.3 214.23,160.18 246.24,275.04 33.23,119.33 7.03,248.15 -86.76,353.25 0.09,0.51 0.09,0.51 0.09,0.51 0,0 0,0 0,0 0,0 0,0 0,0 -0.52,0.03 -0.52,0.03 -0.52,0.03 -24.99,29.21 -54.43,54.26 -87.17,75.9 -30.73,21.6 -64.44,39.34 -100.8,53.49 -175.55,68.68 -382.5,42.26 -528.24,-72.41 0,0 0,0 0,0 0,0 0,0 0,0 -27.26,-21.24 -51.12,-44.56 -71.3,-68.43 -19.22,-23.54 -35.6,-49.24 -49.16,-75.5 -58.44,-112.42 -58.11,-245.25 5.09,-358.92 -74.4,-46.93 -145.12,-91.49 -212.34,-133.76 -65.84,73.34 -149.55,128.43 -239.25,152.25 6.56,87.93 13.41,178.41 20.56,271.44 63.2,-8.03 125.04,12.3 175.25,53.66 54.1,44.93 93.72,114.51 103.58,197.71 0,0 0,0 0,0 0.04,0.21 0.04,0.21 0.04,0.21 10.2,84.93 -13.13,165.61 -58,225.05 -45.42,59.34 -109.98,94.89 -182.65,94.89 0,0 0,0 0,0 0,0 0,0 0,0 -69.92,0 -133.25,-33.03 -179.39,-85.5 -44.03,-50.13 -72.38,-117.77 -75.9,-191.86 0,0 0,0 -0.03,-0.19 0,0 0,0 0,0 -3.39,-72.51 17.58,-140.15 54.13,-192 28.8,-40.51 67.81,-72.47 113.61,-89.71 -6.48,-93.96 -12.73,-185.29 -18.69,-274.02 -79.22,10.9 -149.22,-6.54 -202.64,-43.55 -41.21,60.81 -81.89,120.99 -122.01,180.53 40.69,45.74 62.92,112.52 64.99,185.19 2.38,81.43 -20.28,167.68 -68.41,236.86 0.02,0.38 0.02,0.38 0.02,0.38 0,0 0,0 0,0 0,0 0,0 0,0 -0.27,0.01 -0.27,0.01 -0.27,0.01 -13.11,19.21 -27.76,35.95 -43.18,50.03 -15.19,13.95 -31.13,25.65 -47.48,34.9 -82.43,44.83 -172.08,25.74 -228.2,-53.61 -0.26,0 -0.26,0 -0.26,0 0,0 0,0 0,0 -10.44,-14.84 -19.21,-31.23 -26.61,-48.17 -6.8,-16.72 -12.26,-34.67 -16.37,-53.22 -19.58,-92.4 -0.42,-203.46 54.99,-289.54 0,0 0,0 0,0 39.19,-60.41 90.31,-99.74 142.69,-114.27 48.11,-13.36 98.01,-5.94 140.37,25.84 39.56,-59.06 79.62,-118.78 120.2,-179.05 -44,-42.23 -72.6,-101.43 -80.54,-171.99 -63.02,22.73 -123.44,44.68 -181.38,65.75 -5.52,41.72 -21.57,83.36 -44.15,118.66 -27.85,43.18 -64.92,76.3 -104.03,88.64 -0.23,0.04 -0.23,0.04 -0.23,0.04 0,0 0,0 0,0 -38.19,12.05 -71.08,2.25 -93.4,-22.3 -21.48,-24.08 -33.35,-62.39 -30.77,-109.64 0,0 0,0 0,0 0,0 0,0 0,0 2.53,-46.59 18.62,-93.94 42.69,-133.18 24.55,-40.12 57.72,-72.74 93.93,-88.49 0,0 0,0 0,0 0,0 0,0 0.21,-0.22 37.26,-16.15 71.55,-12.25 96.78,8.2 23.94,19.32 39.38,53.44 40.95,98.37 56.7,-21.32 115.71,-43.5 177.2,-66.44 0.4,-74.01 22.48,-149.84 59.79,-218.67 -38.57,-23.63 -75.71,-46.3 -111.43,-68.13 -4.45,5.7 -9,11.25 -13.65,16.62 -12.63,14.75 -26.16,28.06 -40.01,39.85 -69.33,59.06 -145.13,77.1 -192.98,40.84 -0.19,0.06 -0.19,0.06 -0.19,0.06 -31.83,-24.24 -45.71,-68 -43.53,-119.06 2.15,-50.03 19.9,-108.14 53.76,-163.55 0,0 0,0 0,-0.17 0,0 0,0 0,-0.07 0,0 0,0 0,0 34.15,-55.6 78.85,-99.8 124.46,-126.34 46.9,-27.3 95.24,-36.51 133.4,-19.76 0,0 0,0 0.19,-0.08 0,0 0,0 0,0 0,0 0,0 0,0 0,0 0,0 0,0 10.97,4.94 20.56,11.44 28.73,19.82 8.06,8.44 14.67,18.66 19.85,30.17 26.94,59.56 12.2,155.33 -44.6,245.43l109.74 64.64c46.57,-70.5 111.27,-133.41 187.25,-176.36l-9.48 -168.9c-38.05,12.99 -71.77,13.29 -97.6,2.66 -32.45,-13.07 -52.6,-43.02 -53.77,-86.81 0,0 0,0 0,0 0,0 0,0 -0.02,-0.19 -1.11,-42.81 16.45,-91.98 45.68,-137.76 29.8,-45.65 71.97,-88.64 120.8,-118.28 0,0 0,0 0,0zm7499.04 1515.74l32.54 0 0 -164.61c0,-29.57 -5.92,-75.4 -78.86,-75.4 -64.07,0 -83.8,35.98 -84.29,65.55l37.47 0c2.45,-18.24 9.84,-37.47 47.81,-37.47 17.73,0 37.45,6.4 42.87,32.54 1.46,7.88 1.46,33.51 1.46,44.84 -7.86,1.49 -14.77,1.49 -23.15,1.49 -40.89,0 -111.88,18.22 -111.88,72.95 0,41.88 24.64,65.6 63.08,65.6 42.88,0 66.05,-25.22 71.95,-36.54l1 0 0 31.05zm-199.78 -27.6c-12.83,4.44 -29.57,4.93 -37.95,4.93 -77.87,0 -93.16,-62.59 -93.16,-107.45 0,-35.48 13.31,-81.81 55.71,-81.81 31.53,0 41.87,23.65 41.87,48.81l39.93 0c0,-37.47 -17.73,-76.89 -80.33,-76.89 -67.52,0 -95.61,46.81 -95.61,117.29 0,84.77 45.84,128.21 120.75,128.21 21.66,0 34,-1.95 48.79,-6.48l0 -26.61zm-299.35 -268.11l44.35 0 0 -44.35 -44.35 0 0 44.35zm5.41 295.71l33.53 0 0 -234.6 -33.53 0 0 234.6zm-81.5 -27.11c-7.39,2.48 -11.82,4.44 -22.65,4.44 -34.52,0 -38.46,-24.14 -38.46,-39.43l0 -144.41 63.09 0 0 -28.09 -63.09 0 0 -75.9 -33.5 21.19 0 54.71 -38.47 0 0 28.09 38.47 0 0 151.3c0,41.91 17.74,60.7 65.04,60.7 9.86,0 19.72,-0.98 29.57,-2.45l0 -30.15zm-248.08 -79.33c0,28.08 -2.96,33.49 -8.88,47.29 -9.85,22.68 -33.49,36.48 -54.69,36.48 -17.26,0 -33.02,-11.84 -33.02,-34.01 0,-39.93 52.23,-49.76 76.86,-49.76l19.73 0zm0.98 106.44l32.54 0 0 -164.61c0,-29.57 -5.92,-75.4 -78.87,-75.4 -64.05,0 -83.77,35.98 -84.26,65.55l37.44 0c2.46,-18.24 9.86,-37.47 47.81,-37.47 17.75,0 37.47,6.4 42.88,32.54 1.48,7.88 1.48,33.51 1.48,44.84 -7.88,1.49 -14.78,1.49 -23.16,1.49 -40.91,0 -111.87,18.22 -111.87,72.95 0,41.88 24.64,65.6 63.06,65.6 42.9,0 66.07,-25.22 71.97,-36.54l0.98 0 0 31.05zm-58.15 -275.5l31.05 0 33.02 -66.04 -43.37 0 -20.7 66.04zm-450.14 275.5l33.51 0 0 -96.61c0,-42.37 19.7,-109.9 58.65,-109.9 34.49,0 34.49,35.99 34.49,76.39l0 130.12 33.53 0 0 -96.61c0,-41.89 19.19,-109.9 58.64,-109.9 34.49,0 34.49,35.49 34.49,76.39l0 130.12 33.53 0 0 -167.57c0,-38.94 -20.22,-72.44 -60.15,-72.44 -41.88,0 -60.62,35.98 -66.51,53.72l-1 0c-2.46,-31.05 -19.71,-53.72 -59.15,-53.72 -46.82,0 -60.12,40.4 -65.54,59.63l-0.98 0 0 -54.22 -33.51 0 0 234.6zm-180.09 0l33.52 0 0 -97.09c0,-63.09 26.12,-106.94 79.35,-106.94l0 -35.98c-53.72,0 -71.47,34.98 -78.36,50.76l-0.99 0 0 -45.35 -33.52 0 0 234.6zm-240.68 -117.29c0,-58.64 19.22,-94.64 57.17,-94.64 38.43,0 58.15,36 58.15,94.64 0,59.14 -19.72,94.62 -58.15,94.62 -37.95,0 -57.17,-35.48 -57.17,-94.62zm57.17 122.78c69.49,0 96.59,-53.79 96.59,-122.29 0,-68.5 -27.1,-123.21 -96.59,-123.21 -69,0 -95.63,54.71 -95.63,123.21 0,68.5 26.63,122.29 95.63,122.29zm-245.62 -5.49l33.5 0 0 -206.51 67.53 0 0 -28.09 -67.53 0 0 -25.63c0,-31.52 10.35,-53.21 49.29,-53.21 14.29,0 25.13,3.43 34.01,6.4l0 -30.07c-10.84,-2.47 -23.15,-4.43 -39.93,-4.43 -58.64,0 -76.87,35.98 -76.87,74.43l0 32.51 -39.42 0 0 28.09 39.42 0 0 206.51zm-285.56 0l33.52 0 0 -96.61c0,-42.37 22.18,-109.9 66.55,-109.9 34.49,0 34.49,35.99 34.49,76.39l0 130.12 33.5 0 0 -167.57c0,-38.94 -20.21,-72.44 -60.11,-72.44 -52.25,0 -67.03,40.4 -73.44,59.63l-0.99 0 0 -54.22 -33.52 0 0 234.6zm-146.55 -295.71l44.34 0 0 -44.35 -44.34 0 0 44.35zm5.42 295.71l33.51 0 0 -234.6 -33.51 0 0 234.6zm-349.62 -167.57c2.97,-15.76 14.29,-44.36 49.29,-44.36 34.01,0 44.86,28.6 44.86,44.36l-94.15 0zm127.15 138.5c-10.83,2.46 -20.2,6.4 -46.31,6.4 -67.53,0 -83.31,-67.52 -83.31,-103.01l0 -13.8 135.06 0 0 -11.34c0,-51.25 -26.62,-89.19 -81.82,-89.19 -62.59,0 -91.67,44.84 -91.67,114.82 0,86.74 41.89,130.68 114.35,130.68 21.66,0 39.42,-2.45 53.7,-6.96l0 -27.6zm-520.62 -88.22c0,-58.64 19.22,-94.64 57.17,-94.64 38.45,0 58.16,36 58.16,94.64 0,59.14 -19.71,94.62 -58.16,94.62 -37.95,0 -57.17,-35.48 -57.17,-94.62zm57.17 122.78c69.49,0 96.59,-53.79 96.59,-122.29 0,-68.5 -27.1,-123.21 -96.59,-123.21 -68.99,0 -95.6,54.71 -95.6,123.21 0,68.5 26.61,122.29 95.6,122.29zm-216.05 -111.93c0,28.08 -2.97,33.49 -8.88,47.29 -9.86,22.68 -33.49,36.48 -54.69,36.48 -17.27,0 -33.04,-11.84 -33.04,-34.01 0,-39.93 52.24,-49.76 76.88,-49.76l19.73 0zm0.98 106.44l32.54 0 0 -164.61c0,-29.57 -5.92,-75.4 -78.87,-75.4 -64.06,0 -83.77,35.98 -84.27,65.55l37.45 0c2.46,-18.24 9.86,-37.47 47.8,-37.47 17.76,0 37.47,6.4 42.89,32.54 1.48,7.88 1.48,33.51 1.48,44.84 -7.88,1.49 -14.79,1.49 -23.17,1.49 -40.9,0 -111.87,18.22 -111.87,72.95 0,41.88 24.65,65.6 63.08,65.6 42.89,0 66.04,-25.22 71.96,-36.54l0.98 0 0 31.05zm-80.35 -275.5c0,-1.97 1,-24.15 10.36,-24.15 9.86,0 35.5,25.14 57.67,25.14 25.14,0 28.6,-29.07 28.6,-53.72l-20.71 0c0,7.4 0,23.17 -10.36,23.17 -13.3,0 -38.93,-26.62 -58.15,-26.62 -4.43,0 -17.75,2.46 -22.67,18.72 -3.94,13.79 -5.42,27.61 -5.42,37.46l20.68 0zm-231.3 321.41c3.95,0 7.87,-0.48 11.82,-0.48 11.83,0 33.51,2.46 33.51,24.15 0,13.3 -11.32,22.66 -23.66,22.66 -10.84,0 -23.15,-6.4 -28.09,-11.82l0 25.12c5.43,2.47 16.27,6.4 31.06,6.4 32.03,0 48.29,-19.2 48.29,-40.89 0,-24.15 -14.28,-42.39 -41.4,-42.39l-7.4 0 6.43 -26.6c9.85,2.45 20.69,3.43 32.51,3.43 21.69,0 34.02,-1.95 48.8,-6.48l0 -26.61c-12.81,4.44 -29.58,4.93 -37.95,4.93 -77.87,0 -93.15,-62.59 -93.15,-107.45 0,-35.48 13.31,-81.81 55.7,-81.81 31.53,0 41.88,23.65 41.88,48.81l39.93 0c0,-37.47 -17.75,-76.89 -80.34,-76.89 -67.52,0 -95.6,46.81 -95.6,117.29 0,62.61 25.12,102.51 68.49,118.78l-10.83 49.85zm-178.12 -152.35c0,28.08 -2.94,33.49 -8.86,47.29 -9.86,22.68 -33.51,36.48 -54.71,36.48 -17.25,0 -33.02,-11.84 -33.02,-34.01 0,-39.93 52.24,-49.76 76.88,-49.76l19.71 0zm1 106.44l32.54 0 0 -164.61c0,-29.57 -5.93,-75.4 -78.87,-75.4 -64.06,0 -83.79,35.98 -84.27,65.55l37.45 0c2.46,-18.24 9.86,-37.47 47.8,-37.47 17.74,0 37.45,6.4 42.88,32.54 1.47,7.88 1.47,33.51 1.47,44.84 -7.87,1.49 -14.78,1.49 -23.16,1.49 -40.89,0 -111.86,18.22 -111.86,72.95 0,41.88 24.64,65.6 63.07,65.6 42.87,0 66.04,-25.22 71.95,-36.54l1 0 0 31.05zm-199.79 -27.6c-12.8,4.44 -29.57,4.93 -37.94,4.93 -77.88,0 -93.14,-62.59 -93.14,-107.45 0,-35.48 13.3,-81.81 55.67,-81.81 31.54,0 41.9,23.65 41.9,48.81l39.91 0c0,-37.47 -17.73,-76.89 -80.34,-76.89 -67.51,0 -95.6,46.81 -95.6,117.29 0,84.77 45.84,128.21 120.75,128.21 21.68,0 34.01,-1.95 48.79,-6.48l0 -26.61zm-299.34 -268.11l44.36 0 0 -44.35 -44.36 0 0 44.35zm5.41 295.71l33.53 0 0 -234.6 -33.53 0 0 234.6zm-274.69 0l33.5 0 0 -96.61c0,-42.37 22.2,-109.9 66.55,-109.9 34.5,0 34.5,35.99 34.5,76.39l0 130.12 33.52 0 0 -167.57c0,-38.94 -20.23,-72.44 -60.14,-72.44 -52.23,0 -67.03,40.4 -73.44,59.63l-0.99 0 0 -54.22 -33.5 0 0 234.6zm-139.66 0l33.5 0 0 -234.6 -33.5 0 0 96.61c0,42.37 -21.69,109.9 -66.04,109.9 -34.51,0 -34.51,-35.98 -34.51,-76.39l0 -130.12 -33.51 0 0 167.57c0,38.94 19.72,72.52 60.12,72.52 52.25,0 67.03,-40.48 72.94,-59.7l1 0 0 54.21zm-523.09 0l33.5 0 0 -96.61c0,-42.37 19.73,-109.9 58.64,-109.9 34.52,0 34.52,35.99 34.52,76.39l0 130.12 33.51 0 0 -96.61c0,-41.89 19.21,-109.9 58.64,-109.9 34.51,0 34.51,35.49 34.51,76.39l0 130.12 33.51 0 0 -167.57c0,-38.94 -20.21,-72.44 -60.13,-72.44 -41.9,0 -60.62,35.98 -66.53,53.72l-0.99 0c-2.47,-31.05 -19.72,-53.72 -59.13,-53.72 -46.82,0 -60.14,40.4 -65.56,59.63l-0.99 0 0 -54.22 -33.5 0 0 234.6zm-240.19 -117.29c0,-58.64 19.19,-94.64 57.14,-94.64 38.45,0 58.16,36 58.16,94.64 0,59.14 -19.71,94.62 -58.16,94.62 -37.95,0 -57.14,-35.48 -57.14,-94.62zm57.14 122.78c69.49,0 96.62,-53.79 96.62,-122.29 0,-68.5 -27.13,-123.21 -96.62,-123.21 -68.98,0 -95.6,54.71 -95.6,123.21 0,68.5 26.62,122.29 95.6,122.29zm3873.45 -680.81c44.65,0 75.6,-11.28 92.82,-33.62 17.48,-22.55 26.1,-62.32 26.1,-119.51l0 -349.11c0,-38.13 -10.23,-67.03 -30.41,-86.5 -20.18,-19.69 -49.76,-29.53 -88.51,-29.53 -38.73,0 -68.33,9.84 -88.25,29.53 -19.9,19.47 -29.86,48.37 -29.86,86.5l0 349.11c0,57.19 8.61,96.96 26.1,119.51 17.22,22.34 47.88,33.62 92.01,33.62zm0 127.3c-126.71,0 -216.03,-21.53 -267.95,-64.78 -51.94,-43.26 -78.03,-117.67 -78.03,-223.04l0 -348.89c0,-78.93 28.78,-137.97 86.36,-177.33 57.58,-39.15 143.94,-58.83 259.62,-58.83 115.69,0 202.31,19.68 260.16,58.83 57.84,39.36 86.63,98.4 86.63,177.33l0 348.89c0,105.37 -26.1,179.78 -78.02,223.04 -51.93,43.25 -141.51,64.78 -268.77,64.78zm-3344.64 -12.71l0 0 0 -847.45 0 0 555.82 0 0 0 0 62.94 0 63.13 0 0 -327.94 0 0 0 0 224.06 0 0 316.93 0 0 62.94 0 63.13 0 0 -316.93 0 0 0 0 245.18 0 0 334.13 0 0 0 0 62.93 0 63.14 0 0 -562.01 0zm-623.36 0l0 -721.38 0 0 -239.71 0 0 0 0 -63.13 0 -62.94 0 0 706.48 0 0 0 0 62.94 0 63.13 0 0 -238.89 0 0 0 0 721.38 0 0 -113.53 0 -114.35 0zm1371.54 0l0 0 0 -847.45 0 0 113.53 0 114.34 0 0 0 0 721.38 0 0 289.22 0 0 0 0 62.93 0 63.14 0 0 -517.09 0zm680.13 0l0 0 0 -847.45 0 0 555.82 0 0 0 0 62.94 0 63.13 0 0 -327.96 0 0 0 0 224.06 0 0 316.93 0 0 62.94 0 63.13 0 0 -316.93 0 0 0 0 245.18 0 0 334.15 0 0 0 0 62.93 0 63.14 0 0 -562.01 0zm1404.63 -288.22l0 25.21c2.15,99.42 -22.06,170.14 -72.37,212.37 -50.58,42.23 -135.86,63.35 -256.12,63.35 -127.8,0 -217.66,-22.96 -270.11,-68.88 -52.19,-45.72 -78.29,-124.64 -78.29,-236.36l0 -261.16c0,-112.54 26.1,-191.87 78.29,-237.59 52.45,-45.91 142.31,-68.88 270.11,-68.88 110.84,0 193.17,21.52 246.7,64.37 50.3,39.98 75.33,99.43 74.79,178.34l0 16.2 0 25.22 -226.26 0 0 -25.22c1.08,-44.07 -6.46,-77.08 -22.33,-98.8 -16.14,-21.94 -40.36,-32.81 -72.9,-32.81 -42.51,0 -73.19,12.51 -92.29,37.52 -18.82,25.01 -28.24,65.8 -28.24,122.38l0 261.36c0,73.6 8.87,124.85 26.36,153.76 17.48,28.9 48.97,43.25 94.17,43.25 34.97,0 61.06,-12.31 78.29,-36.9 16.94,-24.61 25.02,-61.91 23.94,-111.52l0 -25.21 226.26 0zm1240.52 288.22l0 0 -93.1 0 -93.61 0 0 0 0 -847.45 0 0 159.27 0 159.81 0 0 0 178.09 648.61 -0.8 0 0 0 177.02 -648.61 0 0 158.19 0 159.27 0 0 0 0 847.45 0 0 -93.08 0 -93.62 0 0 0 0 -711.74 0.53 0 -195.32 711.74 -113.54 0 -113.53 0 -195.05 -714.81 -0.53 0 0 714.81zm-4763.6 533.13c-12.83,4.44 -29.57,4.93 -37.94,4.93 -77.88,0 -93.16,-62.59 -93.16,-107.45 0,-35.48 13.3,-81.81 55.69,-81.81 31.54,0 41.89,23.65 41.89,48.81l39.93 0c0,-37.47 -17.74,-76.89 -80.35,-76.89 -67.5,0 -95.6,46.81 -95.6,117.29 0,84.77 45.84,128.21 120.75,128.21 21.67,0 34,-1.95 48.79,-6.48l0 -26.61z"/>
  <path class="fil2" d="M1203.58 4293.65c0,0 0,0 0,0 0,0 0,0 0,0 -67.3,29.18 -125.19,80.72 -164.82,140.93 -39.56,59.47 -62.92,128.77 -61.06,195.39 0,0 0,0 0,0 0,0 0,0 0,0 1.72,67.98 29.91,122.9 74.8,156.63 46.54,35.32 112.49,47.98 186.22,27.22 0,0 0,0 0,0 0,0 0,0 0,0 76.97,-21.52 146.99,-74.73 196.18,-143.39 49.51,-69.5 76.62,-152.31 67.72,-229.15 0,0 0,0 0,0 0,0 0,0 -0.04,-0.22 -8.59,-74.86 -49.52,-128.05 -106.26,-154.01 -54.22,-24.87 -122.77,-23.63 -192.74,6.6z"/>
 </g>
</svg>
