<?xml version="1.0" encoding="UTF-8"?>
<!DOCTYPE svg PUBLIC "-//W3C//DTD SVG 1.1//EN" "http://www.w3.org/Graphics/SVG/1.1/DTD/svg11.dtd">
<!-- Creator: CorelDRAW 2018 (64 Bit Versão de avaliação) -->
<svg xmlns="http://www.w3.org/2000/svg" xml:space="preserve" width="24.9766mm" height="8.4666mm" version="1.1" style="shape-rendering:geometricPrecision; text-rendering:geometricPrecision; image-rendering:optimizeQuality; fill-rule:evenodd; clip-rule:evenodd"
viewBox="0 0 2497.66 846.66"
 xmlns:xlink="http://www.w3.org/1999/xlink">
 <defs>
  <style type="text/css">
   <![CDATA[
    .fil0 {fill:none}
    .fil1 {fill:white;fill-rule:nonzero}
   ]]>
  </style>
 </defs>
 <g id="Camada_x0020_1">
  <metadata id="CorelCorpID_0Corel-Layer"/>
  <rect class="fil0" x="-0.01" y="-0.01" width="2497.67" height="846.67"/>
  <path class="fil1" d="M2335.59 568.78c0,7.45 -0.78,8.89 -2.35,12.55 -2.61,6.02 -8.9,9.68 -14.52,9.68 -4.58,0 -8.76,-3.14 -8.76,-9.02 0,-10.6 13.86,-13.21 20.4,-13.21l5.23 0zm-1980.73 -219.32c0,0 0,0 0,0 0,0 0,0 0,0 -17.86,7.74 -33.23,21.42 -43.75,37.4 -10.49,15.78 -16.69,34.18 -16.2,51.86 0,0 0,0 0,0 0,0 0,0 0,0 0.46,18.04 7.94,32.61 19.85,41.57 12.35,9.37 29.86,12.73 49.43,7.22 0,0 0,0 0,0 0,0 0,0 0,0 20.42,-5.71 39,-19.83 52.06,-38.06 13.14,-18.44 20.33,-40.42 17.97,-60.81 0,0 0,0 0,0 0,0 0,0 -0.01,-0.06 -2.28,-19.87 -13.14,-33.98 -28.2,-40.87 -14.39,-6.6 -32.58,-6.28 -51.15,1.75zm-8.87 -147.72c0,0 0,0 0,0 0,0 0,0 0,0 -10.78,6.45 -20.22,15.99 -26.8,26.14 -6.6,10.09 -10.42,21.08 -10.16,30.55 0.01,0.05 0.01,0.05 0.01,0.05 0,0 0,0 0,0 0.31,9.68 4.85,16.23 12.09,19.04 7.41,2.88 17.67,1.85 28.99,-4.02 0,0 0,0 0,0 0,0 0,0 0,0 11.63,-6.08 22.22,-16.03 29.63,-27.07 7.51,-11.18 11.7,-23.29 10.83,-33.51 0,0 0,0 0,0 0,0 0,0 -0.01,0 -0.9,-10.1 -6.55,-16.3 -14.9,-18.11 -8.08,-1.89 -18.65,0.37 -29.68,6.93zm-145.05 121.35c0,0 0,0 0,0 0,0 0,0 0,0 -0.05,0.01 -0.05,0.01 -0.05,0.01 -7.45,12.29 -11.48,25.24 -11.95,36.38 -0.43,11.28 2.82,20.92 9.95,26.09 0,0 0,0 0,0 10.71,7.73 27.37,3.6 42.47,-9.46 3.07,-2.59 5.96,-5.5 8.77,-8.74 2.75,-3.25 5.42,-6.82 7.91,-10.68 -0.05,0.02 -0.05,0.02 -0.05,0.02 0,0 0,0 0,0 12.77,-19.89 16.18,-41.1 10.43,-54.48 -1.11,-2.48 -2.56,-4.68 -4.31,-6.61 -1.73,-1.87 -3.8,-3.4 -6.14,-4.51 0,0 0,0 0,0 -0.05,0.02 -0.05,0.02 -0.05,0.02 0,0 0,0 0,0 0,0 0,0 0,0 -8.25,-3.86 -18.87,-1.98 -29.3,4 -10.09,5.79 -20.06,15.51 -27.68,27.96zm-42.92 168.27c0,0 0,0 0,0 0,0 0,0 0,0 -0.51,10.43 2.14,18.87 6.98,24.12 4.95,5.42 12.22,7.44 20.61,4.67 0,0 0,0 0,0 0,0 0,0 0.06,-0.01 8.56,-2.82 16.66,-10.04 22.67,-19.53 6.1,-9.52 9.94,-21.1 10.13,-32.23 0,0 0,0 0,0 0,0 0,0 0,0 0.24,-11.03 -3.25,-19.37 -8.85,-24.07 -5.48,-4.59 -13.02,-5.59 -21.26,-2.07 0,0.01 0,0.01 0,0.01 0,0 0,0 0,0 -8.06,3.45 -15.44,10.68 -20.85,19.53 -5.37,8.78 -8.93,19.27 -9.49,29.58zm214.64 110.01c0,0 0,0 0,0 0,0 0,0 0,0 -14.08,2.14 -26.19,10.49 -34.46,22.13 -8.27,11.52 -12.86,26.61 -11.99,42.78 0,0 0,0 0,0 0.01,0.1 0.01,0.1 0.01,0.1 0.82,16.48 7.2,31.35 17.16,42.3 10.2,11.33 24.27,18.56 39.45,18.34 0,0 0,0 0,0 0,0 0,0 0,0 15.83,-0.22 29.93,-8.37 39.6,-21.12 9.76,-13.01 14.76,-30.44 12.65,-48.89 0,0 0,0 -0.01,-0.11 0,0 0,0 0,0 -1.99,-18.11 -10.44,-33.38 -22.15,-43.42 -11.33,-9.64 -25.71,-14.36 -40.26,-12.11zm138.16 -92.9c0,0 0,0 0,0 -21.07,27.5 -22.97,62.29 -7.56,91.03 3.05,5.7 6.83,11.18 11.44,16.55 4.55,5.28 9.69,10.35 15.77,14.78 0,0 0,0 0,0 0,0 0,0 0,0 32.63,24.52 78.07,29.53 115.84,14.01 7.73,-3.02 15.08,-6.86 21.81,-11.63 6.66,-4.74 12.91,-10.31 18.51,-16.69 0,0 0,0 0,0 0,0 0,0 0,0 0,0 0,0 0,0 0,0 0,0 0,0 19.67,-22.61 25.58,-50.46 18.75,-76.16 -6.55,-24.95 -24.96,-47.04 -52.06,-60.48 0,0 0,0 0,0 -0.13,0.01 -0.13,0.01 -0.13,0.01 0,0 0,0 0.13,-0.01 -25.79,-12.73 -54.79,-15.02 -80.64,-9.29 -24.67,5.47 -47.02,18.51 -61.86,37.88zm41.75 -158.87c0,0 0,0 0,0 0,0 0,0 0,0 2.89,14.9 13.56,26.22 28.8,32.55 15.77,6.6 36.66,7.84 58.94,1.72 0,0 0,0 0,0 0,0 0,0 0.12,-0.03 23.11,-6.29 42.92,-19.08 55.99,-34.77 13.08,-15.83 18.91,-34.16 13.89,-50.63 0,0 0,0 0,0 0,0 0,0 0,0 -4.97,-16.19 -19.26,-27.11 -37.52,-31.92 -17.78,-4.45 -39.03,-3.19 -60,4.67 -0.11,0.03 -0.11,0.03 -0.11,0.03 0,0 0,0 0,0 -20.25,7.65 -36.71,20.18 -47.32,34.14 -10.57,13.92 -15.61,29.65 -12.79,44.24zm15.2 -229.02c0,0 0,0 0,0 -0.05,0.04 -0.05,0.04 -0.05,0.04 0,0 0,0 0.04,-0.11 -18.32,-1.7 -39.38,4.38 -58.72,15.28 -18.66,10.48 -35.9,25.5 -47.82,42.85 0,0 0,0 0,0 -16.91,24.58 -19.43,48.57 -8.55,63.4 2.12,2.93 4.85,5.5 8.16,7.7 3.26,2.24 6.97,4.04 11.39,5.25 0,0 0,0 0,0 0,0 0,0 0,0 23.56,6.82 56.77,-2.74 84.86,-23.23 5.62,-4.07 11.04,-8.57 16.02,-13.43 5,-4.88 9.65,-10.17 13.88,-15.83 -0.1,0.03 -0.1,0.03 -0.1,0.03 0,0 0,0 0.1,-0.03 0,0 0,0 0,0 0,0 0,0 0,0 14.77,-20.03 19.91,-39.86 15.97,-55.05 -3.79,-14.92 -16.09,-24.97 -35.18,-26.87zm-305.47 446.43l-0.07 0.11c-2.35,-2.26 -4.68,-4.52 -6.94,-6.77 -9.11,-6.87 -19.86,-8.56 -30.3,-5.83 -11.68,3.01 -23.18,11.61 -31.89,25.11 0,0 0,0 0,0 -12.44,19.15 -16.61,44.02 -11.99,64.59 0.87,4.02 2.09,7.94 3.72,11.7 1.65,3.77 3.6,7.3 5.96,10.44 0,0 0,0 0,0 0,0 0,0 0,0 12.57,17.19 32.29,20.92 50.19,10.82 3.55,-1.97 7.08,-4.53 10.35,-7.68 3.26,-3.07 6.41,-6.8 9.38,-10.97 -0.08,0.01 -0.08,0.01 -0.08,0.01 0,0 0,0 0,0 0,0 0,0 0.08,-0.01 0,0 0,0 0,0 10.3,-15.03 15.29,-33.7 14.88,-51.38 -0.35,-15.58 -4.91,-29.98 -13.29,-40.14zm83.32 -372.26c0,0 0,0 0,0 13.25,-7.98 25.99,-10.81 35.91,-8.77 10.17,2.2 17.22,9.58 18.33,21.75 0,0.05 0,0.05 0,0.05 0,0 0,0 0,0 1.2,12.4 -3.94,27.21 -13.12,40.76 -8.81,12.96 -20.93,24.5 -34.37,31.79 0.89,14.36 1.81,29.05 2.77,44.05 22.87,-10.05 45.64,-11.72 64.77,-5.76 12.18,-17.42 24.53,-35.04 37.01,-52.84 -2.77,-1.22 -5.3,-2.63 -7.58,-4.19 -3.72,-2.67 -6.84,-5.9 -9.39,-9.46 -12.56,-17.78 -9.39,-46.3 10.59,-75.48 0,0 0,0 0,0 14.09,-20.57 34.43,-38.64 56.54,-51.37 23.05,-13.22 48.53,-20.9 70.87,-19.22 0,0 0,0 0.1,-0.04 0,0 0,0 0,0 0,0 0,0 0,0 23.63,1.88 38.95,13.94 43.89,32.08 5.08,18.56 -1.02,42.83 -19.5,67.48 0.01,0.06 0.01,0.06 0.01,0.06 0,0 0,0 0,0 0,0 0,0 0,0 -0.1,0.04 -0.1,0.04 -0.1,0.04 -5,6.8 -10.79,13.18 -17.18,19.22 -6.03,5.88 -12.62,11.37 -19.65,16.33 -32.5,23.26 -70.16,34.4 -97.78,28.15 -12.7,17.97 -25.25,35.76 -37.62,53.35 18.88,9.5 32.62,27.5 36.59,52.47 22.76,-7.94 46.54,-16.17 71.42,-24.73 -1.72,-16.36 4.31,-33.53 15.78,-48.75 12.6,-16.81 32.18,-31.8 56.21,-41.13 0,0 0,0 0,0 0,0 0,0 0.06,-0.03 25.13,-9.68 50.95,-11.59 72.37,-6.3 22.73,5.37 40.18,18.6 46.45,38.31 0,0 0,0 0,0 0,0 0,0 0,0 6.44,20.14 -0.31,42.56 -16.84,61.89 -15.89,19.02 -40.36,34.58 -68.66,41.92 -0.07,0.02 -0.07,0.02 -0.07,0.02 0,0 0,0 0,0 -26.97,7.14 -52.16,5.27 -71.01,-2.8 -14.57,-6.33 -25.55,-16.57 -30.94,-29.73 -25.68,8.47 -50.19,16.62 -73.61,24.47 0.51,26.01 -9.23,53.06 -26.09,76.22 17.66,10.68 36.22,21.94 55.71,33.79 17.54,-22.23 43.27,-37.65 71.94,-44.49 30.7,-7.25 65.64,-4.94 97.23,9.81 0,0 0,0 0.13,-0.02 0,0 0,0 0,0 0,0 0,0 0,0 33.85,15.74 56.85,42.51 65.35,73 8.82,31.67 1.86,65.85 -23.03,93.75 0.03,0.13 0.03,0.13 0.03,0.13 0,0 0,0 0,0 0,0 0,0 0,0 -0.14,0.01 -0.14,0.01 -0.14,0.01 -6.64,7.75 -14.45,14.4 -23.14,20.14 -8.15,5.74 -17.1,10.45 -26.75,14.2 -46.59,18.23 -101.51,11.22 -140.19,-19.22 0,0 0,0 0,0 0,0 0,0 0,0 -7.24,-5.63 -13.57,-11.82 -18.93,-18.16 -5.1,-6.24 -9.44,-13.07 -13.04,-20.03 -15.52,-29.84 -15.43,-65.1 1.35,-95.26 -19.75,-12.46 -38.52,-24.28 -56.36,-35.5 -17.47,19.46 -39.69,34.08 -63.49,40.41 1.74,23.33 3.55,47.35 5.45,72.04 16.78,-2.14 33.19,3.26 46.51,14.24 14.36,11.92 24.88,30.39 27.49,52.47 0,0 0,0 0,0 0.01,0.05 0.01,0.05 0.01,0.05 2.71,22.54 -3.48,43.96 -15.39,59.73 -12.05,15.75 -29.19,25.19 -48.47,25.19 0,0 0,0 0,0 0,0 0,0 0,0 -18.56,0 -35.37,-8.77 -47.61,-22.69 -11.69,-13.31 -19.21,-31.26 -20.15,-50.93 0,0 0,0 0,-0.05 0,0 0,0 0,0 -0.9,-19.24 4.66,-37.19 14.36,-50.95 7.65,-10.76 18,-19.24 30.15,-23.81 -1.72,-24.94 -3.38,-49.18 -4.96,-72.73 -21.02,2.9 -39.6,-1.73 -53.78,-11.55 -10.93,16.13 -21.73,32.11 -32.38,47.91 10.8,12.14 16.7,29.86 17.25,49.15 0.63,21.61 -5.38,44.5 -18.16,62.86 0.01,0.1 0.01,0.1 0.01,0.1 0,0 0,0 0,0 0,0 0,0 0,0 -0.07,0 -0.07,0 -0.07,0 -3.48,5.1 -7.37,9.54 -11.46,13.28 -4.03,3.7 -8.26,6.81 -12.6,9.26 -21.88,11.9 -45.67,6.83 -60.57,-14.23 -0.07,0 -0.07,0 -0.07,0 0,0 0,0 0,0 -2.77,-3.93 -5.1,-8.28 -7.06,-12.78 -1.8,-4.44 -3.25,-9.2 -4.34,-14.12 -5.2,-24.53 -0.12,-54 14.59,-76.85 0,0 0,0 0,0 10.4,-16.03 23.97,-26.47 37.87,-30.32 12.77,-3.55 26.01,-1.58 37.25,6.85 10.5,-15.67 21.14,-31.52 31.91,-47.52 -11.68,-11.2 -19.27,-26.91 -21.38,-45.64 -16.73,6.03 -32.76,11.86 -48.14,17.45 -1.46,11.07 -5.72,22.12 -11.72,31.49 -7.39,11.46 -17.23,20.25 -27.6,23.53 -0.07,0.01 -0.07,0.01 -0.07,0.01 0,0 0,0 0,0 -10.13,3.2 -18.86,0.59 -24.78,-5.92 -5.7,-6.39 -8.85,-16.56 -8.17,-29.1 0,0 0,0 0,0 0,0 0,0 0,0 0.67,-12.36 4.94,-24.93 11.33,-35.35 6.52,-10.64 15.32,-19.3 24.93,-23.48 0,0 0,0 0,0 0,0 0,0 0.05,-0.06 9.89,-4.28 18.99,-3.25 25.69,2.18 6.35,5.12 10.45,14.18 10.87,26.1 15.05,-5.65 30.71,-11.54 47.03,-17.63 0.1,-19.64 5.96,-39.77 15.86,-58.03 -10.23,-6.28 -20.09,-12.29 -29.57,-18.09 -1.18,1.52 -2.39,2.99 -3.62,4.42 -3.35,3.91 -6.95,7.44 -10.62,10.57 -18.4,15.68 -38.52,20.46 -51.22,10.84 -0.05,0.02 -0.05,0.02 -0.05,0.02 -8.44,-6.44 -12.13,-18.05 -11.55,-31.6 0.57,-13.28 5.28,-28.7 14.27,-43.41 0,0 0,0 0,-0.04 0,0 0,0 0,-0.02 0,0 0,0 0,0 9.06,-14.76 20.92,-26.49 33.03,-33.53 12.45,-7.25 25.28,-9.69 35.4,-5.25 0,0 0,0 0.05,-0.02 0,0 0,0 0,0 0,0 0,0 0,0 0,0 0,0 0,0 2.92,1.31 5.46,3.04 7.63,5.26 2.14,2.24 3.89,4.96 5.27,8.01 7.15,15.81 3.24,41.22 -11.84,65.14l29.13 17.15c12.35,-18.71 29.53,-35.41 49.69,-46.8l-2.51 -44.83c-10.1,3.45 -19.05,3.53 -25.91,0.71 -8.61,-3.47 -13.96,-11.42 -14.27,-23.04 0,0 0,0 0,0 0,0 0,0 0,-0.05 -0.3,-11.36 4.36,-24.41 12.12,-36.57 7.91,-12.11 19.1,-23.52 32.06,-31.39 0,0 0,0 0,0zm1990.23 402.28l8.64 0 0 -43.69c0,-7.85 -1.57,-20.01 -20.93,-20.01 -17,0 -22.24,9.55 -22.37,17.4l9.95 0c0.64,-4.84 2.61,-9.95 12.68,-9.95 4.71,0 9.94,1.7 11.38,8.64 0.39,2.09 0.39,8.89 0.39,11.9 -2.09,0.39 -3.92,0.39 -6.14,0.39 -10.86,0 -29.7,4.84 -29.7,19.36 0,11.12 6.54,17.42 16.74,17.42 11.38,0 17.53,-6.7 19.1,-9.7l0.26 0 0 8.24zm-53.02 -7.33c-3.4,1.18 -7.85,1.31 -10.07,1.31 -20.66,0 -24.72,-16.61 -24.72,-28.51 0,-9.42 3.53,-21.72 14.78,-21.72 8.37,0 11.12,6.28 11.12,12.96l10.59 0c0,-9.95 -4.7,-20.41 -21.32,-20.41 -17.92,0 -25.37,12.42 -25.37,31.13 0,22.5 12.16,34.03 32.04,34.03 5.75,0 9.03,-0.52 12.95,-1.72l0 -7.07zm-79.44 -71.15l11.77 0 0 -11.77 -11.77 0 0 11.77zm1.43 78.48l8.9 0 0 -62.26 -8.9 0 0 62.26zm-21.63 -7.2c-1.96,0.66 -3.14,1.18 -6.01,1.18 -9.16,0 -10.21,-6.4 -10.21,-10.46l0 -38.33 16.75 0 0 -7.45 -16.75 0 0 -20.15 -8.89 5.63 0 14.52 -10.21 0 0 7.45 10.21 0 0 40.16c0,11.12 4.71,16.11 17.26,16.11 2.62,0 5.24,-0.26 7.85,-0.65l0 -8.01zm-65.84 -21.05c0,7.45 -0.78,8.89 -2.35,12.55 -2.62,6.02 -8.89,9.68 -14.52,9.68 -4.58,0 -8.76,-3.14 -8.76,-9.02 0,-10.6 13.86,-13.21 20.4,-13.21l5.23 0zm0.26 28.25l8.64 0 0 -43.69c0,-7.85 -1.57,-20.01 -20.93,-20.01 -17,0 -22.24,9.55 -22.37,17.4l9.94 0c0.65,-4.84 2.62,-9.95 12.69,-9.95 4.71,0 9.94,1.7 11.38,8.64 0.39,2.09 0.39,8.89 0.39,11.9 -2.09,0.39 -3.92,0.39 -6.15,0.39 -10.85,0 -29.68,4.84 -29.68,19.36 0,11.12 6.53,17.42 16.73,17.42 11.39,0 17.53,-6.7 19.1,-9.7l0.26 0 0 8.24zm-15.43 -73.12l8.24 0 8.76 -17.52 -11.51 0 -5.49 17.52zm-119.47 73.12l8.9 0 0 -25.64c0,-11.25 5.23,-29.17 15.56,-29.17 9.16,0 9.16,9.55 9.16,20.28l0 34.53 8.89 0 0 -25.64c0,-11.12 5.1,-29.17 15.57,-29.17 9.15,0 9.15,9.42 9.15,20.28l0 34.53 8.9 0 0 -44.47c0,-10.34 -5.37,-19.23 -15.96,-19.23 -11.12,0 -16.09,9.55 -17.66,14.26l-0.26 0c-0.65,-8.24 -5.23,-14.26 -15.7,-14.26 -12.42,0 -15.95,10.72 -17.39,15.83l-0.26 0 0 -14.39 -8.9 0 0 62.26zm-47.79 0l8.89 0 0 -25.77c0,-16.74 6.93,-28.38 21.06,-28.38l0 -9.55c-14.26,0 -18.97,9.28 -20.79,13.47l-0.27 0 0 -12.03 -8.89 0 0 62.26zm-63.88 -31.13c0,-15.56 5.1,-25.12 15.17,-25.12 10.2,0 15.44,9.56 15.44,25.12 0,15.7 -5.24,25.11 -15.44,25.11 -10.07,0 -15.17,-9.41 -15.17,-25.11zm15.17 32.59c18.45,0 25.64,-14.28 25.64,-32.46 0,-18.18 -7.19,-32.7 -25.64,-32.7 -18.31,0 -25.38,14.52 -25.38,32.7 0,18.18 7.07,32.46 25.38,32.46zm-65.19 -1.46l8.9 0 0 -54.81 17.92 0 0 -7.45 -17.92 0 0 -6.8c0,-8.37 2.74,-14.13 13.08,-14.13 3.79,0 6.67,0.91 9.02,1.7l0 -7.98c-2.87,-0.65 -6.14,-1.17 -10.59,-1.17 -15.57,0 -20.41,9.54 -20.41,19.75l0 8.63 -10.46 0 0 7.45 10.46 0 0 54.81zm-75.78 0l8.9 0 0 -25.64c0,-11.25 5.88,-29.17 17.66,-29.17 9.15,0 9.15,9.55 9.15,20.28l0 34.53 8.89 0 0 -44.47c0,-10.34 -5.36,-19.23 -15.95,-19.23 -13.87,0 -17.79,10.72 -19.49,15.83l-0.26 0 0 -14.39 -8.9 0 0 62.26zm-38.89 -78.48l11.76 0 0 -11.77 -11.76 0 0 11.77zm1.43 78.48l8.9 0 0 -62.26 -8.9 0 0 62.26zm-92.79 -44.47c0.79,-4.19 3.8,-11.78 13.09,-11.78 9.02,0 11.9,7.59 11.9,11.78l-24.99 0zm33.75 36.75c-2.87,0.66 -5.36,1.7 -12.29,1.7 -17.92,0 -22.11,-17.92 -22.11,-27.34l0 -3.66 35.84 0 0 -3.01c0,-13.6 -7.06,-23.67 -21.71,-23.67 -16.61,0 -24.33,11.9 -24.33,30.47 0,23.03 11.12,34.69 30.35,34.69 5.75,0 10.46,-0.65 14.25,-1.85l0 -7.33zm-138.17 -23.41c0,-15.56 5.1,-25.12 15.17,-25.12 10.21,0 15.44,9.56 15.44,25.12 0,15.7 -5.23,25.11 -15.44,25.11 -10.07,0 -15.17,-9.41 -15.17,-25.11zm15.17 32.59c18.44,0 25.63,-14.28 25.63,-32.46 0,-18.18 -7.19,-32.7 -25.63,-32.7 -18.31,0 -25.37,14.52 -25.37,32.7 0,18.18 7.06,32.46 25.37,32.46zm-57.34 -29.71c0,7.45 -0.79,8.89 -2.36,12.55 -2.61,6.02 -8.88,9.68 -14.51,9.68 -4.58,0 -8.77,-3.14 -8.77,-9.02 0,-10.6 13.87,-13.21 20.4,-13.21l5.24 0zm0.26 28.25l8.64 0 0 -43.69c0,-7.85 -1.57,-20.01 -20.94,-20.01 -17,0 -22.23,9.55 -22.36,17.4l9.94 0c0.65,-4.84 2.62,-9.95 12.69,-9.95 4.71,0 9.94,1.7 11.38,8.64 0.39,2.09 0.39,8.89 0.39,11.9 -2.09,0.39 -3.92,0.39 -6.15,0.39 -10.85,0 -29.69,4.84 -29.69,19.36 0,11.12 6.54,17.42 16.74,17.42 11.39,0 17.53,-6.7 19.1,-9.7l0.26 0 0 8.24zm-21.32 -73.12c0,-0.52 0.26,-6.41 2.75,-6.41 2.61,0 9.42,6.68 15.3,6.68 6.67,0 7.59,-7.72 7.59,-14.26l-5.49 0c0,1.96 0,6.15 -2.75,6.15 -3.53,0 -10.34,-7.07 -15.44,-7.07 -1.17,0 -4.71,0.66 -6.01,4.97 -1.05,3.66 -1.44,7.33 -1.44,9.94l5.49 0zm-61.39 85.3c1.05,0 2.09,-0.12 3.14,-0.12 3.14,0 8.89,0.65 8.89,6.4 0,3.53 -3.01,6.02 -6.28,6.02 -2.88,0 -6.14,-1.7 -7.45,-3.14l0 6.67c1.44,0.65 4.31,1.7 8.24,1.7 8.5,0 12.82,-5.1 12.82,-10.85 0,-6.41 -3.8,-11.25 -10.99,-11.25l-1.97 0 1.71 -7.06c2.62,0.65 5.49,0.91 8.63,0.91 5.76,0 9.03,-0.52 12.95,-1.72l0 -7.07c-3.4,1.18 -7.85,1.31 -10.07,1.31 -20.67,0 -24.72,-16.61 -24.72,-28.51 0,-9.42 3.53,-21.72 14.78,-21.72 8.37,0 11.11,6.28 11.11,12.96l10.6 0c0,-9.95 -4.71,-20.41 -21.32,-20.41 -17.92,0 -25.37,12.42 -25.37,31.13 0,16.61 6.66,27.2 18.17,31.52l-2.87 13.23zm-47.27 -40.43c0,7.45 -0.78,8.89 -2.36,12.55 -2.61,6.02 -8.89,9.68 -14.51,9.68 -4.58,0 -8.77,-3.14 -8.77,-9.02 0,-10.6 13.87,-13.21 20.41,-13.21l5.23 0zm0.26 28.25l8.64 0 0 -43.69c0,-7.85 -1.58,-20.01 -20.93,-20.01 -17.01,0 -22.24,9.55 -22.37,17.4l9.94 0c0.65,-4.84 2.62,-9.95 12.69,-9.95 4.71,0 9.93,1.7 11.38,8.64 0.39,2.09 0.39,8.89 0.39,11.9 -2.09,0.39 -3.93,0.39 -6.15,0.39 -10.85,0 -29.69,4.84 -29.69,19.36 0,11.12 6.54,17.42 16.74,17.42 11.38,0 17.53,-6.7 19.1,-9.7l0.26 0 0 8.24zm-53.02 -7.33c-3.4,1.18 -7.85,1.31 -10.07,1.31 -20.67,0 -24.72,-16.61 -24.72,-28.51 0,-9.42 3.53,-21.72 14.77,-21.72 8.38,0 11.12,6.28 11.12,12.96l10.6 0c0,-9.95 -4.71,-20.41 -21.33,-20.41 -17.91,0 -25.37,12.42 -25.37,31.13 0,22.5 12.17,34.03 32.05,34.03 5.75,0 9.02,-0.52 12.95,-1.72l0 -7.07zm-79.45 -71.15l11.78 0 0 -11.77 -11.78 0 0 11.77zm1.44 78.48l8.9 0 0 -62.26 -8.9 0 0 62.26zm-72.9 0l8.89 0 0 -25.64c0,-11.25 5.89,-29.17 17.66,-29.17 9.16,0 9.16,9.55 9.16,20.28l0 34.53 8.89 0 0 -44.47c0,-10.34 -5.37,-19.23 -15.96,-19.23 -13.86,0 -17.79,10.72 -19.49,15.83l-0.26 0 0 -14.39 -8.89 0 0 62.26zm-37.07 0l8.89 0 0 -62.26 -8.89 0 0 25.64c0,11.24 -5.75,29.16 -17.53,29.16 -9.16,0 -9.16,-9.55 -9.16,-20.27l0 -34.53 -8.89 0 0 44.47c0,10.33 5.24,19.25 15.96,19.25 13.87,0 17.79,-10.75 19.36,-15.85l0.26 0 0 14.39zm-138.83 0l8.89 0 0 -25.64c0,-11.25 5.24,-29.17 15.57,-29.17 9.16,0 9.16,9.55 9.16,20.28l0 34.53 8.89 0 0 -25.64c0,-11.12 5.1,-29.17 15.57,-29.17 9.15,0 9.15,9.42 9.15,20.28l0 34.53 8.9 0 0 -44.47c0,-10.34 -5.37,-19.23 -15.96,-19.23 -11.12,0 -16.09,9.55 -17.66,14.26l-0.26 0c-0.66,-8.24 -5.23,-14.26 -15.69,-14.26 -12.43,0 -15.96,10.72 -17.4,15.83l-0.27 0 0 -14.39 -8.89 0 0 62.26zm-63.74 -31.13c0,-15.56 5.09,-25.12 15.16,-25.12 10.21,0 15.44,9.56 15.44,25.12 0,15.7 -5.23,25.11 -15.44,25.11 -10.07,0 -15.16,-9.41 -15.16,-25.11zm15.16 32.59c18.44,0 25.65,-14.28 25.65,-32.46 0,-18.18 -7.21,-32.7 -25.65,-32.7 -18.31,0 -25.37,14.52 -25.37,32.7 0,18.18 7.06,32.46 25.37,32.46zm1028.01 -180.69c11.85,0 20.06,-2.99 24.64,-8.92 4.64,-5.99 6.92,-16.54 6.92,-31.72l0 -92.65c0,-10.12 -2.71,-17.79 -8.07,-22.96 -5.35,-5.23 -13.2,-7.84 -23.49,-7.84 -10.28,0 -18.13,2.61 -23.42,7.84 -5.28,5.17 -7.92,12.84 -7.92,22.96l0 92.65c0,15.18 2.28,25.73 6.92,31.72 4.57,5.93 12.71,8.92 24.42,8.92zm0 33.78c-33.63,0 -57.33,-5.71 -71.11,-17.19 -13.79,-11.48 -20.71,-31.23 -20.71,-59.19l0 -92.6c0,-20.94 7.64,-36.61 22.92,-47.06 15.28,-10.39 38.2,-15.61 68.9,-15.61 30.71,0 53.7,5.22 69.05,15.61 15.35,10.45 22.99,26.12 22.99,47.06l0 92.6c0,27.96 -6.93,47.71 -20.71,59.19 -13.78,11.48 -37.55,17.19 -71.33,17.19zm-887.66 -3.37l0 0 0 -224.91 0 0 147.51 0 0 0 0 16.7 0 16.76 0 0 -87.03 0 0 0 0 59.47 0 0 84.11 0 0 16.7 0 16.75 0 0 -84.11 0 0 0 0 65.07 0 0 88.68 0 0 0 0 16.71 0 16.75 0 0 -149.16 0zm-165.44 0l0 -191.45 0 0 -63.62 0 0 0 0 -16.76 0 -16.7 0 0 187.5 0 0 0 0 16.7 0 16.76 0 0 -63.4 0 0 0 0 191.45 0 0 -30.13 0 -30.35 0zm364 0l0 0 0 -224.91 0 0 30.14 0 30.34 0 0 0 0 191.45 0 0 76.76 0 0 0 0 16.71 0 16.75 0 0 -137.24 0zm180.51 0l0 0 0 -224.91 0 0 147.51 0 0 0 0 16.7 0 16.76 0 0 -87.04 0 0 0 0 59.47 0 0 84.12 0 0 16.7 0 16.75 0 0 -84.12 0 0 0 0 65.07 0 0 88.69 0 0 0 0 16.71 0 16.75 0 0 -149.16 0zm372.79 -76.49l0 6.69c0.57,26.39 -5.86,45.16 -19.21,56.36 -13.42,11.21 -36.06,16.81 -67.97,16.81 -33.92,0 -57.77,-6.09 -71.69,-18.28 -13.85,-12.13 -20.78,-33.07 -20.78,-62.73l0 -69.31c0,-29.86 6.93,-50.92 20.78,-63.05 13.92,-12.19 37.77,-18.28 71.69,-18.28 29.41,0 51.26,5.71 65.47,17.08 13.35,10.61 19.99,26.39 19.85,47.33l0 4.3 0 6.69 -60.05 0 0 -6.69c0.29,-11.7 -1.71,-20.45 -5.93,-26.22 -4.28,-5.82 -10.71,-8.71 -19.34,-8.71 -11.29,0 -19.43,3.32 -24.5,9.96 -4.99,6.64 -7.49,17.46 -7.49,32.48l0 69.37c0,19.53 2.35,33.13 6.99,40.8 4.64,7.67 13,11.48 25,11.48 9.28,0 16.2,-3.27 20.77,-9.79 4.5,-6.53 6.64,-16.43 6.36,-29.6l0 -6.69 60.05 0zm329.23 76.49l0 0 -24.71 0 -24.84 0 0 0 0 -224.91 0 0 42.27 0 42.41 0 0 0 47.27 172.14 -0.22 0 0 0 46.99 -172.14 0 0 41.98 0 42.27 0 0 0 0 224.91 0 0 -24.71 0 -24.84 0 0 0 0 -188.89 0.14 0 -51.84 188.89 -30.13 0 -30.13 0 -51.77 -189.71 -0.14 0 0 189.71zm-1264.25 141.49c-3.41,1.18 -7.85,1.31 -10.07,1.31 -20.67,0 -24.73,-16.61 -24.73,-28.51 0,-9.42 3.53,-21.72 14.78,-21.72 8.37,0 11.12,6.28 11.12,12.96l10.6 0c0,-9.95 -4.71,-20.41 -21.33,-20.41 -17.91,0 -25.37,12.42 -25.37,31.13 0,22.5 12.17,34.03 32.05,34.03 5.75,0 9.02,-0.52 12.95,-1.72l0 -7.07z"/>
 </g>
</svg>
